font.ufo
<glyph name="exclam" format="1">
  <advance width="289"/>
  <unicode hex="0021"/>
  <outline>
    <contour>
      <point x="144" y="-1" type="curve" smooth="yes"/>
      <point x="169" y="-1"/>
      <point x="189" y="18"/>
      <point x="189" y="43" type="curve" smooth="yes"/>
      <point x="189" y="68"/>
      <point x="169" y="88"/>
      <point x="144" y="88" type="curve" smooth="yes"/>
      <point x="119" y="88"/>
      <point x="100" y="68"/>
      <point x="100" y="43" type="curve" smooth="yes"/>
      <point x="100" y="18"/>
      <point x="119" y="-1"/>
    </contour>
    <contour>
      <point x="115" y="700" type="line"/>
      <point x="131" y="147" type="line"/>
      <point x="161" y="147" type="line"/>
      <point x="169" y="700" type="line"/>
    </contour>
  </outline>
</glyph>
<glyph name="quotedbl" format="1">
  <advance width="255"/>
  <unicode hex="0022"/>
  <outline>
    <contour>
      <point x="55" y="746" type="line"/>
      <point x="72" y="557" type="line"/>
      <point x="91" y="557" type="line"/>
      <point x="108" y="746" type="line"/>
    </contour>
    <contour>
      <point x="147" y="746" type="line"/>
      <point x="164" y="557" type="line"/>
      <point x="183" y="557" type="line"/>
      <point x="200" y="746" type="line"/>
    </contour>
  </outline>
</glyph>
<glyph name="plus" format="1">
  <advance width="550"/>
  <unicode hex="002B"/>
  <outline>
    <contour>
      <point x="295" y="565" type="line"/>
      <point x="295" y="355" type="line"/>
      <point x="495" y="355" type="line"/>
      <point x="495" y="315" type="line"/>
      <point x="295" y="315" type="line"/>
      <point x="295" y="105" type="line"/>
      <point x="255" y="105" type="line"/>
      <point x="255" y="315" type="line"/>
      <point x="55" y="315" type="line"/>
      <point x="55" y="355" type="line"/>
      <point x="255" y="355" type="line"/>
      <point x="255" y="565" type="line"/>
    </contour>
  </outline>
</glyph>
<glyph name="comma" format="1">
  <advance width="156"/>
  <unicode hex="002C"/>
  <outline>
    <contour>
      <point x="116" y="14" type="curve" smooth="yes"/>
      <point x="116" y="-32"/>
      <point x="90" y="-64"/>
      <point x="54" y="-89" type="curve"/>
      <point x="41" y="-77" type="line"/>
      <point x="64" y="-59"/>
      <point x="74" y="-44"/>
      <point x="74" y="-23" type="curve" smooth="yes"/>
      <point x="74" y="7"/>
      <point x="40" y="17"/>
      <point x="40" y="47" type="curve" smooth="yes"/>
      <point x="40" y="66"/>
      <point x="54" y="77"/>
      <point x="71" y="77" type="curve" smooth="yes"/>
      <point x="88" y="77"/>
      <point x="116" y="58"/>
    </contour>
  </outline>
</glyph>
<glyph name="period" format="1">
  <advance width="158"/>
  <unicode hex="002E"/>
  <outline>
    <contour>
      <point x="78" y="-1" type="curve" smooth="yes"/>
      <point x="101" y="-1"/>
      <point x="118" y="16"/>
      <point x="118" y="38" type="curve" smooth="yes"/>
      <point x="118" y="60"/>
      <point x="101" y="77"/>
      <point x="78" y="77" type="curve" smooth="yes"/>
      <point x="56" y="77"/>
      <point x="40" y="60"/>
      <point x="40" y="38" type="curve" smooth="yes"/>
      <point x="40" y="16"/>
      <point x="56" y="-1"/>
    </contour>
  </outline>
</glyph>
<glyph name="slash" format="1">
  <advance width="469"/>
  <unicode hex="002F"/>
  <outline>
    <contour>
      <point x="297" y="675" type="line"/>
      <point x="126" y="-5" type="line"/>
      <point x="170" y="-5" type="line"/>
      <point x="342" y="675" type="line"/>
    </contour>
  </outline>
</glyph>
<glyph name="three" format="1">
  <advance width="444"/>
  <unicode hex="0033"/>
  <outline>
    <contour>
      <point x="362" y="473" type="curve" smooth="yes"/>
      <point x="362" y="390"/>
      <point x="290" y="318"/>
      <point x="206" y="306" type="curve"/>
      <point x="206" y="314" type="line"/>
      <point x="331" y="297"/>
      <point x="384" y="231"/>
      <point x="384" y="145" type="curve" smooth="yes"/>
      <point x="384" y="47"/>
      <point x="295" y="-13"/>
      <point x="197" y="-13" type="curve" smooth="yes"/>
      <point x="133" y="-13"/>
      <point x="89" y="6"/>
      <point x="40" y="47" type="curve"/>
      <point x="43" y="56"/>
      <point x="48" y="64"/>
      <point x="54" y="68" type="curve"/>
      <point x="87" y="42"/>
      <point x="128" y="26"/>
      <point x="179" y="26" type="curve" smooth="yes"/>
      <point x="269" y="26"/>
      <point x="330" y="71"/>
      <point x="330" y="152" type="curve" smooth="yes"/>
      <point x="330" y="242"/>
      <point x="267" y="287"/>
      <point x="153" y="297" type="curve"/>
      <point x="153" y="322" type="line"/>
      <point x="242" y="322"/>
      <point x="308" y="385"/>
      <point x="308" y="461" type="curve" smooth="yes"/>
      <point x="308" y="528"/>
      <point x="262" y="569"/>
      <point x="206" y="569" type="curve" smooth="yes"/>
      <point x="145" y="569"/>
      <point x="104" y="540"/>
      <point x="84" y="470" type="curve"/>
      <point x="79" y="470"/>
      <point x="73" y="470"/>
      <point x="68" y="472" type="curve"/>
      <point x="68" y="503"/>
      <point x="69" y="543"/>
      <point x="73" y="573" type="curve"/>
      <point x="117" y="598"/>
      <point x="162" y="614"/>
      <point x="217" y="614" type="curve" smooth="yes"/>
      <point x="298" y="614"/>
      <point x="362" y="558"/>
    </contour>
  </outline>
</glyph>
<glyph name="five" format="1">
  <advance width="481"/>
  <unicode hex="0035"/>
  <outline>
    <contour>
      <point x="255" y="384" type="curve" smooth="yes"/>
      <point x="208" y="384"/>
      <point x="160" y="364"/>
      <point x="118" y="325" type="curve"/>
      <point x="144" y="545" type="line"/>
      <point x="387" y="545" type="line"/>
      <point x="396" y="569"/>
      <point x="403" y="598"/>
      <point x="407" y="626" type="curve"/>
      <point x="401" y="628"/>
      <point x="394" y="628"/>
      <point x="389" y="628" type="curve"/>
      <point x="380" y="607"/>
      <point x="360" y="591"/>
      <point x="305" y="591" type="curve" smooth="yes"/>
      <point x="111" y="591" type="line"/>
      <point x="81" y="289" type="line"/>
      <point x="98" y="281" type="line"/>
      <point x="145" y="316"/>
      <point x="196" y="341"/>
      <point x="244" y="341" type="curve" smooth="yes"/>
      <point x="316" y="341"/>
      <point x="367" y="292"/>
      <point x="367" y="203" type="curve" smooth="yes"/>
      <point x="367" y="105"/>
      <point x="297" y="27"/>
      <point x="195" y="27" type="curve" smooth="yes"/>
      <point x="139" y="27"/>
      <point x="105" y="40"/>
      <point x="65" y="70" type="curve"/>
      <point x="57" y="63"/>
      <point x="52" y="55"/>
      <point x="50" y="47" type="curve"/>
      <point x="95" y="9"/>
      <point x="144" y="-12"/>
      <point x="203" y="-12" type="curve" smooth="yes"/>
      <point x="327" y="-12"/>
      <point x="421" y="101"/>
      <point x="421" y="209" type="curve" smooth="yes"/>
      <point x="421" y="326"/>
      <point x="329" y="384"/>
    </contour>
  </outline>
</glyph>
<glyph name="six" format="1">
  <advance width="460"/>
  <unicode hex="0036"/>
  <outline>
    <contour>
      <point x="410" y="196" type="curve" smooth="yes"/>
      <point x="410" y="74"/>
      <point x="311" y="-11"/>
      <point x="227" y="-11" type="curve" smooth="yes"/>
      <point x="126" y="-11"/>
      <point x="60" y="73"/>
      <point x="60" y="220" type="curve" smooth="yes"/>
      <point x="60" y="360"/>
      <point x="131" y="515"/>
      <point x="330" y="608" type="curve"/>
      <point x="342" y="599"/>
      <point x="345" y="592"/>
      <point x="346" y="585" type="curve"/>
      <point x="186" y="500"/>
      <point x="114" y="360"/>
      <point x="114" y="208" type="curve" smooth="yes"/>
      <point x="114" y="110"/>
      <point x="155" y="27"/>
      <point x="226" y="27" type="curve" smooth="yes"/>
      <point x="305" y="27"/>
      <point x="359" y="82"/>
      <point x="359" y="194" type="curve" smooth="yes"/>
      <point x="359" y="274"/>
      <point x="311" y="333"/>
      <point x="247" y="333" type="curve" smooth="yes"/>
      <point x="200" y="333"/>
      <point x="149" y="309"/>
      <point x="105" y="245" type="curve"/>
      <point x="112" y="286" type="line"/>
      <point x="147" y="341"/>
      <point x="205" y="376"/>
      <point x="256" y="376" type="curve" smooth="yes"/>
      <point x="345" y="376"/>
      <point x="410" y="301"/>
    </contour>
  </outline>
</glyph>
<glyph name="seven" format="1">
  <advance width="401"/>
  <unicode hex="0037"/>
  <outline>
    <contour>
      <point x="367" y="601" type="line"/>
      <point x="376" y="591"/>
      <point x="383" y="579"/>
      <point x="386" y="566" type="curve"/>
      <point x="150" y="0" type="line"/>
      <point x="138" y="-2"/>
      <point x="114" y="1"/>
      <point x="102" y="6" type="curve"/>
      <point x="301" y="452" type="line"/>
      <point x="359" y="569" type="line"/>
      <point x="362" y="555" type="line"/>
      <point x="142" y="555" type="line" smooth="yes"/>
      <point x="71" y="555"/>
      <point x="53" y="545"/>
      <point x="45" y="491" type="curve"/>
      <point x="41" y="491"/>
      <point x="35" y="492"/>
      <point x="29" y="495" type="curve"/>
      <point x="29" y="533"/>
      <point x="33" y="568"/>
      <point x="40" y="601" type="curve"/>
    </contour>
  </outline>
</glyph>
<glyph name="eight" format="1">
  <advance width="518"/>
  <unicode hex="0038"/>
  <outline>
    <contour>
      <point x="436" y="472" type="curve" smooth="yes"/>
      <point x="436" y="547"/>
      <point x="375" y="612"/>
      <point x="278" y="612" type="curve" smooth="yes"/>
      <point x="191" y="612"/>
      <point x="84" y="554"/>
      <point x="84" y="460" type="curve" smooth="yes"/>
      <point x="84" y="387"/>
      <point x="160" y="329"/>
      <point x="229" y="302" type="curve" smooth="yes"/>
      <point x="302" y="273"/>
      <point x="406" y="240"/>
      <point x="406" y="144" type="curve" smooth="yes"/>
      <point x="406" y="72"/>
      <point x="354" y="24"/>
      <point x="252" y="24" type="curve" smooth="yes"/>
      <point x="196" y="24"/>
      <point x="123" y="52"/>
      <point x="123" y="138" type="curve" smooth="yes"/>
      <point x="123" y="199"/>
      <point x="171" y="237"/>
      <point x="269" y="299" type="curve" smooth="yes"/>
      <point x="361" y="352"/>
      <point x="436" y="393"/>
    </contour>
    <contour>
      <point x="132" y="467" type="curve" smooth="yes"/>
      <point x="132" y="540"/>
      <point x="185" y="577"/>
      <point x="263" y="577" type="curve" smooth="yes"/>
      <point x="353" y="577"/>
      <point x="390" y="524"/>
      <point x="390" y="465" type="curve" smooth="yes"/>
      <point x="390" y="409"/>
      <point x="350" y="374"/>
      <point x="248" y="317" type="curve" smooth="yes"/>
      <point x="140" y="257"/>
      <point x="76" y="209"/>
      <point x="76" y="132" type="curve" smooth="yes"/>
      <point x="76" y="49"/>
      <point x="158" y="-11"/>
      <point x="244" y="-11" type="curve" smooth="yes"/>
      <point x="363" y="-11"/>
      <point x="449" y="70"/>
      <point x="449" y="149" type="curve" smooth="yes"/>
      <point x="449" y="247"/>
      <point x="357" y="298"/>
      <point x="286" y="325" type="curve" smooth="yes"/>
      <point x="217" y="351"/>
      <point x="132" y="397"/>
    </contour>
  </outline>
</glyph>
<glyph name="less" format="1">
  <advance width="447"/>
  <unicode hex="003C"/>
  <outline>
    <contour>
      <point x="30" y="297" type="line"/>
      <point x="407" y="97" type="line"/>
      <point x="407" y="142" type="line"/>
      <point x="72" y="318" type="line"/>
      <point x="407" y="494" type="line"/>
      <point x="407" y="539" type="line"/>
      <point x="30" y="339" type="line"/>
    </contour>
  </outline>
</glyph>
<glyph name="equal" format="1">
  <advance width="560"/>
  <unicode hex="003D"/>
  <outline>
    <contour>
      <point x="500" y="407" type="line"/>
      <point x="500" y="367" type="line"/>
      <point x="60" y="367" type="line"/>
      <point x="60" y="407" type="line"/>
    </contour>
    <contour>
      <point x="500" y="247" type="line"/>
      <point x="500" y="207" type="line"/>
      <point x="60" y="207" type="line"/>
      <point x="60" y="247" type="line"/>
    </contour>
  </outline>
</glyph>
<glyph name="greater" format="1">
  <advance width="447"/>
  <unicode hex="003E"/>
  <outline>
    <contour>
      <point x="40" y="539" type="line"/>
      <point x="40" y="494" type="line"/>
      <point x="375" y="318" type="line"/>
      <point x="40" y="142" type="line"/>
      <point x="40" y="97" type="line"/>
      <point x="417" y="297" type="line"/>
      <point x="417" y="339" type="line"/>
    </contour>
  </outline>
</glyph>
<glyph name="question" format="1">
  <advance width="457"/>
  <unicode hex="003F"/>
  <outline>
    <contour>
      <point x="60" y="622" type="curve"/>
      <point x="72" y="610" type="line"/>
      <point x="116" y="640"/>
      <point x="162" y="657"/>
      <point x="215" y="657" type="curve" smooth="yes"/>
      <point x="297" y="657"/>
      <point x="354" y="603"/>
      <point x="354" y="528" type="curve" smooth="yes"/>
      <point x="354" y="469"/>
      <point x="330" y="428"/>
      <point x="274" y="380" type="curve" smooth="yes"/>
      <point x="209" y="325" type="line" smooth="yes"/>
      <point x="166" y="289"/>
      <point x="162" y="270"/>
      <point x="168" y="215" type="curve" smooth="yes"/>
      <point x="179" y="117" type="line"/>
      <point x="194" y="117" type="line"/>
      <point x="194" y="216" type="line" smooth="yes"/>
      <point x="194" y="260"/>
      <point x="201" y="274"/>
      <point x="235" y="299" type="curve" smooth="yes"/>
      <point x="306" y="350" type="line" smooth="yes"/>
      <point x="372" y="398"/>
      <point x="407" y="448"/>
      <point x="407" y="528" type="curve" smooth="yes"/>
      <point x="407" y="632"/>
      <point x="320" y="701"/>
      <point x="233" y="701" type="curve" smooth="yes"/>
      <point x="165" y="701"/>
      <point x="114" y="675"/>
    </contour>
    <contour>
      <point x="148" y="27" type="curve" smooth="yes"/>
      <point x="148" y="5"/>
      <point x="164" y="-12"/>
      <point x="187" y="-12" type="curve" smooth="yes"/>
      <point x="210" y="-12"/>
      <point x="228" y="5"/>
      <point x="228" y="27" type="curve" smooth="yes"/>
      <point x="228" y="50"/>
      <point x="210" y="68"/>
      <point x="187" y="68" type="curve" smooth="yes"/>
      <point x="164" y="68"/>
      <point x="148" y="50"/>
    </contour>
  </outline>
</glyph>
<glyph name="B" format="1">
  <advance width="529"/>
  <unicode hex="0042"/>
  <outline>
    <contour>
      <point x="441" y="447" type="curve" smooth="yes"/>
      <point x="441" y="370"/>
      <point x="382" y="319"/>
      <point x="317" y="306" type="curve"/>
      <point x="310" y="316" type="line"/>
      <point x="415" y="315"/>
      <point x="470" y="237"/>
      <point x="470" y="161" type="curve" smooth="yes"/>
      <point x="470" y="84"/>
      <point x="413" y="0"/>
      <point x="270" y="0" type="curve" smooth="yes"/>
      <point x="32" y="0" type="line"/>
      <point x="32" y="7"/>
      <point x="32" y="16"/>
      <point x="34" y="21" type="curve"/>
      <point x="82" y="27"/>
      <point x="97" y="36"/>
      <point x="97" y="66" type="curve" smooth="yes"/>
      <point x="97" y="576" type="line"/>
      <point x="103" y="562" type="line"/>
      <point x="77" y="574"/>
      <point x="56" y="579"/>
      <point x="30" y="580" type="curve"/>
      <point x="30" y="587"/>
      <point x="31" y="597"/>
      <point x="32" y="601" type="curve"/>
      <point x="241" y="601" type="line" smooth="yes"/>
      <point x="393" y="601"/>
      <point x="441" y="525"/>
    </contour>
    <contour>
      <point x="136" y="575" type="line"/>
      <point x="145" y="582" type="line"/>
      <point x="145" y="20" type="line"/>
      <point x="132" y="28" type="line"/>
      <point x="270" y="28" type="line" smooth="yes"/>
      <point x="376" y="28"/>
      <point x="413" y="92"/>
      <point x="413" y="161" type="curve" smooth="yes"/>
      <point x="413" y="230"/>
      <point x="376" y="295"/>
      <point x="270" y="295" type="curve" smooth="yes"/>
      <point x="117" y="295" type="line"/>
      <point x="117" y="323" type="line"/>
      <point x="292" y="322" type="line"/>
      <point x="351" y="341"/>
      <point x="385" y="380"/>
      <point x="385" y="448" type="curve" smooth="yes"/>
      <point x="385" y="517"/>
      <point x="349" y="575"/>
      <point x="241" y="575" type="curve" smooth="yes"/>
    </contour>
  </outline>
</glyph>
<glyph name="E" format="1">
  <advance width="497"/>
  <unicode hex="0045"/>
  <outline>
    <contour>
      <point x="260" y="601" type="move" name="top"/>
    </contour>
    <contour>
      <point x="443" y="0" type="move" name="ogonek"/>
    </contour>
    <contour>
      <point x="259" y="0" type="move" name="bottom"/>
    </contour>
    <contour>
      <point x="347" y="289" type="line"/>
      <point x="321" y="289" type="line"/>
      <point x="125" y="293" type="line"/>
      <point x="125" y="321" type="line"/>
      <point x="321" y="327" type="line"/>
      <point x="347" y="327" type="line"/>
    </contour>
    <contour>
      <point x="422" y="482" type="curve"/>
      <point x="418" y="480"/>
      <point x="410" y="480"/>
      <point x="405" y="480" type="curve"/>
      <point x="399" y="548"/>
      <point x="382" y="575"/>
      <point x="314" y="575" type="curve" smooth="yes"/>
      <point x="136" y="575" type="line"/>
      <point x="148" y="583" type="line"/>
      <point x="148" y="19" type="line"/>
      <point x="134" y="28" type="line"/>
      <point x="331" y="28" type="line" smooth="yes"/>
      <point x="399" y="28"/>
      <point x="415" y="54"/>
      <point x="422" y="122" type="curve"/>
      <point x="428" y="122"/>
      <point x="435" y="122"/>
      <point x="441" y="121" type="curve"/>
      <point x="444" y="81"/>
      <point x="445" y="41"/>
      <point x="443" y="0" type="curve"/>
      <point x="34" y="0" type="line"/>
      <point x="33" y="7"/>
      <point x="34" y="16"/>
      <point x="37" y="21" type="curve"/>
      <point x="85" y="27"/>
      <point x="100" y="36"/>
      <point x="100" y="66" type="curve" smooth="yes"/>
      <point x="100" y="580" type="line"/>
      <point x="105" y="562" type="line"/>
      <point x="80" y="574"/>
      <point x="58" y="579"/>
      <point x="31" y="580" type="curve"/>
      <point x="31" y="587"/>
      <point x="32" y="597"/>
      <point x="34" y="601" type="curve"/>
      <point x="426" y="601" type="line"/>
      <point x="428" y="561"/>
      <point x="427" y="520"/>
    </contour>
  </outline>
</glyph>
<glyph name="I" format="1">
  <advance width="247"/>
  <unicode hex="0049"/>
  <outline>
    <contour>
      <point x="124" y="601" type="move" name="top"/>
    </contour>
    <contour>
      <point x="212" y="0" type="move" name="ogonek"/>
    </contour>
    <contour>
      <point x="148" y="8" type="line"/>
      <point x="120" y="51" type="line"/>
      <point x="158" y="30"/>
      <point x="182" y="23"/>
      <point x="215" y="21" type="curve"/>
      <point x="215" y="14"/>
      <point x="214" y="6"/>
      <point x="212" y="0" type="curve"/>
      <point x="34" y="0" type="line"/>
      <point x="33" y="7"/>
      <point x="34" y="16"/>
      <point x="37" y="21" type="curve"/>
      <point x="85" y="27"/>
      <point x="100" y="36"/>
      <point x="100" y="66" type="curve" smooth="yes"/>
      <point x="100" y="582" type="line"/>
      <point x="126" y="551" type="line"/>
      <point x="88" y="571"/>
      <point x="65" y="578"/>
      <point x="31" y="580" type="curve"/>
      <point x="31" y="587"/>
      <point x="32" y="597"/>
      <point x="34" y="601" type="curve"/>
      <point x="212" y="601" type="line"/>
      <point x="212" y="596"/>
      <point x="212" y="586"/>
      <point x="210" y="580" type="curve"/>
      <point x="163" y="575"/>
      <point x="148" y="566"/>
      <point x="148" y="537" type="curve" smooth="yes"/>
    </contour>
  </outline>
</glyph>
<glyph name="P" format="1">
  <advance width="495"/>
  <unicode hex="0050"/>
  <outline>
    <contour>
      <point x="466" y="429" type="curve" smooth="yes"/>
      <point x="466" y="343"/>
      <point x="393" y="258"/>
      <point x="265" y="258" type="curve" smooth="yes"/>
      <point x="130" y="258" type="line"/>
      <point x="126" y="266"/>
      <point x="125" y="276"/>
      <point x="125" y="286" type="curve"/>
      <point x="251" y="286" type="line" smooth="yes"/>
      <point x="360" y="286"/>
      <point x="408" y="353"/>
      <point x="408" y="429" type="curve" smooth="yes"/>
      <point x="408" y="508"/>
      <point x="362" y="575"/>
      <point x="251" y="575" type="curve" smooth="yes"/>
      <point x="136" y="575" type="line"/>
      <point x="146" y="581" type="line"/>
      <point x="146" y="21" type="line"/>
      <point x="138" y="45" type="line"/>
      <point x="173" y="30"/>
      <point x="208" y="23"/>
      <point x="247" y="21" type="curve"/>
      <point x="247" y="14"/>
      <point x="246" y="6"/>
      <point x="244" y="0" type="curve"/>
      <point x="33" y="0" type="line"/>
      <point x="32" y="7"/>
      <point x="33" y="16"/>
      <point x="35" y="21" type="curve"/>
      <point x="83" y="27"/>
      <point x="98" y="36"/>
      <point x="98" y="66" type="curve" smooth="yes"/>
      <point x="98" y="579" type="line"/>
      <point x="124" y="551" type="line"/>
      <point x="87" y="570"/>
      <point x="63" y="579"/>
      <point x="30" y="580" type="curve"/>
      <point x="30" y="587"/>
      <point x="31" y="597"/>
      <point x="32" y="601" type="curve"/>
      <point x="265" y="601" type="line" smooth="yes"/>
      <point x="393" y="601"/>
      <point x="466" y="517"/>
    </contour>
  </outline>
</glyph>
<glyph name="S" format="1">
  <advance width="456"/>
  <unicode hex="0053"/>
  <outline>
    <contour>
      <point x="251" y="601" type="move" name="top"/>
    </contour>
    <contour>
      <point x="237" y="0" type="move" name="bottom"/>
    </contour>
    <contour>
      <point x="394" y="579" type="curve"/>
      <point x="393" y="541"/>
      <point x="390" y="509"/>
      <point x="384" y="476" type="curve"/>
      <point x="379" y="476"/>
      <point x="372" y="476"/>
      <point x="369" y="478" type="curve"/>
      <point x="356" y="547"/>
      <point x="309" y="579"/>
      <point x="235" y="579" type="curve" smooth="yes"/>
      <point x="159" y="579"/>
      <point x="116" y="538"/>
      <point x="116" y="473" type="curve" smooth="yes"/>
      <point x="116" y="318"/>
      <point x="411" y="348"/>
      <point x="411" y="156" type="curve" smooth="yes"/>
      <point x="411" y="58"/>
      <point x="332" y="-7"/>
      <point x="215" y="-7" type="curve" smooth="yes"/>
      <point x="154" y="-7"/>
      <point x="107" y="7"/>
      <point x="56" y="37" type="curve"/>
      <point x="54" y="86"/>
      <point x="58" y="131"/>
      <point x="64" y="169" type="curve"/>
      <point x="69" y="169"/>
      <point x="73" y="169"/>
      <point x="79" y="167" type="curve"/>
      <point x="77" y="55"/>
      <point x="139" y="22"/>
      <point x="224" y="22" type="curve" smooth="yes"/>
      <point x="303" y="22"/>
      <point x="362" y="74"/>
      <point x="362" y="145" type="curve" smooth="yes"/>
      <point x="362" y="310"/>
      <point x="69" y="282"/>
      <point x="69" y="466" type="curve" smooth="yes"/>
      <point x="69" y="555"/>
      <point x="145" y="610"/>
      <point x="242" y="610" type="curve" smooth="yes"/>
      <point x="303" y="610"/>
      <point x="352" y="596"/>
    </contour>
  </outline>
</glyph>
<glyph name="W" format="1">
  <advance width="842"/>
  <unicode hex="0057"/>
  <outline>
    <contour>
      <point x="175" y="579" type="curve"/>
      <point x="120" y="574"/>
      <point x="112" y="568"/>
      <point x="121" y="536" type="curve" smooth="yes"/>
      <point x="232" y="154" type="line" smooth="yes"/>
      <point x="238" y="135"/>
      <point x="244" y="111"/>
      <point x="247" y="86" type="curve"/>
      <point x="250" y="86" type="line"/>
      <point x="428" y="569" type="line"/>
      <point x="443" y="569" type="line"/>
      <point x="594" y="139" type="line" smooth="yes"/>
      <point x="600" y="122"/>
      <point x="605" y="102"/>
      <point x="607" y="81" type="curve"/>
      <point x="609" y="81" type="line"/>
      <point x="756" y="585" type="line"/>
      <point x="760" y="554" type="line"/>
      <point x="741" y="566"/>
      <point x="721" y="575"/>
      <point x="694" y="579" type="curve"/>
      <point x="695" y="587"/>
      <point x="697" y="595"/>
      <point x="699" y="601" type="curve"/>
      <point x="837" y="601" type="line"/>
      <point x="838" y="594"/>
      <point x="836" y="587"/>
      <point x="835" y="579" type="curve"/>
      <point x="796" y="572"/>
      <point x="781" y="565"/>
      <point x="769" y="525" type="curve" smooth="yes"/>
      <point x="610" y="-6" type="line"/>
      <point x="595" y="-6" type="line"/>
      <point x="420" y="496" type="line"/>
      <point x="434" y="496" type="line"/>
      <point x="245" y="-6" type="line"/>
      <point x="229" y="-6" type="line"/>
      <point x="57" y="585" type="line"/>
      <point x="92" y="551" type="line"/>
      <point x="67" y="566"/>
      <point x="32" y="576"/>
      <point x="6" y="579" type="curve"/>
      <point x="5" y="587"/>
      <point x="4" y="595"/>
      <point x="5" y="601" type="curve"/>
      <point x="171" y="601" type="line"/>
      <point x="174" y="594"/>
      <point x="175" y="587"/>
    </contour>
  </outline>
</glyph>
<glyph name="bracketleft" format="1">
  <advance width="295"/>
  <unicode hex="005B"/>
  <outline>
    <contour>
      <point x="150" y="743" type="line"/>
      <point x="265" y="743" type="line"/>
      <point x="265" y="770" type="line"/>
      <point x="100" y="770" type="line"/>
      <point x="100" y="-128" type="line"/>
      <point x="265" y="-128" type="line"/>
      <point x="265" y="-101" type="line"/>
      <point x="150" y="-101" type="line"/>
    </contour>
  </outline>
</glyph>
<glyph name="d" format="1">
  <advance width="516"/>
  <unicode hex="0064"/>
  <outline>
    <contour>
      <point x="454" y="700" type="move" name="commaaccent"/>
    </contour>
    <contour>
      <point x="385" y="409" type="line"/>
      <point x="347" y="421"/>
      <point x="324" y="426"/>
      <point x="283" y="426" type="curve" smooth="yes"/>
      <point x="172" y="426"/>
      <point x="99" y="368"/>
      <point x="99" y="230" type="curve" smooth="yes"/>
      <point x="99" y="91"/>
      <point x="156" y="29"/>
      <point x="245" y="29" type="curve" smooth="yes"/>
      <point x="299" y="29"/>
      <point x="338" y="48"/>
      <point x="372" y="88" type="curve"/>
      <point x="375" y="63" type="line"/>
      <point x="347" y="23"/>
      <point x="301" y="-12"/>
      <point x="229" y="-12" type="curve" smooth="yes"/>
      <point x="129" y="-12"/>
      <point x="47" y="67"/>
      <point x="47" y="216" type="curve" smooth="yes"/>
      <point x="47" y="382"/>
      <point x="170" y="465"/>
      <point x="304" y="465" type="curve" smooth="yes"/>
      <point x="328" y="465"/>
      <point x="352" y="462"/>
      <point x="373" y="457" type="curve"/>
    </contour>
    <contour>
      <point x="407" y="85" type="line"/>
      <point x="407" y="45"/>
      <point x="415" y="30"/>
      <point x="438" y="30" type="curve" smooth="yes"/>
      <point x="448" y="30"/>
      <point x="461" y="32"/>
      <point x="475" y="35" type="curve"/>
      <point x="480" y="28" type="line"/>
      <point x="464" y="7"/>
      <point x="440" y="-12"/>
      <point x="415" y="-12" type="curve" smooth="yes"/>
      <point x="383" y="-12"/>
      <point x="358" y="14"/>
      <point x="357" y="54" type="curve" smooth="yes"/>
      <point x="357" y="671" type="line"/>
      <point x="366" y="656" type="line"/>
      <point x="340" y="658"/>
      <point x="315" y="658"/>
      <point x="286" y="657" type="curve"/>
      <point x="286" y="665"/>
      <point x="287" y="671"/>
      <point x="289" y="677" type="curve"/>
      <point x="328" y="694"/>
      <point x="366" y="706"/>
      <point x="407" y="714" type="curve"/>
    </contour>
  </outline>
</glyph>
<glyph name="f" format="1">
  <advance width="285"/>
  <unicode hex="0066"/>
  <outline>
    <contour>
      <point x="147" y="21" type="line"/>
      <point x="139" y="48" type="line"/>
      <point x="178" y="32"/>
      <point x="215" y="25"/>
      <point x="256" y="23" type="curve"/>
      <point x="256" y="15"/>
      <point x="256" y="6"/>
      <point x="254" y="0" type="curve"/>
      <point x="28" y="0" type="line"/>
      <point x="27" y="7"/>
      <point x="28" y="17"/>
      <point x="30" y="23" type="curve"/>
      <point x="81" y="29"/>
      <point x="97" y="39"/>
      <point x="97" y="70" type="curve" smooth="yes"/>
      <point x="97" y="427" type="line"/>
      <point x="122" y="410" type="line"/>
      <point x="93" y="417"/>
      <point x="60" y="419"/>
      <point x="30" y="419" type="curve"/>
      <point x="30" y="425"/>
      <point x="31" y="429"/>
      <point x="31" y="432" type="curve"/>
      <point x="52" y="439"/>
      <point x="74" y="444"/>
      <point x="97" y="446" type="curve"/>
      <point x="97" y="518" type="line"/>
      <point x="97" y="659"/>
      <point x="177" y="709"/>
      <point x="240" y="709" type="curve" smooth="yes"/>
      <point x="277" y="709"/>
      <point x="315" y="689"/>
      <point x="339" y="664" type="curve"/>
      <point x="338" y="635"/>
      <point x="335" y="610"/>
      <point x="328" y="580" type="curve"/>
      <point x="322" y="580"/>
      <point x="312" y="581"/>
      <point x="306" y="582" type="curve"/>
      <point x="309" y="646"/>
      <point x="283" y="675"/>
      <point x="238" y="675" type="curve" smooth="yes"/>
      <point x="181" y="675"/>
      <point x="147" y="644"/>
      <point x="147" y="550" type="curve"/>
    </contour>
    <contour>
      <point x="134" y="447" type="line"/>
      <point x="191" y="447"/>
      <point x="244" y="448"/>
      <point x="294" y="452" type="curve"/>
      <point x="294" y="434"/>
      <point x="293" y="428"/>
      <point x="286" y="415" type="curve"/>
      <point x="134" y="415" type="line"/>
    </contour>
  </outline>
</glyph>
<glyph name="i" format="1">
  <advance width="260"/>
  <unicode hex="0069"/>
  <outline>
    <contour>
      <point x="219" y="0" type="move" name="ogonek"/>
    </contour>
    <contour>
      <point x="169" y="607" type="curve" smooth="yes"/>
      <point x="169" y="632"/>
      <point x="149" y="652"/>
      <point x="124" y="652" type="curve" smooth="yes"/>
      <point x="100" y="652"/>
      <point x="80" y="632"/>
      <point x="80" y="607" type="curve" smooth="yes"/>
      <point x="80" y="583"/>
      <point x="100" y="562"/>
      <point x="124" y="562" type="curve" smooth="yes"/>
      <point x="149" y="562"/>
      <point x="169" y="583"/>
    </contour>
    <contour>
      <point x="151" y="21" type="line"/>
      <point x="143" y="43" type="line"/>
      <point x="172" y="30"/>
      <point x="194" y="25"/>
      <point x="222" y="23" type="curve"/>
      <point x="222" y="15"/>
      <point x="221" y="6"/>
      <point x="219" y="0" type="curve"/>
      <point x="33" y="0" type="line"/>
      <point x="32" y="7"/>
      <point x="33" y="17"/>
      <point x="34" y="23" type="curve"/>
      <point x="85" y="28"/>
      <point x="101" y="38"/>
      <point x="101" y="69" type="curve" smooth="yes"/>
      <point x="101" y="415" type="line"/>
      <point x="109" y="401" type="line"/>
      <point x="84" y="402"/>
      <point x="59" y="403"/>
      <point x="30" y="402" type="curve"/>
      <point x="30" y="409"/>
      <point x="31" y="415"/>
      <point x="33" y="422" type="curve"/>
      <point x="70" y="436"/>
      <point x="110" y="449"/>
      <point x="151" y="459" type="curve"/>
    </contour>
  </outline>
</glyph>
<glyph name="r" format="1">
  <advance width="336"/>
  <unicode hex="0072"/>
  <outline>
    <contour>
      <point x="198" y="463" type="move" name="top"/>
    </contour>
    <contour>
      <point x="127" y="0" type="move" name="bottom"/>
    </contour>
    <contour>
      <point x="325" y="413" type="curve"/>
      <point x="266" y="413"/>
      <point x="166" y="380"/>
      <point x="151" y="267" type="curve"/>
      <point x="135" y="267" type="line"/>
      <point x="150" y="388"/>
      <point x="239" y="465"/>
      <point x="326" y="465" type="curve"/>
      <point x="330" y="454"/>
      <point x="330" y="433"/>
    </contour>
    <contour>
      <point x="101" y="417" type="line"/>
      <point x="109" y="403" type="line"/>
      <point x="84" y="404"/>
      <point x="59" y="405"/>
      <point x="30" y="404" type="curve"/>
      <point x="30" y="411"/>
      <point x="31" y="417"/>
      <point x="33" y="423" type="curve"/>
      <point x="71" y="438"/>
      <point x="103" y="450"/>
      <point x="144" y="458" type="curve"/>
      <point x="149" y="426"/>
      <point x="151" y="387"/>
      <point x="151" y="344" type="curve"/>
      <point x="151" y="21" type="line"/>
      <point x="143" y="48" type="line"/>
      <point x="181" y="32"/>
      <point x="218" y="25"/>
      <point x="260" y="23" type="curve"/>
      <point x="260" y="15"/>
      <point x="259" y="6"/>
      <point x="257" y="0" type="curve"/>
      <point x="32" y="0" type="line"/>
      <point x="31" y="7"/>
      <point x="32" y="17"/>
      <point x="33" y="23" type="curve"/>
      <point x="85" y="29"/>
      <point x="101" y="39"/>
      <point x="101" y="70" type="curve"/>
    </contour>
  </outline>
</glyph>
<glyph name="v" format="1">
  <advance width="487"/>
  <unicode hex="0076"/>
  <outline>
    <contour>
      <point x="187" y="430" type="curve"/>
      <point x="159" y="428"/>
      <point x="133" y="424"/>
      <point x="107" y="409" type="curve"/>
      <point x="108" y="423" type="line"/>
      <point x="256" y="25" type="line"/>
      <point x="249" y="24" type="line"/>
      <point x="250" y="40"/>
      <point x="254" y="57"/>
      <point x="261" y="75" type="curve" smooth="yes"/>
      <point x="373" y="369" type="line" smooth="yes"/>
      <point x="386" y="404"/>
      <point x="386" y="425"/>
      <point x="306" y="430" type="curve"/>
      <point x="303" y="437"/>
      <point x="302" y="445"/>
      <point x="303" y="453" type="curve"/>
      <point x="494" y="453" type="line"/>
      <point x="495" y="446"/>
      <point x="493" y="438"/>
      <point x="491" y="430" type="curve"/>
      <point x="468" y="427"/>
      <point x="446" y="421"/>
      <point x="422" y="412" type="curve"/>
      <point x="436" y="432" type="line"/>
      <point x="264" y="-6" type="line"/>
      <point x="227" y="-6" type="line"/>
      <point x="71" y="377" type="line" smooth="yes"/>
      <point x="55" y="415"/>
      <point x="43" y="426"/>
      <point x="-4" y="430" type="curve"/>
      <point x="-5" y="437"/>
      <point x="-6" y="445"/>
      <point x="-5" y="453" type="curve"/>
      <point x="184" y="453" type="line"/>
      <point x="186" y="446"/>
      <point x="187" y="438"/>
    </contour>
  </outline>
</glyph>
<glyph name="w" format="1">
  <advance width="747"/>
  <unicode hex="0077"/>
  <outline>
    <contour>
      <point x="197" y="429" type="curve"/>
      <point x="140" y="423"/>
      <point x="125" y="405"/>
      <point x="134" y="378" type="curve" smooth="yes"/>
      <point x="222" y="125" type="line" smooth="yes"/>
      <point x="229" y="106"/>
      <point x="232" y="92"/>
      <point x="234" y="79" type="curve"/>
      <point x="236" y="79" type="line"/>
      <point x="371" y="434" type="line"/>
      <point x="391" y="434" type="line"/>
      <point x="498" y="125" type="line" smooth="yes"/>
      <point x="504" y="108"/>
      <point x="509" y="94"/>
      <point x="512" y="79" type="curve"/>
      <point x="514" y="79" type="line"/>
      <point x="621" y="364" type="line" smooth="yes"/>
      <point x="640" y="414"/>
      <point x="622" y="424"/>
      <point x="557" y="429" type="curve"/>
      <point x="555" y="436"/>
      <point x="554" y="444"/>
      <point x="555" y="453" type="curve"/>
      <point x="725" y="453" type="line"/>
      <point x="726" y="444"/>
      <point x="725" y="436"/>
      <point x="723" y="429" type="curve"/>
      <point x="694" y="423"/>
      <point x="678" y="417"/>
      <point x="652" y="402" type="curve"/>
      <point x="686" y="437" type="line"/>
      <point x="512" y="-6" type="line"/>
      <point x="492" y="-6" type="line"/>
      <point x="361" y="371" type="line"/>
      <point x="382" y="371" type="line"/>
      <point x="234" y="-6" type="line"/>
      <point x="214" y="-6" type="line"/>
      <point x="63" y="430" type="line"/>
      <point x="82" y="409" type="line"/>
      <point x="65" y="419"/>
      <point x="46" y="426"/>
      <point x="22" y="429" type="curve"/>
      <point x="21" y="436"/>
      <point x="20" y="444"/>
      <point x="21" y="453" type="curve"/>
      <point x="194" y="453" type="line"/>
      <point x="196" y="445"/>
      <point x="197" y="437"/>
    </contour>
  </outline>
</glyph>
<glyph name="y" format="1">
  <advance width="495"/>
  <unicode hex="0079"/>
  <outline>
    <contour>
      <point x="263" y="453" type="move" name="top"/>
    </contour>
    <contour>
      <point x="196" y="430" type="curve"/>
      <point x="167" y="428"/>
      <point x="140" y="421"/>
      <point x="115" y="409" type="curve"/>
      <point x="117" y="424" type="line"/>
      <point x="269" y="31" type="line"/>
      <point x="256" y="30" type="line"/>
      <point x="258" y="46"/>
      <point x="262" y="63"/>
      <point x="269" y="81" type="curve" smooth="yes"/>
      <point x="381" y="369" type="line" smooth="yes"/>
      <point x="397" y="408"/>
      <point x="386" y="426"/>
      <point x="314" y="430" type="curve"/>
      <point x="312" y="437"/>
      <point x="311" y="446"/>
      <point x="312" y="453" type="curve"/>
      <point x="490" y="453" type="line"/>
      <point x="491" y="446"/>
      <point x="490" y="438"/>
      <point x="487" y="430" type="curve"/>
      <point x="464" y="427"/>
      <point x="432" y="418"/>
      <point x="418" y="411" type="curve"/>
      <point x="450" y="439" type="line"/>
      <point x="228" y="-105" type="line" smooth="yes"/>
      <point x="194" y="-190"/>
      <point x="164" y="-221"/>
      <point x="111" y="-221" type="curve" smooth="yes"/>
      <point x="100" y="-221" type="line"/>
      <point x="93" y="-206"/>
      <point x="90" y="-186"/>
      <point x="93" y="-170" type="curve"/>
      <point x="109" y="-170" type="line" smooth="yes"/>
      <point x="143" y="-170"/>
      <point x="160" y="-160"/>
      <point x="184" y="-113" type="curve" smooth="yes"/>
      <point x="243" y="13" type="line"/>
      <point x="241" y="-21" type="line"/>
      <point x="81" y="377" type="line" smooth="yes"/>
      <point x="66" y="415"/>
      <point x="53" y="426"/>
      <point x="6" y="430" type="curve"/>
      <point x="5" y="437"/>
      <point x="4" y="445"/>
      <point x="5" y="453" type="curve"/>
      <point x="193" y="453" type="line"/>
      <point x="195" y="446"/>
      <point x="196" y="438"/>
    </contour>
  </outline>
</glyph>
<glyph name="sterling" format="1">
  <advance width="487"/>
  <unicode hex="00A3"/>
  <outline>
    <contour>
      <point x="397" y="570" type="curve"/>
      <point x="395" y="558"/>
      <point x="392" y="484"/>
      <point x="388" y="472" type="curve"/>
      <point x="372" y="472" type="line"/>
      <point x="364" y="530"/>
      <point x="330" y="583"/>
      <point x="260" y="583" type="curve" smooth="yes"/>
      <point x="190" y="583"/>
      <point x="142" y="535"/>
      <point x="142" y="441" type="curve" smooth="yes"/>
      <point x="142" y="368"/>
      <point x="174" y="301"/>
      <point x="174" y="215" type="curve" smooth="yes"/>
      <point x="174" y="141"/>
      <point x="151" y="76"/>
      <point x="107" y="31" type="curve"/>
      <point x="144" y="48"/>
      <point x="181" y="55"/>
      <point x="213" y="55" type="curve" smooth="yes"/>
      <point x="271" y="55"/>
      <point x="308" y="30"/>
      <point x="361" y="30" type="curve" smooth="yes"/>
      <point x="406" y="30"/>
      <point x="426" y="59"/>
      <point x="426" y="106" type="curve"/>
      <point x="432" y="107"/>
      <point x="440" y="105"/>
      <point x="445" y="103" type="curve"/>
      <point x="446" y="99"/>
      <point x="447" y="88"/>
      <point x="447" y="81" type="curve" smooth="yes"/>
      <point x="447" y="31"/>
      <point x="415" y="-12"/>
      <point x="353" y="-12" type="curve" smooth="yes"/>
      <point x="274" y="-12"/>
      <point x="262" y="13"/>
      <point x="202" y="13" type="curve" smooth="yes"/>
      <point x="155" y="13"/>
      <point x="89" y="2"/>
      <point x="60" y="-12" type="curve"/>
      <point x="53" y="-9"/>
      <point x="48" y="-2"/>
      <point x="45" y="7" type="curve"/>
      <point x="101" y="52"/>
      <point x="124" y="138"/>
      <point x="124" y="211" type="curve" smooth="yes"/>
      <point x="124" y="289"/>
      <point x="94" y="362"/>
      <point x="94" y="439" type="curve" smooth="yes"/>
      <point x="94" y="551"/>
      <point x="160" y="613"/>
      <point x="260" y="613" type="curve" smooth="yes"/>
      <point x="318" y="613"/>
      <point x="365" y="592"/>
    </contour>
    <contour>
      <point x="338" y="323" type="line"/>
      <point x="325" y="292" type="line"/>
      <point x="50" y="292" type="line"/>
      <point x="63" y="323" type="line"/>
    </contour>
  </outline>
</glyph>
<glyph name="currency" format="1">
  <advance width="432"/>
  <unicode hex="00A4"/>
  <outline>
    <contour>
      <point x="215" y="169" type="curve" smooth="yes"/>
      <point x="286" y="169"/>
      <point x="353" y="219"/>
      <point x="353" y="315" type="curve" smooth="yes"/>
      <point x="353" y="410"/>
      <point x="286" y="462"/>
      <point x="215" y="462" type="curve" smooth="yes"/>
      <point x="144" y="462"/>
      <point x="78" y="410"/>
      <point x="78" y="315" type="curve" smooth="yes"/>
      <point x="78" y="219"/>
      <point x="144" y="169"/>
    </contour>
    <contour>
      <point x="215" y="436" type="curve" smooth="yes"/>
      <point x="262" y="436"/>
      <point x="311" y="404"/>
      <point x="311" y="316" type="curve" smooth="yes"/>
      <point x="311" y="228"/>
      <point x="262" y="195"/>
      <point x="215" y="195" type="curve" smooth="yes"/>
      <point x="168" y="195"/>
      <point x="120" y="228"/>
      <point x="120" y="316" type="curve" smooth="yes"/>
      <point x="120" y="404"/>
      <point x="168" y="436"/>
    </contour>
    <contour>
      <point x="132" y="410" type="line"/>
      <point x="57" y="468" type="line"/>
      <point x="31" y="432" type="line"/>
      <point x="105" y="381" type="line"/>
    </contour>
    <contour>
      <point x="400" y="432" type="line"/>
      <point x="374" y="468" type="line"/>
      <point x="299" y="410" type="line"/>
      <point x="326" y="381" type="line"/>
    </contour>
    <contour>
      <point x="31" y="199" type="line"/>
      <point x="57" y="163" type="line"/>
      <point x="132" y="221" type="line"/>
      <point x="105" y="250" type="line"/>
    </contour>
    <contour>
      <point x="299" y="221" type="line"/>
      <point x="374" y="163" type="line"/>
      <point x="400" y="199" type="line"/>
      <point x="326" y="250" type="line"/>
    </contour>
  </outline>
</glyph>
<glyph name="dieresis" format="1">
  <advance width="213"/>
  <unicode hex="00A8"/>
  <outline>
    <contour>
      <point x="107" y="453" type="move" name="_top"/>
    </contour>
    <contour>
      <point x="83" y="555" type="curve" smooth="yes"/>
      <point x="83" y="534"/>
      <point x="67" y="518"/>
      <point x="46" y="518" type="curve" smooth="yes"/>
      <point x="25" y="518"/>
      <point x="10" y="534"/>
      <point x="10" y="555" type="curve" smooth="yes"/>
      <point x="10" y="576"/>
      <point x="25" y="592"/>
      <point x="46" y="592" type="curve" smooth="yes"/>
      <point x="67" y="592"/>
      <point x="83" y="576"/>
    </contour>
    <contour>
      <point x="203" y="555" type="curve" smooth="yes"/>
      <point x="203" y="534"/>
      <point x="187" y="518"/>
      <point x="166" y="518" type="curve" smooth="yes"/>
      <point x="145" y="518"/>
      <point x="130" y="534"/>
      <point x="130" y="555" type="curve" smooth="yes"/>
      <point x="130" y="576"/>
      <point x="145" y="592"/>
      <point x="166" y="592" type="curve" smooth="yes"/>
      <point x="187" y="592"/>
      <point x="203" y="576"/>
    </contour>
  </outline>
</glyph>
<glyph name="macron" format="1">
  <advance width="241"/>
  <unicode hex="00AF"/>
  <outline>
    <contour>
      <point x="121" y="453" type="move" name="_top"/>
    </contour>
    <contour>
      <point x="10" y="521" type="line"/>
      <point x="231" y="521" type="line"/>
      <point x="231" y="551" type="line"/>
      <point x="10" y="551" type="line"/>
    </contour>
  </outline>
</glyph>
<glyph name="threesuperior" format="1">
  <advance width="237"/>
  <unicode hex="00B3"/>
  <outline>
    <contour>
      <point x="201" y="530" type="curve" smooth="yes"/>
      <point x="201" y="487"/>
      <point x="160" y="451"/>
      <point x="116" y="444" type="curve"/>
      <point x="116" y="448" type="line"/>
      <point x="182" y="439"/>
      <point x="212" y="406"/>
      <point x="212" y="360" type="curve" smooth="yes"/>
      <point x="212" y="309"/>
      <point x="155" y="278"/>
      <point x="110" y="278" type="curve" smooth="yes"/>
      <point x="73" y="278"/>
      <point x="46" y="286"/>
      <point x="20" y="307" type="curve"/>
      <point x="21" y="315"/>
      <point x="25" y="324"/>
      <point x="29" y="330" type="curve"/>
      <point x="47" y="314"/>
      <point x="71" y="304"/>
      <point x="100" y="304" type="curve" smooth="yes"/>
      <point x="141" y="304"/>
      <point x="173" y="326"/>
      <point x="173" y="364" type="curve" smooth="yes"/>
      <point x="173" y="407"/>
      <point x="140" y="428"/>
      <point x="78" y="434" type="curve"/>
      <point x="78" y="457" type="line"/>
      <point x="124" y="457"/>
      <point x="161" y="488"/>
      <point x="161" y="524" type="curve" smooth="yes"/>
      <point x="161" y="560"/>
      <point x="136" y="577"/>
      <point x="108" y="577" type="curve" smooth="yes"/>
      <point x="77" y="577"/>
      <point x="53" y="561"/>
      <point x="44" y="529" type="curve"/>
      <point x="41" y="529"/>
      <point x="35" y="529"/>
      <point x="33" y="530" type="curve"/>
      <point x="33" y="547"/>
      <point x="34" y="567"/>
      <point x="35" y="583" type="curve"/>
      <point x="60" y="597"/>
      <point x="87" y="605"/>
      <point x="117" y="605" type="curve" smooth="yes"/>
      <point x="158" y="605"/>
      <point x="201" y="578"/>
    </contour>
  </outline>
</glyph>
<glyph name="cedilla" format="1">
  <advance width="245"/>
  <unicode hex="00B8"/>
  <outline>
    <contour>
      <point x="142" y="0" type="move" name="_bottom"/>
    </contour>
    <contour>
      <point x="162" y="10" type="line"/>
      <point x="143" y="-83" type="line"/>
      <point x="136" y="-72" type="line"/>
      <point x="156" y="-72" type="line" smooth="yes"/>
      <point x="209" y="-72"/>
      <point x="235" y="-99"/>
      <point x="235" y="-131" type="curve" smooth="yes"/>
      <point x="235" y="-172"/>
      <point x="196" y="-214"/>
      <point x="120" y="-214" type="curve" smooth="yes"/>
      <point x="73" y="-214"/>
      <point x="49" y="-205"/>
      <point x="10" y="-186" type="curve"/>
      <point x="23" y="-171" type="line"/>
      <point x="55" y="-185"/>
      <point x="82" y="-191"/>
      <point x="113" y="-191" type="curve" smooth="yes"/>
      <point x="162" y="-191"/>
      <point x="186" y="-171"/>
      <point x="186" y="-137" type="curve" smooth="yes"/>
      <point x="186" y="-110"/>
      <point x="165" y="-95"/>
      <point x="126" y="-95" type="curve" smooth="yes"/>
      <point x="116" y="-95"/>
      <point x="104" y="-96"/>
      <point x="91" y="-98" type="curve"/>
      <point x="113" y="10" type="line"/>
    </contour>
  </outline>
</glyph>
<glyph name="onehalf" format="1">
  <advance width="747"/>
  <unicode hex="00BD"/>
  <outline>
    <contour>
      <point x="168" y="242" type="line"/>
      <point x="149" y="266" type="line"/>
      <point x="173" y="253"/>
      <point x="191" y="245"/>
      <point x="224" y="244" type="curve"/>
      <point x="224" y="238"/>
      <point x="223" y="229"/>
      <point x="221" y="224" type="curve"/>
      <point x="68" y="224" type="line"/>
      <point x="67" y="230"/>
      <point x="68" y="239"/>
      <point x="71" y="244" type="curve"/>
      <point x="111" y="248"/>
      <point x="124" y="252"/>
      <point x="124" y="271" type="curve" smooth="yes"/>
      <point x="124" y="594" type="line"/>
      <point x="145" y="579" type="line"/>
      <point x="70" y="568" type="line"/>
      <point x="69" y="572"/>
      <point x="69" y="578"/>
      <point x="70" y="582" type="curve"/>
      <point x="96" y="596"/>
      <point x="126" y="612"/>
      <point x="156" y="625" type="curve"/>
      <point x="168" y="621" type="line"/>
    </contour>
    <contour>
      <point x="478" y="642" type="line"/>
      <point x="157" y="-38" type="line"/>
      <point x="187" y="-38" type="line"/>
      <point x="509" y="642" type="line"/>
    </contour>
    <contour>
      <point x="450" y="370" type="curve"/>
      <point x="446" y="351"/>
      <point x="444" y="320"/>
      <point x="444" y="300" type="curve"/>
      <point x="449" y="299"/>
      <point x="455" y="298"/>
      <point x="459" y="298" type="curve"/>
      <point x="472" y="342"/>
      <point x="508" y="361"/>
      <point x="543" y="361" type="curve" smooth="yes"/>
      <point x="583" y="361"/>
      <point x="612" y="331"/>
      <point x="612" y="286" type="curve" smooth="yes"/>
      <point x="612" y="236"/>
      <point x="589" y="200"/>
      <point x="430" y="34" type="curve"/>
      <point x="430" y="26"/>
      <point x="432" y="7"/>
      <point x="435" y="-1" type="curve"/>
      <point x="650" y="-1" type="line"/>
      <point x="655" y="27"/>
      <point x="657" y="74"/>
      <point x="657" y="102" type="curve"/>
      <point x="652" y="104"/>
      <point x="643" y="104"/>
      <point x="639" y="104" type="curve"/>
      <point x="632" y="57"/>
      <point x="619" y="39"/>
      <point x="572" y="39" type="curve" smooth="yes"/>
      <point x="449" y="39" type="line"/>
      <point x="458" y="31" type="line"/>
      <point x="619" y="185"/>
      <point x="660" y="223"/>
      <point x="660" y="291" type="curve" smooth="yes"/>
      <point x="660" y="359"/>
      <point x="606" y="401"/>
      <point x="544" y="401" type="curve" smooth="yes"/>
      <point x="512" y="401"/>
      <point x="477" y="390"/>
    </contour>
  </outline>
</glyph>
<glyph name="multiply" format="1">
  <advance width="521"/>
  <unicode hex="00D7"/>
  <outline>
    <contour>
      <point x="441" y="565" type="line"/>
      <point x="470" y="536" type="line"/>
      <point x="86" y="112" type="line"/>
      <point x="54" y="142" type="line"/>
    </contour>
    <contour>
      <point x="441" y="112" type="line"/>
      <point x="50" y="536" type="line"/>
      <point x="79" y="565" type="line"/>
      <point x="471" y="139" type="line"/>
    </contour>
  </outline>
</glyph>
<glyph name="Oslash" format="1">
  <advance width="645"/>
  <unicode hex="00D8"/>
  <outline>
    <contour>
      <point x="323" y="601" type="move" name="top"/>
    </contour>
    <contour>
      <point x="323" y="-13" type="curve" smooth="yes"/>
      <point x="156" y="-13"/>
      <point x="57" y="119"/>
      <point x="57" y="299" type="curve" smooth="yes"/>
      <point x="57" y="479"/>
      <point x="155" y="614"/>
      <point x="322" y="614" type="curve" smooth="yes"/>
      <point x="489" y="614"/>
      <point x="589" y="479"/>
      <point x="589" y="299" type="curve" smooth="yes"/>
      <point x="589" y="119"/>
      <point x="489" y="-13"/>
    </contour>
    <contour>
      <point x="536" y="300" type="curve" smooth="yes"/>
      <point x="524" y="488"/>
      <point x="430" y="580"/>
      <point x="304" y="580" type="curve" smooth="yes"/>
      <point x="177" y="580"/>
      <point x="100" y="459"/>
      <point x="110" y="299" type="curve" smooth="yes"/>
      <point x="121" y="101"/>
      <point x="214" y="21"/>
      <point x="341" y="21" type="curve" smooth="yes"/>
      <point x="468" y="21"/>
      <point x="546" y="129"/>
    </contour>
    <contour>
      <point x="100" y="-13" type="line"/>
      <point x="56" y="-13" type="line"/>
      <point x="558" y="613" type="line"/>
      <point x="603" y="613" type="line"/>
    </contour>
  </outline>
</glyph>
<glyph name="dotlessi" format="1">
  <advance width="260"/>
  <unicode hex="0131"/>
  <outline>
    <contour>
      <point x="126" y="453" type="move" name="top"/>
    </contour>
    <contour>
      <point x="252" y="10" type="move" name="ogonek"/>
    </contour>
    <contour>
      <point x="151" y="21" type="line"/>
      <point x="143" y="43" type="line"/>
      <point x="172" y="30"/>
      <point x="194" y="25"/>
      <point x="222" y="23" type="curve"/>
      <point x="222" y="15"/>
      <point x="221" y="6"/>
      <point x="219" y="0" type="curve"/>
      <point x="33" y="0" type="line"/>
      <point x="32" y="7"/>
      <point x="33" y="17"/>
      <point x="34" y="23" type="curve"/>
      <point x="85" y="28"/>
      <point x="101" y="38"/>
      <point x="101" y="69" type="curve" smooth="yes"/>
      <point x="101" y="415" type="line"/>
      <point x="109" y="401" type="line"/>
      <point x="84" y="402"/>
      <point x="59" y="403"/>
      <point x="30" y="402" type="curve"/>
      <point x="30" y="409"/>
      <point x="31" y="415"/>
      <point x="33" y="422" type="curve"/>
      <point x="71" y="438"/>
      <point x="110" y="450"/>
      <point x="151" y="459" type="curve"/>
    </contour>
  </outline>
</glyph>
<glyph name="Lslash" format="1">
  <advance width="478"/>
  <unicode hex="0141"/>
  <outline>
    <contour>
      <point x="248" y="325" type="curve"/>
      <point x="24" y="251" type="line"/>
      <point x="17" y="259"/>
      <point x="16" y="266"/>
      <point x="14" y="279" type="curve"/>
      <point x="238" y="356" type="line"/>
      <point x="245" y="347"/>
      <point x="246" y="336"/>
    </contour>
    <component base="L"/>
  </outline>
</glyph>
<glyph name="oe" format="1">
  <advance width="817"/>
  <unicode hex="0153"/>
  <outline>
    <contour>
      <point x="259" y="453" type="move" name="top"/>
    </contour>
    <contour>
      <point x="426" y="346" type="curve"/>
      <point x="467" y="428"/>
      <point x="546" y="465"/>
      <point x="605" y="465" type="curve" smooth="yes"/>
      <point x="701" y="465"/>
      <point x="770" y="397"/>
      <point x="770" y="275" type="curve"/>
      <point x="769" y="272"/>
      <point x="766" y="267"/>
      <point x="763" y="264" type="curve"/>
      <point x="445" y="264" type="line"/>
      <point x="445" y="290" type="line"/>
      <point x="583" y="299" type="line"/>
      <point x="715" y="299" type="line"/>
      <point x="714" y="397"/>
      <point x="657" y="434"/>
      <point x="597" y="434" type="curve" smooth="yes"/>
      <point x="534" y="434"/>
      <point x="451" y="379"/>
      <point x="451" y="235" type="curve" smooth="yes"/>
      <point x="451" y="110"/>
      <point x="506" y="31"/>
      <point x="608" y="31" type="curve" smooth="yes"/>
      <point x="662" y="31"/>
      <point x="711" y="48"/>
      <point x="760" y="83" type="curve"/>
      <point x="765" y="70" type="line"/>
      <point x="723" y="22"/>
      <point x="667" y="-12"/>
      <point x="593" y="-12" type="curve" smooth="yes"/>
      <point x="528" y="-12"/>
      <point x="458" y="24"/>
      <point x="422" y="101" type="curve"/>
      <point x="388" y="26"/>
      <point x="326" y="-12"/>
      <point x="249" y="-12" type="curve" smooth="yes"/>
      <point x="115" y="-12"/>
      <point x="47" y="90"/>
      <point x="47" y="226" type="curve" smooth="yes"/>
      <point x="47" y="364"/>
      <point x="126" y="465"/>
      <point x="249" y="465" type="curve" smooth="yes"/>
      <point x="330" y="465"/>
      <point x="393" y="426"/>
    </contour>
    <contour>
      <point x="100" y="226" type="curve" smooth="yes"/>
      <point x="103" y="105"/>
      <point x="153" y="22"/>
      <point x="253" y="22" type="curve" smooth="yes"/>
      <point x="353" y="22"/>
      <point x="399" y="105"/>
      <point x="397" y="226" type="curve" smooth="yes"/>
      <point x="395" y="348"/>
      <point x="345" y="435"/>
      <point x="245" y="435" type="curve" smooth="yes"/>
      <point x="145" y="435"/>
      <point x="99" y="348"/>
    </contour>
  </outline>
</glyph>
<glyph name="breve" format="1">
  <advance width="244"/>
  <unicode hex="02D8"/>
  <outline>
    <contour>
      <point x="122" y="453" type="move" name="_top"/>
    </contour>
    <contour>
      <point x="10" y="611" type="curve" smooth="yes"/>
      <point x="10" y="620"/>
      <point x="10" y="628"/>
      <point x="12" y="635" type="curve"/>
      <point x="31" y="635" type="line"/>
      <point x="31" y="579"/>
      <point x="66" y="558"/>
      <point x="122" y="558" type="curve" smooth="yes"/>
      <point x="177" y="558"/>
      <point x="212" y="579"/>
      <point x="212" y="635" type="curve"/>
      <point x="232" y="635" type="line"/>
      <point x="234" y="628"/>
      <point x="234" y="620"/>
      <point x="234" y="612" type="curve" smooth="yes"/>
      <point x="234" y="564"/>
      <point x="203" y="512"/>
      <point x="122" y="512" type="curve" smooth="yes"/>
      <point x="41" y="512"/>
      <point x="10" y="564"/>
    </contour>
  </outline>
</glyph>
<glyph name="dotaccent" format="1">
  <advance width="97"/>
  <unicode hex="02D9"/>
  <outline>
    <contour>
      <point x="49" y="453" type="move" name="_top"/>
    </contour>
    <contour>
      <point x="48" y="506" type="curve" smooth="yes"/>
      <point x="70" y="506"/>
      <point x="87" y="523"/>
      <point x="87" y="545" type="curve" smooth="yes"/>
      <point x="87" y="567"/>
      <point x="70" y="584"/>
      <point x="48" y="584" type="curve" smooth="yes"/>
      <point x="26" y="584"/>
      <point x="10" y="567"/>
      <point x="10" y="545" type="curve" smooth="yes"/>
      <point x="10" y="523"/>
      <point x="26" y="506"/>
    </contour>
  </outline>
</glyph>
<glyph name="ring" format="1">
  <advance width="172"/>
  <unicode hex="02DA"/>
  <outline>
    <contour>
      <point x="86" y="453" type="move" name="_top"/>
    </contour>
    <contour>
      <point x="163" y="559" type="curve" smooth="yes"/>
      <point x="163" y="599"/>
      <point x="127" y="624"/>
      <point x="86" y="624" type="curve" smooth="yes"/>
      <point x="45" y="624"/>
      <point x="9" y="599"/>
      <point x="9" y="559" type="curve" smooth="yes"/>
      <point x="9" y="518"/>
      <point x="45" y="493"/>
      <point x="86" y="493" type="curve" smooth="yes"/>
      <point x="127" y="493"/>
      <point x="163" y="518"/>
    </contour>
    <contour>
      <point x="47" y="559" type="curve" smooth="yes"/>
      <point x="47" y="590"/>
      <point x="66" y="603"/>
      <point x="86" y="603" type="curve" smooth="yes"/>
      <point x="107" y="603"/>
      <point x="125" y="590"/>
      <point x="125" y="559" type="curve" smooth="yes"/>
      <point x="125" y="527"/>
      <point x="106" y="514"/>
      <point x="86" y="514" type="curve" smooth="yes"/>
      <point x="66" y="514"/>
      <point x="47" y="527"/>
    </contour>
  </outline>
</glyph>
<glyph name="hungarumlaut" format="1">
  <advance width="251"/>
  <unicode hex="02DD"/>
  <outline>
    <contour>
      <point x="86" y="453" type="move" name="_top"/>
    </contour>
    <contour>
      <point x="241" y="631" type="curve"/>
      <point x="240" y="623" type="line"/>
      <point x="125" y="493" type="line"/>
      <point x="110" y="504" type="line"/>
      <point x="197" y="654" type="line"/>
      <point x="214" y="650"/>
      <point x="229" y="642"/>
    </contour>
    <contour>
      <point x="131" y="639" type="curve"/>
      <point x="131" y="631" type="line"/>
      <point x="26" y="493" type="line"/>
      <point x="10" y="503" type="line"/>
      <point x="85" y="659" type="line"/>
      <point x="103" y="655"/>
      <point x="119" y="649"/>
    </contour>
  </outline>
</glyph>
<glyph name="pi" format="1">
  <advance width="514"/>
  <unicode hex="03C0"/>
  <outline>
    <contour>
      <point x="157" y="416" type="line"/>
      <point x="138" y="140" type="line" smooth="yes"/>
      <point x="134" y="81"/>
      <point x="121" y="43"/>
      <point x="78" y="0" type="curve"/>
      <point x="68" y="3"/>
      <point x="57" y="9"/>
      <point x="51" y="17" type="curve"/>
      <point x="89" y="52"/>
      <point x="103" y="87"/>
      <point x="107" y="140" type="curve" smooth="yes"/>
      <point x="127" y="416" type="line"/>
    </contour>
    <contour>
      <point x="403" y="420" type="line"/>
      <point x="403" y="82" type="line" smooth="yes"/>
      <point x="403" y="52"/>
      <point x="415" y="46"/>
      <point x="437" y="46" type="curve" smooth="yes"/>
      <point x="450" y="46" type="line"/>
      <point x="450" y="32"/>
      <point x="446" y="12"/>
      <point x="439" y="0" type="curve"/>
      <point x="425" y="0" type="line" smooth="yes"/>
      <point x="380" y="0"/>
      <point x="355" y="25"/>
      <point x="355" y="72" type="curve" smooth="yes"/>
      <point x="355" y="420" type="line"/>
    </contour>
    <contour>
      <point x="400" y="453" type="line"/>
      <point x="447" y="453"/>
      <point x="461" y="465"/>
      <point x="467" y="494" type="curve"/>
      <point x="472" y="494"/>
      <point x="478" y="493"/>
      <point x="484" y="491" type="curve"/>
      <point x="484" y="459"/>
      <point x="480" y="431"/>
      <point x="473" y="408" type="curve"/>
      <point x="130" y="408" type="line" smooth="yes"/>
      <point x="83" y="408"/>
      <point x="69" y="396"/>
      <point x="63" y="367" type="curve"/>
      <point x="58" y="367"/>
      <point x="52" y="368"/>
      <point x="46" y="370" type="curve"/>
      <point x="46" y="402"/>
      <point x="50" y="430"/>
      <point x="57" y="453" type="curve"/>
    </contour>
  </outline>
</glyph>
<glyph name="dvCandrabindu" format="1">
  <advance width="0"/>
  <unicode hex="0901"/>
  <outline>
    <contour>
      <point x="-100" y="625" type="move" name="_abvm"/>
    </contour>
    <contour>
      <point x="-188" y="892" type="line"/>
      <point x="-142" y="845" type="line"/>
      <point x="-94" y="892" type="line"/>
      <point x="-142" y="938" type="line"/>
    </contour>
    <contour>
      <point x="-318" y="845" type="line"/>
      <point x="-280" y="792"/>
      <point x="-217" y="713"/>
      <point x="-126" y="713" type="curve" smooth="yes"/>
      <point x="-51" y="713"/>
      <point x="0" y="774"/>
      <point x="34" y="837" type="curve"/>
      <point x="-2" y="867" type="line"/>
      <point x="-34" y="808"/>
      <point x="-77" y="750"/>
      <point x="-148" y="750" type="curve" smooth="yes"/>
      <point x="-205" y="750"/>
      <point x="-261" y="814"/>
      <point x="-293" y="863" type="curve"/>
    </contour>
  </outline>
</glyph>
<glyph name="dvVisarga" format="1">
  <advance width="312"/>
  <unicode hex="0903"/>
  <outline>
    <contour>
      <point x="145" y="343" type="line"/>
      <point x="185" y="303" type="line"/>
      <point x="226" y="343" type="line"/>
      <point x="185" y="383" type="line"/>
    </contour>
    <contour>
      <point x="145" y="76" type="line"/>
      <point x="185" y="36" type="line"/>
      <point x="226" y="76" type="line"/>
      <point x="185" y="116" type="line"/>
    </contour>
  </outline>
</glyph>
<glyph name="dvvR" format="1">
  <advance width="872"/>
  <unicode hex="090B"/>
  <outline>
    <contour>
      <point x="865" y="625" type="line"/>
      <point x="-22" y="625" type="line"/>
      <point x="10" y="577" type="line"/>
      <point x="431" y="577" type="line"/>
      <point x="431" y="332" type="line"/>
      <point x="351" y="435"/>
      <point x="286" y="467"/>
      <point x="225" y="467" type="curve" smooth="yes"/>
      <point x="176" y="467"/>
      <point x="128" y="456"/>
      <point x="72" y="413" type="curve"/>
      <point x="106" y="371" type="line"/>
      <point x="151" y="403"/>
      <point x="194" y="424"/>
      <point x="252" y="424" type="curve" smooth="yes"/>
      <point x="325" y="424"/>
      <point x="379" y="350"/>
      <point x="407" y="312" type="curve"/>
      <point x="141" y="102" type="line"/>
      <point x="182" y="69" type="line"/>
      <point x="431" y="274" type="line"/>
      <point x="431" y="-9" type="line"/>
      <point x="487" y="-50" type="line"/>
      <point x="487" y="306" type="line"/>
      <point x="510" y="295"/>
      <point x="538" y="289"/>
      <point x="570" y="289" type="curve" smooth="yes"/>
      <point x="598" y="289"/>
      <point x="629" y="295"/>
      <point x="658" y="310" type="curve"/>
      <point x="696" y="243" type="line"/>
      <point x="590" y="158" type="line" smooth="yes"/>
      <point x="564" y="138"/>
      <point x="555" y="118"/>
      <point x="555" y="94" type="curve" smooth="yes"/>
      <point x="555" y="21"/>
      <point x="656" y="-24"/>
      <point x="722" y="-24" type="curve" smooth="yes"/>
      <point x="785" y="-24"/>
      <point x="837" y="42"/>
      <point x="851" y="79" type="curve"/>
      <point x="821" y="113" type="line"/>
      <point x="790" y="62"/>
      <point x="750" y="17"/>
      <point x="685" y="17" type="curve" smooth="yes"/>
      <point x="648" y="17"/>
      <point x="611" y="45"/>
      <point x="611" y="77" type="curve" smooth="yes"/>
      <point x="611" y="97"/>
      <point x="620" y="111"/>
      <point x="641" y="130" type="curve" smooth="yes"/>
      <point x="749" y="224" type="line"/>
      <point x="689" y="324" type="line"/>
      <point x="716" y="338"/>
      <point x="741" y="360"/>
      <point x="741" y="379" type="curve" smooth="yes"/>
      <point x="741" y="417"/>
      <point x="704" y="466"/>
      <point x="667" y="466" type="curve" smooth="yes"/>
      <point x="633" y="466"/>
      <point x="605" y="444"/>
      <point x="605" y="411" type="curve" smooth="yes"/>
      <point x="605" y="390"/>
      <point x="615" y="370"/>
      <point x="626" y="349" type="curve"/>
      <point x="601" y="337"/>
      <point x="567" y="327"/>
      <point x="535" y="327" type="curve" smooth="yes"/>
      <point x="518" y="327"/>
      <point x="501" y="329"/>
      <point x="487" y="336" type="curve"/>
      <point x="487" y="577" type="line"/>
      <point x="897" y="577" type="line"/>
    </contour>
  </outline>
</glyph>
<glyph name="dvOcandra" format="1">
  <advance width="1029"/>
  <unicode hex="0911"/>
  <outline>
    <contour>
      <point x="1064" y="625" type="line"/>
      <point x="546" y="625" type="line"/>
      <point x="557" y="609"/>
      <point x="566" y="597"/>
      <point x="578" y="577" type="curve"/>
      <point x="661" y="577" type="line"/>
      <point x="661" y="368" type="line"/>
      <point x="644" y="338"/>
      <point x="598" y="320"/>
      <point x="561" y="320" type="curve" smooth="yes"/>
      <point x="531" y="320"/>
      <point x="464" y="335"/>
      <point x="425" y="368" type="curve"/>
      <point x="463" y="398"/>
      <point x="486" y="428"/>
      <point x="486" y="467" type="curve" smooth="yes"/>
      <point x="486" y="544"/>
      <point x="423" y="635"/>
      <point x="334" y="635" type="curve" smooth="yes"/>
      <point x="279" y="635"/>
      <point x="220" y="609"/>
      <point x="176" y="562" type="curve"/>
      <point x="212" y="525" type="line"/>
      <point x="265" y="577"/>
      <point x="314" y="588"/>
      <point x="347" y="588" type="curve" smooth="yes"/>
      <point x="394" y="588"/>
      <point x="444" y="552"/>
      <point x="444" y="495" type="curve" smooth="yes"/>
      <point x="444" y="416"/>
      <point x="345" y="367"/>
      <point x="276" y="342" type="curve"/>
      <point x="303" y="298" type="line"/>
      <point x="332" y="309"/>
      <point x="366" y="325"/>
      <point x="397" y="346" type="curve"/>
      <point x="446" y="307"/>
      <point x="468" y="262"/>
      <point x="468" y="206" type="curve" smooth="yes"/>
      <point x="468" y="139"/>
      <point x="419" y="87"/>
      <point x="334" y="87" type="curve" smooth="yes"/>
      <point x="230" y="87"/>
      <point x="159" y="225"/>
      <point x="121" y="313" type="curve"/>
      <point x="92" y="298" type="line"/>
      <point x="128" y="208"/>
      <point x="211" y="41"/>
      <point x="354" y="41" type="curve" smooth="yes"/>
      <point x="460" y="41"/>
      <point x="511" y="112"/>
      <point x="511" y="188" type="curve" smooth="yes"/>
      <point x="511" y="242"/>
      <point x="495" y="275"/>
      <point x="474" y="305" type="curve"/>
      <point x="508" y="291"/>
      <point x="547" y="275"/>
      <point x="583" y="275" type="curve" smooth="yes"/>
      <point x="614" y="275"/>
      <point x="642" y="283"/>
      <point x="666" y="301" type="curve"/>
      <point x="661" y="-13" type="line"/>
      <point x="717" y="-50" type="line"/>
      <point x="717" y="577" type="line"/>
      <point x="858" y="577" type="line"/>
      <point x="858" y="-6" type="line"/>
      <point x="914" y="-50" type="line"/>
      <point x="914" y="577" type="line"/>
      <point x="1096" y="577" type="line"/>
    </contour>
    <contour>
      <point x="701" y="845" type="line"/>
      <point x="731" y="790"/>
      <point x="795" y="713"/>
      <point x="890" y="713" type="curve" smooth="yes"/>
      <point x="965" y="713"/>
      <point x="1019" y="774"/>
      <point x="1053" y="837" type="curve"/>
      <point x="1017" y="867" type="line"/>
      <point x="985" y="808"/>
      <point x="943" y="750"/>
      <point x="872" y="750" type="curve" smooth="yes"/>
      <point x="803" y="750"/>
      <point x="750" y="818"/>
      <point x="726" y="863" type="curve"/>
    </contour>
  </outline>
</glyph>
<glyph name="dvO" format="1">
  <advance width="1029"/>
  <unicode hex="0913"/>
  <outline>
    <contour>
      <point x="640" y="799" type="line"/>
      <point x="659" y="806"/>
      <point x="672" y="809"/>
      <point x="689" y="809" type="curve" smooth="yes"/>
      <point x="770" y="809"/>
      <point x="832" y="712"/>
      <point x="876" y="625" type="curve"/>
      <point x="546" y="625" type="line"/>
      <point x="557" y="609"/>
      <point x="566" y="597"/>
      <point x="578" y="577" type="curve"/>
      <point x="661" y="577" type="line"/>
      <point x="661" y="368" type="line"/>
      <point x="644" y="338"/>
      <point x="598" y="320"/>
      <point x="561" y="320" type="curve" smooth="yes"/>
      <point x="531" y="320"/>
      <point x="464" y="335"/>
      <point x="425" y="368" type="curve"/>
      <point x="463" y="398"/>
      <point x="486" y="428"/>
      <point x="486" y="467" type="curve" smooth="yes"/>
      <point x="486" y="544"/>
      <point x="423" y="635"/>
      <point x="334" y="635" type="curve" smooth="yes"/>
      <point x="279" y="635"/>
      <point x="220" y="609"/>
      <point x="176" y="562" type="curve"/>
      <point x="212" y="525" type="line"/>
      <point x="265" y="577"/>
      <point x="314" y="588"/>
      <point x="347" y="588" type="curve" smooth="yes"/>
      <point x="394" y="588"/>
      <point x="444" y="552"/>
      <point x="444" y="495" type="curve" smooth="yes"/>
      <point x="444" y="416"/>
      <point x="345" y="367"/>
      <point x="276" y="342" type="curve"/>
      <point x="303" y="298" type="line"/>
      <point x="332" y="309"/>
      <point x="366" y="325"/>
      <point x="397" y="346" type="curve"/>
      <point x="446" y="307"/>
      <point x="468" y="262"/>
      <point x="468" y="206" type="curve" smooth="yes"/>
      <point x="468" y="139"/>
      <point x="419" y="87"/>
      <point x="334" y="87" type="curve" smooth="yes"/>
      <point x="230" y="87"/>
      <point x="159" y="225"/>
      <point x="121" y="313" type="curve"/>
      <point x="92" y="298" type="line"/>
      <point x="128" y="208"/>
      <point x="211" y="41"/>
      <point x="354" y="41" type="curve" smooth="yes"/>
      <point x="460" y="41"/>
      <point x="511" y="112"/>
      <point x="511" y="188" type="curve" smooth="yes"/>
      <point x="511" y="242"/>
      <point x="495" y="275"/>
      <point x="474" y="305" type="curve"/>
      <point x="508" y="291"/>
      <point x="547" y="275"/>
      <point x="583" y="275" type="curve" smooth="yes"/>
      <point x="614" y="275"/>
      <point x="642" y="283"/>
      <point x="666" y="301" type="curve"/>
      <point x="661" y="-13" type="line"/>
      <point x="717" y="-50" type="line"/>
      <point x="717" y="577" type="line"/>
      <point x="860" y="577" type="line"/>
      <point x="860" y="-6" type="line"/>
      <point x="916" y="-50" type="line"/>
      <point x="916" y="577" type="line"/>
      <point x="1098" y="577" type="line"/>
      <point x="1066" y="625" type="line"/>
      <point x="913" y="625" type="line"/>
      <point x="871" y="714"/>
      <point x="802" y="860"/>
      <point x="668" y="860" type="curve" smooth="yes"/>
      <point x="654" y="860"/>
      <point x="626" y="854"/>
      <point x="613" y="845" type="curve"/>
    </contour>
  </outline>
</glyph>
<glyph name="dvCA" format="1">
  <advance width="683"/>
  <unicode hex="091A"/>
  <outline>
    <contour>
      <point x="527" y="-9" type="line"/>
      <point x="583" y="-50" type="line"/>
      <point x="583" y="577" type="line"/>
      <point x="735" y="577" type="line"/>
      <point x="703" y="625" type="line"/>
      <point x="-52" y="625" type="line"/>
      <point x="-20" y="577" type="line"/>
      <point x="527" y="577" type="line"/>
      <point x="527" y="259" type="line"/>
      <point x="478" y="180"/>
      <point x="410" y="123"/>
      <point x="324" y="123" type="curve" smooth="yes"/>
      <point x="256" y="123"/>
      <point x="195" y="178"/>
      <point x="195" y="242" type="curve" smooth="yes"/>
      <point x="195" y="321"/>
      <point x="261" y="363"/>
      <point x="336" y="375" type="curve"/>
      <point x="437" y="375" type="line"/>
      <point x="404" y="425" type="line"/>
      <point x="9" y="425" type="line"/>
      <point x="42" y="375" type="line"/>
      <point x="219" y="377" type="line"/>
      <point x="178" y="361"/>
      <point x="143" y="312"/>
      <point x="143" y="269" type="curve" smooth="yes"/>
      <point x="143" y="167"/>
      <point x="259" y="75"/>
      <point x="351" y="75" type="curve" smooth="yes"/>
      <point x="433" y="75"/>
      <point x="484" y="120"/>
      <point x="531" y="180" type="curve"/>
    </contour>
  </outline>
</glyph>
<glyph name="dvJHA" format="1">
  <advance width="749"/>
  <unicode hex="091D"/>
  <outline>
    <contour>
      <point x="649" y="-50" type="line"/>
      <point x="649" y="577" type="line"/>
      <point x="800" y="577" type="line"/>
      <point x="769" y="625" type="line"/>
      <point x="-53" y="625" type="line"/>
      <point x="-20" y="577" type="line"/>
      <point x="358" y="577" type="line"/>
      <point x="358" y="471" type="line"/>
      <point x="198" y="471" type="line" smooth="yes"/>
      <point x="126" y="471"/>
      <point x="69" y="424"/>
      <point x="69" y="360" type="curve" smooth="yes"/>
      <point x="69" y="272"/>
      <point x="147" y="197"/>
      <point x="205" y="197" type="curve" smooth="yes"/>
      <point x="256" y="197"/>
      <point x="313" y="234"/>
      <point x="354" y="234" type="curve" smooth="yes"/>
      <point x="392" y="234"/>
      <point x="423" y="206"/>
      <point x="423" y="166" type="curve" smooth="yes"/>
      <point x="423" y="76"/>
      <point x="294" y="33"/>
      <point x="212" y="39" type="curve"/>
      <point x="172" y="92"/>
      <point x="134" y="141"/>
      <point x="111" y="141" type="curve" smooth="yes"/>
      <point x="88" y="141"/>
      <point x="67" y="129"/>
      <point x="67" y="112" type="curve" smooth="yes"/>
      <point x="67" y="68"/>
      <point x="132" y="19"/>
      <point x="198" y="0" type="curve"/>
      <point x="359" y="-187" type="line"/>
      <point x="396" y="-161" type="line"/>
      <point x="246" y="-8" type="line"/>
      <point x="328" y="-8"/>
      <point x="465" y="47"/>
      <point x="465" y="148" type="curve" smooth="yes"/>
      <point x="465" y="173"/>
      <point x="452" y="205"/>
      <point x="430" y="231" type="curve"/>
      <point x="454" y="224"/>
      <point x="478" y="220"/>
      <point x="501" y="220" type="curve" smooth="yes"/>
      <point x="540" y="220"/>
      <point x="570" y="232"/>
      <point x="597" y="256" type="curve"/>
      <point x="594" y="-9" type="line"/>
    </contour>
    <contour>
      <point x="593" y="320" type="line"/>
      <point x="555" y="270"/>
      <point x="514" y="259"/>
      <point x="469" y="259" type="curve" smooth="yes"/>
      <point x="421" y="259"/>
      <point x="373" y="282"/>
      <point x="335" y="282" type="curve" smooth="yes"/>
      <point x="300" y="282"/>
      <point x="234" y="244"/>
      <point x="187" y="244" type="curve" smooth="yes"/>
      <point x="142" y="244"/>
      <point x="110" y="281"/>
      <point x="110" y="333" type="curve" smooth="yes"/>
      <point x="110" y="395"/>
      <point x="165" y="419"/>
      <point x="213" y="419" type="curve" smooth="yes"/>
      <point x="414" y="419" type="line"/>
      <point x="414" y="577" type="line"/>
      <point x="593" y="577" type="line"/>
    </contour>
  </outline>
</glyph>
<glyph name="dvBHA" format="1">
  <advance width="561"/>
  <unicode hex="092D"/>
  <outline>
    <contour>
      <point x="581" y="625" type="line"/>
      <point x="237" y="625" type="line"/>
      <point x="269" y="577" type="line"/>
      <point x="405" y="577" type="line"/>
      <point x="405" y="299" type="line"/>
      <point x="183" y="299" type="line"/>
      <point x="183" y="461" type="line" smooth="yes"/>
      <point x="183" y="509"/>
      <point x="167" y="537"/>
      <point x="135" y="568" type="curve" smooth="yes"/>
      <point x="110" y="591" type="line" smooth="yes"/>
      <point x="79" y="618"/>
      <point x="50" y="625"/>
      <point x="16" y="625" type="curve" smooth="yes"/>
      <point x="-52" y="625" type="line"/>
      <point x="-20" y="577" type="line"/>
      <point x="48" y="577" type="line" smooth="yes"/>
      <point x="101" y="577"/>
      <point x="127" y="537"/>
      <point x="127" y="486" type="curve" smooth="yes"/>
      <point x="127" y="299" type="line"/>
      <point x="69" y="299"/>
      <point x="58" y="289"/>
      <point x="58" y="264" type="curve" smooth="yes"/>
      <point x="58" y="217"/>
      <point x="124" y="149"/>
      <point x="163" y="149" type="curve" smooth="yes"/>
      <point x="175" y="149"/>
      <point x="183" y="157"/>
      <point x="183" y="171" type="curve" smooth="yes"/>
      <point x="183" y="247" type="line"/>
      <point x="405" y="247" type="line"/>
      <point x="405" y="-6" type="line"/>
      <point x="461" y="-50" type="line"/>
      <point x="461" y="577" type="line"/>
      <point x="613" y="577" type="line"/>
    </contour>
  </outline>
</glyph>
<glyph name="dvSHA" format="1">
  <advance width="698"/>
  <unicode hex="0936"/>
  <outline>
    <contour>
      <point x="185" y="211" type="curve"/>
      <point x="319" y="194"/>
      <point x="419" y="288"/>
      <point x="419" y="423" type="curve" smooth="yes"/>
      <point x="419" y="518"/>
      <point x="349" y="630"/>
      <point x="246" y="630" type="curve" smooth="yes"/>
      <point x="174" y="630"/>
      <point x="123" y="573"/>
      <point x="123" y="504" type="curve" smooth="yes"/>
      <point x="123" y="435"/>
      <point x="184" y="379"/>
      <point x="242" y="355" type="curve"/>
      <point x="258" y="384" type="line"/>
      <point x="206" y="400"/>
      <point x="171" y="436"/>
      <point x="171" y="486" type="curve" smooth="yes"/>
      <point x="171" y="547"/>
      <point x="217" y="585"/>
      <point x="265" y="585" type="curve" smooth="yes"/>
      <point x="335" y="585"/>
      <point x="373" y="518"/>
      <point x="373" y="440" type="curve" smooth="yes"/>
      <point x="373" y="326"/>
      <point x="301" y="259"/>
      <point x="203" y="259" type="curve" smooth="yes"/>
      <point x="159" y="259"/>
      <point x="119" y="280"/>
      <point x="91" y="307" type="curve"/>
      <point x="71" y="289" type="line"/>
      <point x="96" y="256"/>
      <point x="204" y="118"/>
      <point x="351" y="-50" type="curve"/>
      <point x="392" y="-21" type="line"/>
      <point x="329" y="44"/>
      <point x="214" y="169"/>
    </contour>
    <contour>
      <point x="718" y="625" type="line"/>
      <point x="432" y="625" type="line"/>
      <point x="464" y="577" type="line"/>
      <point x="542" y="577" type="line"/>
      <point x="542" y="-9" type="line"/>
      <point x="598" y="-50" type="line"/>
      <point x="598" y="577" type="line"/>
      <point x="751" y="577" type="line"/>
    </contour>
  </outline>
</glyph>
<glyph name="dvSA" format="1">
  <advance width="650"/>
  <unicode hex="0938"/>
  <outline>
    <contour>
      <point x="401" y="227" type="curve"/>
      <point x="430" y="227"/>
      <point x="468" y="238"/>
      <point x="496" y="261" type="curve"/>
      <point x="496" y="-6" type="line"/>
      <point x="550" y="-50" type="line"/>
      <point x="550" y="577" type="line"/>
      <point x="702" y="577" type="line"/>
      <point x="670" y="625" type="line"/>
      <point x="-52" y="625" type="line"/>
      <point x="-20" y="577" type="line"/>
      <point x="182" y="577" type="line"/>
      <point x="182" y="338" type="line" smooth="yes"/>
      <point x="182" y="292"/>
      <point x="162" y="277"/>
      <point x="129" y="277" type="curve" smooth="yes"/>
      <point x="105" y="277"/>
      <point x="84" y="291"/>
      <point x="62" y="312" type="curve"/>
      <point x="35" y="287" type="line"/>
      <point x="109" y="176"/>
      <point x="195" y="74"/>
      <point x="297" y="-50" type="curve"/>
      <point x="340" y="-22" type="line"/>
      <point x="260" y="65"/>
      <point x="174" y="164"/>
      <point x="137" y="220" type="curve"/>
      <point x="201" y="224"/>
      <point x="228" y="258"/>
      <point x="234" y="293" type="curve"/>
      <point x="283" y="254"/>
      <point x="346" y="227"/>
    </contour>
    <contour>
      <point x="236" y="577" type="line"/>
      <point x="496" y="577" type="line"/>
      <point x="496" y="330" type="line"/>
      <point x="466" y="296"/>
      <point x="418" y="280"/>
      <point x="369" y="280" type="curve" smooth="yes"/>
      <point x="325" y="280"/>
      <point x="272" y="307"/>
      <point x="236" y="337" type="curve"/>
    </contour>
  </outline>
</glyph>
<glyph name="dvNukta" format="1">
  <advance width="0"/>
  <unicode hex="093C"/>
  <outline>
    <contour>
      <point x="-458" y="-57" type="line"/>
      <point x="-412" y="-104" type="line"/>
      <point x="-364" y="-57" type="line"/>
      <point x="-412" y="-11" type="line"/>
    </contour>
  </outline>
</glyph>
<glyph name="dvAvagraha" format="1">
  <advance width="608"/>
  <unicode hex="093D"/>
  <outline>
    <contour>
      <point x="263" y="412" type="line"/>
      <point x="217" y="453"/>
      <point x="194" y="492"/>
      <point x="194" y="520" type="curve" smooth="yes"/>
      <point x="194" y="556"/>
      <point x="218" y="577"/>
      <point x="256" y="577" type="curve" smooth="yes"/>
      <point x="509" y="577" type="line"/>
      <point x="457" y="624" type="line"/>
      <point x="234" y="624" type="line" smooth="yes"/>
      <point x="161" y="624"/>
      <point x="133" y="592"/>
      <point x="133" y="550" type="curve" smooth="yes"/>
      <point x="133" y="506"/>
      <point x="164" y="451"/>
      <point x="206" y="410" type="curve" smooth="yes"/>
      <point x="358" y="262" type="line" smooth="yes"/>
      <point x="395" y="226"/>
      <point x="430" y="176"/>
      <point x="430" y="128" type="curve" smooth="yes"/>
      <point x="430" y="70"/>
      <point x="400" y="18"/>
      <point x="294" y="18" type="curve" smooth="yes"/>
      <point x="201" y="18"/>
      <point x="108" y="116"/>
      <point x="79" y="160" type="curve"/>
      <point x="53" y="136" type="line"/>
      <point x="85" y="87"/>
      <point x="187" y="-28"/>
      <point x="316" y="-28" type="curve" smooth="yes"/>
      <point x="429" y="-28"/>
      <point x="480" y="49"/>
      <point x="480" y="121" type="curve" smooth="yes"/>
      <point x="480" y="174"/>
      <point x="438" y="248"/>
      <point x="372" y="310" type="curve" smooth="yes"/>
    </contour>
  </outline>
</glyph>
<glyph name="dvmEcandra" format="1">
  <advance width="0"/>
  <unicode hex="0945"/>
  <outline>
    <contour>
      <point x="-100" y="625" type="move" name="_abvm"/>
    </contour>
    <contour>
      <point x="-325" y="845" type="line"/>
      <point x="-295" y="790"/>
      <point x="-231" y="713"/>
      <point x="-136" y="713" type="curve" smooth="yes"/>
      <point x="-61" y="713"/>
      <point x="-7" y="774"/>
      <point x="27" y="837" type="curve"/>
      <point x="-9" y="867" type="line"/>
      <point x="-41" y="808"/>
      <point x="-83" y="750"/>
      <point x="-154" y="750" type="curve" smooth="yes"/>
      <point x="-223" y="750"/>
      <point x="-276" y="818"/>
      <point x="-300" y="863" type="curve"/>
    </contour>
  </outline>
</glyph>
<glyph name="dvmAU" format="1">
  <advance width="256"/>
  <unicode hex="094C"/>
  <outline>
    <contour>
      <point x="156" y="577" type="line"/>
      <point x="308" y="577" type="line"/>
      <point x="276" y="625" type="line"/>
      <point x="151" y="625" type="line"/>
      <point x="124" y="703"/>
      <point x="57" y="919"/>
      <point x="-79" y="919" type="curve" smooth="yes"/>
      <point x="-93" y="919"/>
      <point x="-117" y="915"/>
      <point x="-133" y="908" type="curve"/>
      <point x="-110" y="861" type="line"/>
      <point x="-95" y="867"/>
      <point x="-79" y="868"/>
      <point x="-66" y="868" type="curve" smooth="yes"/>
      <point x="28" y="868"/>
      <point x="91" y="702"/>
      <point x="121" y="625" type="curve"/>
      <point x="75" y="709"/>
      <point x="-28" y="781"/>
      <point x="-116" y="781" type="curve" smooth="yes"/>
      <point x="-142" y="781"/>
      <point x="-168" y="775"/>
      <point x="-192" y="762" type="curve"/>
      <point x="-159" y="720" type="line"/>
      <point x="-139" y="729"/>
      <point x="-120" y="734"/>
      <point x="-100" y="734" type="curve" smooth="yes"/>
      <point x="-28" y="734"/>
      <point x="41" y="688"/>
      <point x="86" y="625" type="curve"/>
      <point x="-52" y="625" type="line"/>
      <point x="-20" y="577" type="line"/>
      <point x="100" y="577" type="line"/>
      <point x="100" y="-6" type="line"/>
      <point x="156" y="-50" type="line"/>
    </contour>
  </outline>
</glyph>
<glyph name="dvvLL" format="1">
  <advance width="720"/>
  <unicode hex="0961"/>
  <outline>
    <contour>
      <point x="667" y="-146" type="line"/>
      <point x="623" y="-114" type="line"/>
      <point x="588" y="-128" type="line"/>
      <point x="571" y="-133"/>
      <point x="554" y="-137"/>
      <point x="537" y="-137" type="curve" smooth="yes"/>
      <point x="503" y="-137"/>
      <point x="459" y="-121"/>
      <point x="459" y="-76" type="curve" smooth="yes"/>
      <point x="459" y="-17"/>
      <point x="561" y="19"/>
      <point x="620" y="30" type="curve"/>
      <point x="620" y="577" type="line"/>
      <point x="774" y="577" type="line"/>
      <point x="742" y="625" type="line"/>
      <point x="-52" y="625" type="line"/>
      <point x="-20" y="577" type="line"/>
      <point x="564" y="577" type="line"/>
      <point x="564" y="387" type="line"/>
      <point x="537" y="404"/>
      <point x="498" y="415"/>
      <point x="462" y="415" type="curve" smooth="yes"/>
      <point x="416" y="415"/>
      <point x="376" y="392"/>
      <point x="354" y="360" type="curve"/>
      <point x="330" y="388"/>
      <point x="281" y="418"/>
      <point x="228" y="418" type="curve" smooth="yes"/>
      <point x="141" y="418"/>
      <point x="69" y="350"/>
      <point x="69" y="260" type="curve" smooth="yes"/>
      <point x="69" y="140"/>
      <point x="167" y="28"/>
      <point x="258" y="-50" type="curve"/>
      <point x="288" y="-29" type="line"/>
      <point x="204" y="43"/>
      <point x="119" y="133"/>
      <point x="119" y="234" type="curve" smooth="yes"/>
      <point x="119" y="318"/>
      <point x="170" y="370"/>
      <point x="245" y="370" type="curve" smooth="yes"/>
      <point x="283" y="370"/>
      <point x="314" y="353"/>
      <point x="337" y="330" type="curve"/>
      <point x="325" y="303"/>
      <point x="322" y="274"/>
      <point x="322" y="244" type="curve" smooth="yes"/>
      <point x="322" y="210"/>
      <point x="328" y="177"/>
      <point x="338" y="148" type="curve"/>
      <point x="386" y="135" type="line"/>
      <point x="381" y="164"/>
      <point x="376" y="198"/>
      <point x="376" y="231" type="curve" smooth="yes"/>
      <point x="376" y="301"/>
      <point x="402" y="367"/>
      <point x="489" y="367" type="curve" smooth="yes"/>
      <point x="515" y="367"/>
      <point x="544" y="361"/>
      <point x="564" y="354" type="curve"/>
      <point x="564" y="74" type="line"/>
      <point x="550" y="65"/>
      <point x="416" y="22"/>
      <point x="416" y="-52" type="curve" smooth="yes"/>
      <point x="416" y="-114"/>
      <point x="456" y="-154"/>
      <point x="507" y="-170" type="curve"/>
      <point x="484" y="-187"/>
      <point x="467" y="-208"/>
      <point x="467" y="-234" type="curve" smooth="yes"/>
      <point x="467" y="-315"/>
      <point x="539" y="-362"/>
      <point x="611" y="-362" type="curve" smooth="yes"/>
      <point x="665" y="-362"/>
      <point x="738" y="-321"/>
      <point x="766" y="-292" type="curve"/>
      <point x="728" y="-259" type="line"/>
      <point x="687" y="-293"/>
      <point x="641" y="-319"/>
      <point x="588" y="-319" type="curve" smooth="yes"/>
      <point x="554" y="-319"/>
      <point x="510" y="-303"/>
      <point x="510" y="-258" type="curve" smooth="yes"/>
      <point x="510" y="-199"/>
      <point x="627" y="-164"/>
      <point x="667" y="-149" type="curve"/>
    </contour>
  </outline>
</glyph>
<glyph name="dvZero" format="1">
  <advance width="658"/>
  <unicode hex="0966"/>
  <outline>
    <contour>
      <point x="522" y="270" type="curve" smooth="yes"/>
      <point x="522" y="60"/>
      <point x="424" y="-50"/>
      <point x="332" y="-50" type="curve" smooth="yes"/>
      <point x="254" y="-50"/>
      <point x="121" y="12"/>
      <point x="121" y="300" type="curve" smooth="yes"/>
      <point x="121" y="552"/>
      <point x="238" y="614"/>
      <point x="311" y="614" type="curve" smooth="yes"/>
      <point x="418" y="614"/>
      <point x="522" y="532"/>
    </contour>
    <contour>
      <point x="324" y="567" type="curve" smooth="yes"/>
      <point x="237" y="567"/>
      <point x="163" y="496"/>
      <point x="163" y="265" type="curve" smooth="yes"/>
      <point x="163" y="140"/>
      <point x="222" y="-14"/>
      <point x="320" y="-14" type="curve" smooth="yes"/>
      <point x="404" y="-14"/>
      <point x="482" y="92"/>
      <point x="482" y="295" type="curve" smooth="yes"/>
      <point x="482" y="457"/>
      <point x="425" y="567"/>
    </contour>
  </outline>
</glyph>
<glyph name="dvFour" format="1">
  <advance width="621"/>
  <unicode hex="096A"/>
  <outline>
    <contour>
      <point x="287" y="348" type="line"/>
      <point x="59" y="622" type="line"/>
      <point x="30" y="601" type="line"/>
      <point x="263" y="321" type="line"/>
      <point x="183" y="229" type="line" smooth="yes"/>
      <point x="151" y="193"/>
      <point x="134" y="171"/>
      <point x="134" y="131" type="curve" smooth="yes"/>
      <point x="134" y="47"/>
      <point x="228" y="-44"/>
      <point x="320" y="-44" type="curve" smooth="yes"/>
      <point x="420" y="-44"/>
      <point x="458" y="25"/>
      <point x="458" y="81" type="curve"/>
      <point x="458" y="125"/>
      <point x="439" y="178"/>
      <point x="391" y="237" type="curve" smooth="yes"/>
      <point x="328" y="315" type="line"/>
      <point x="543" y="592" type="line"/>
      <point x="504" y="622" type="line"/>
    </contour>
    <contour>
      <point x="216" y="182" type="curve"/>
      <point x="304" y="287" type="line"/>
      <point x="310" y="281" type="line" smooth="yes"/>
      <point x="351" y="240"/>
      <point x="408" y="178"/>
      <point x="408" y="101" type="curve" smooth="yes"/>
      <point x="408" y="34"/>
      <point x="365" y="0"/>
      <point x="300" y="0" type="curve" smooth="yes"/>
      <point x="200" y="0"/>
      <point x="152" y="108"/>
    </contour>
  </outline>
</glyph>
<glyph name="dvSix" format="1">
  <advance width="598"/>
  <unicode hex="096C"/>
  <outline>
    <contour>
      <point x="429" y="298" type="line"/>
      <point x="410" y="340" type="line"/>
      <point x="330" y="357"/>
      <point x="269" y="350"/>
      <point x="214" y="333" type="curve"/>
      <point x="182" y="356"/>
      <point x="145" y="397"/>
      <point x="145" y="459" type="curve" smooth="yes"/>
      <point x="145" y="551"/>
      <point x="247" y="609"/>
      <point x="414" y="547" type="curve"/>
      <point x="417" y="550" type="line"/>
      <point x="403" y="598" type="line"/>
      <point x="231" y="661"/>
      <point x="94" y="597"/>
      <point x="94" y="481" type="curve" smooth="yes"/>
      <point x="94" y="400"/>
      <point x="143" y="346"/>
      <point x="182" y="316" type="curve"/>
      <point x="144" y="288"/>
      <point x="112" y="243"/>
      <point x="112" y="188" type="curve" smooth="yes"/>
      <point x="112" y="81"/>
      <point x="229" y="-36"/>
      <point x="351" y="-36" type="curve" smooth="yes"/>
      <point x="378" y="-36"/>
      <point x="406" y="-30"/>
      <point x="433" y="-14" type="curve"/>
      <point x="527" y="-183" type="line"/>
      <point x="568" y="-155" type="line"/>
      <point x="467" y="3" type="line"/>
      <point x="492" y="25"/>
      <point x="514" y="46"/>
      <point x="514" y="72" type="curve" smooth="yes"/>
      <point x="514" y="112"/>
      <point x="476" y="164"/>
      <point x="433" y="164" type="curve" smooth="yes"/>
      <point x="399" y="164"/>
      <point x="378" y="139"/>
      <point x="378" y="106" type="curve" smooth="yes"/>
      <point x="378" y="87"/>
      <point x="391" y="54"/>
      <point x="403" y="32" type="curve"/>
      <point x="388" y="19"/>
      <point x="358" y="9"/>
      <point x="322" y="9" type="curve" smooth="yes"/>
      <point x="235" y="9"/>
      <point x="164" y="91"/>
      <point x="164" y="161" type="curve" smooth="yes"/>
      <point x="164" y="265"/>
      <point x="247" y="326"/>
      <point x="426" y="294" type="curve"/>
    </contour>
  </outline>
</glyph>
<glyph name="dvSeven" format="1">
  <advance width="800"/>
  <unicode hex="096D"/>
  <outline>
    <contour>
      <point x="579" y="215" type="line"/>
      <point x="512" y="213"/>
      <point x="397" y="255"/>
      <point x="397" y="354" type="curve" smooth="yes"/>
      <point x="397" y="431"/>
      <point x="448" y="480"/>
      <point x="518" y="480" type="curve" smooth="yes"/>
      <point x="627" y="480"/>
      <point x="677" y="380"/>
      <point x="677" y="290" type="curve" smooth="yes"/>
      <point x="677" y="178"/>
      <point x="617" y="34"/>
      <point x="452" y="34" type="curve" smooth="yes"/>
      <point x="229" y="34"/>
      <point x="121" y="340"/>
      <point x="97" y="622" type="curve"/>
      <point x="63" y="606" type="line"/>
      <point x="86" y="347"/>
      <point x="192" y="-16"/>
      <point x="484" y="-16" type="curve" smooth="yes"/>
      <point x="636" y="-16"/>
      <point x="726" y="146"/>
      <point x="726" y="261" type="curve" smooth="yes"/>
      <point x="726" y="395"/>
      <point x="625" y="530"/>
      <point x="496" y="530" type="curve" smooth="yes"/>
      <point x="430" y="530"/>
      <point x="348" y="472"/>
      <point x="348" y="381" type="curve" smooth="yes"/>
      <point x="348" y="265"/>
      <point x="442" y="193"/>
      <point x="561" y="185" type="curve"/>
      <point x="580" y="214" type="line"/>
    </contour>
  </outline>
</glyph>
<glyph name="dvNine" format="1">
  <advance width="483"/>
  <unicode hex="096F"/>
  <outline>
    <contour>
      <point x="329" y="-21" type="line"/>
      <point x="346" y="-47"/>
      <point x="376" y="-80"/>
      <point x="376" y="-109" type="curve" smooth="yes"/>
      <point x="376" y="-134"/>
      <point x="350" y="-159"/>
      <point x="316" y="-178" type="curve"/>
      <point x="354" y="-207" type="line"/>
      <point x="387" y="-190"/>
      <point x="421" y="-160"/>
      <point x="421" y="-123" type="curve" smooth="yes"/>
      <point x="421" y="-104"/>
      <point x="413" y="-81"/>
      <point x="400" y="-62" type="curve" smooth="yes"/>
      <point x="208" y="214" type="line"/>
      <point x="317" y="239"/>
      <point x="436" y="309"/>
      <point x="436" y="426" type="curve" smooth="yes"/>
      <point x="436" y="508"/>
      <point x="343" y="612"/>
      <point x="230" y="612" type="curve" smooth="yes"/>
      <point x="138" y="612"/>
      <point x="52" y="540"/>
      <point x="52" y="434" type="curve" smooth="yes"/>
      <point x="52" y="386"/>
      <point x="68" y="340"/>
      <point x="104" y="290" type="curve"/>
    </contour>
    <contour>
      <point x="178" y="258" type="curve"/>
      <point x="127" y="309"/>
      <point x="101" y="364"/>
      <point x="101" y="415" type="curve" smooth="yes"/>
      <point x="101" y="494"/>
      <point x="163" y="561"/>
      <point x="258" y="561" type="curve" smooth="yes"/>
      <point x="331" y="561"/>
      <point x="388" y="511"/>
      <point x="388" y="442" type="curve" smooth="yes"/>
      <point x="388" y="332"/>
      <point x="274" y="279"/>
    </contour>
  </outline>
</glyph>
<glyph name="zerowidthnonjoiner" format="1">
  <advance width="0"/>
  <unicode hex="200C"/>
  <outline>
    <contour>
      <point x="24" y="-280" type="line"/>
      <point x="24" y="761" type="line"/>
      <point x="-23" y="761" type="line"/>
      <point x="-23" y="-280" type="line"/>
    </contour>
  </outline>
</glyph>
<glyph name="guilsinglleft" format="1">
  <advance width="349"/>
  <unicode hex="2039"/>
  <outline>
    <contour>
      <point x="77" y="331" type="line"/>
      <point x="232" y="155" type="line"/>
      <point x="259" y="170" type="line"/>
      <point x="132" y="331" type="line"/>
      <point x="259" y="492" type="line"/>
      <point x="232" y="506" type="line"/>
    </contour>
  </outline>
</glyph>
<glyph name="indianrupee" format="1">
  <advance width="509"/>
  <unicode hex="20A8"/>
  <outline>
    <contour>
      <point x="467" y="625" type="line"/>
      <point x="69" y="625" type="line"/>
      <point x="69" y="577" type="line"/>
      <point x="291" y="577" type="line"/>
      <point x="291" y="441" type="line"/>
      <point x="70" y="441" type="line"/>
      <point x="70" y="387" type="line"/>
      <point x="291" y="387" type="line"/>
      <point x="291" y="337" type="line" smooth="yes"/>
      <point x="291" y="273"/>
      <point x="241" y="240"/>
      <point x="189" y="240" type="curve" smooth="yes"/>
      <point x="160" y="240"/>
      <point x="130" y="250"/>
      <point x="108" y="272" type="curve"/>
      <point x="69" y="237" type="line"/>
      <point x="143" y="125"/>
      <point x="236" y="13"/>
      <point x="337" y="-109" type="curve"/>
      <point x="377" y="-87" type="line"/>
      <point x="296" y="4"/>
      <point x="174" y="150"/>
      <point x="146" y="192" type="curve"/>
      <point x="157" y="190"/>
      <point x="169" y="189"/>
      <point x="180" y="189" type="curve" smooth="yes"/>
      <point x="264" y="189"/>
      <point x="348" y="237"/>
      <point x="348" y="321" type="curve" smooth="yes"/>
      <point x="348" y="387" type="line"/>
      <point x="496" y="387" type="line"/>
      <point x="467" y="441" type="line"/>
      <point x="348" y="441" type="line"/>
      <point x="348" y="577" type="line"/>
      <point x="496" y="577" type="line"/>
    </contour>
  </outline>
</glyph>
<glyph name="litre" format="1">
  <advance width="345"/>
  <unicode hex="2113"/>
  <outline>
    <contour>
      <point x="180" y="665" type="curve" smooth="yes"/>
      <point x="150" y="665"/>
      <point x="133" y="644"/>
      <point x="133" y="589" type="curve" smooth="yes"/>
      <point x="133" y="95" type="line" smooth="yes"/>
      <point x="133" y="37"/>
      <point x="166" y="23"/>
      <point x="196" y="23" type="curve" smooth="yes"/>
      <point x="226" y="23"/>
      <point x="259" y="47"/>
      <point x="259" y="100" type="curve"/>
      <point x="271" y="102"/>
      <point x="284" y="100"/>
      <point x="295" y="94" type="curve"/>
      <point x="295" y="32"/>
      <point x="240" y="-12"/>
      <point x="190" y="-12" type="curve" smooth="yes"/>
      <point x="140" y="-12"/>
      <point x="85" y="13"/>
      <point x="85" y="95" type="curve" smooth="yes"/>
      <point x="85" y="589" type="line" smooth="yes"/>
      <point x="85" y="665"/>
      <point x="123" y="700"/>
      <point x="174" y="700" type="curve" smooth="yes"/>
      <point x="228" y="700"/>
      <point x="279" y="654"/>
      <point x="279" y="534" type="curve" smooth="yes"/>
      <point x="279" y="406"/>
      <point x="224" y="245"/>
      <point x="26" y="236" type="curve"/>
      <point x="21" y="244"/>
      <point x="19" y="254"/>
      <point x="20" y="264" type="curve"/>
      <point x="216" y="273"/>
      <point x="249" y="428"/>
      <point x="249" y="534" type="curve" smooth="yes"/>
      <point x="249" y="635"/>
      <point x="210" y="665"/>
    </contour>
  </outline>
</glyph>
<glyph name="estimated" format="1">
  <advance width="785"/>
  <unicode hex="212E"/>
  <outline>
    <contour>
      <point x="660" y="115" type="curve"/>
      <point x="639" y="140" type="line"/>
      <point x="566" y="68"/>
      <point x="489" y="19"/>
      <point x="399" y="19" type="curve" smooth="yes"/>
      <point x="308" y="19"/>
      <point x="231" y="58"/>
      <point x="185" y="117" type="curve"/>
      <point x="185" y="269" type="line"/>
      <point x="685" y="271" type="line"/>
      <point x="685" y="325" type="line" smooth="yes"/>
      <point x="684" y="474"/>
      <point x="580" y="613"/>
      <point x="392" y="613" type="curve" smooth="yes"/>
      <point x="204" y="613"/>
      <point x="100" y="469"/>
      <point x="100" y="285" type="curve" smooth="yes"/>
      <point x="99" y="95"/>
      <point x="228" y="-12"/>
      <point x="400" y="-12" type="curve" smooth="yes"/>
      <point x="502" y="-12"/>
      <point x="588" y="38"/>
    </contour>
    <contour>
      <point x="185" y="303" type="line"/>
      <point x="185" y="476" type="line"/>
      <point x="229" y="545"/>
      <point x="310" y="582"/>
      <point x="391" y="582" type="curve" smooth="yes"/>
      <point x="483" y="582"/>
      <point x="552" y="542"/>
      <point x="597" y="478" type="curve"/>
      <point x="597" y="303" type="line"/>
    </contour>
  </outline>
</glyph>
<glyph name="partialdiff" format="1">
  <advance width="488"/>
  <unicode hex="2202"/>
  <outline>
    <contour>
      <point x="448" y="292" type="curve" smooth="yes"/>
      <point x="448" y="97"/>
      <point x="355" y="-12"/>
      <point x="233" y="-12" type="curve" smooth="yes"/>
      <point x="127" y="-12"/>
      <point x="47" y="50"/>
      <point x="47" y="186" type="curve" smooth="yes"/>
      <point x="47" y="324"/>
      <point x="148" y="459"/>
      <point x="301" y="459" type="curve" smooth="yes"/>
      <point x="341" y="459"/>
      <point x="371" y="455"/>
      <point x="401" y="448" type="curve"/>
      <point x="401" y="396" type="line"/>
      <point x="367" y="412"/>
      <point x="330" y="421"/>
      <point x="284" y="421" type="curve" smooth="yes"/>
      <point x="172" y="421"/>
      <point x="100" y="329"/>
      <point x="100" y="186" type="curve" smooth="yes"/>
      <point x="100" y="83"/>
      <point x="152" y="22"/>
      <point x="236" y="22" type="curve" smooth="yes"/>
      <point x="342" y="22"/>
      <point x="395" y="152"/>
      <point x="395" y="292" type="curve" smooth="yes"/>
      <point x="395" y="472"/>
      <point x="323" y="581"/>
      <point x="213" y="581" type="curve" smooth="yes"/>
      <point x="190" y="581"/>
      <point x="171" y="580"/>
      <point x="147" y="575" type="curve"/>
      <point x="141" y="605" type="line"/>
      <point x="168" y="611"/>
      <point x="194" y="613"/>
      <point x="221" y="613" type="curve" smooth="yes"/>
      <point x="336" y="613"/>
      <point x="448" y="517"/>
    </contour>
  </outline>
</glyph>
<glyph name="summation" format="1">
  <advance width="510"/>
  <unicode hex="2211"/>
  <outline>
    <contour>
      <point x="452" y="601" type="line"/>
      <point x="455" y="562"/>
      <point x="454" y="520"/>
      <point x="450" y="483" type="curve"/>
      <point x="444" y="481"/>
      <point x="438" y="481"/>
      <point x="433" y="481" type="curve"/>
      <point x="427" y="550"/>
      <point x="408" y="575"/>
      <point x="342" y="575" type="curve" smooth="yes"/>
      <point x="70" y="575" type="line"/>
      <point x="73" y="588" type="line"/>
      <point x="340" y="285" type="line"/>
      <point x="340" y="266" type="line"/>
      <point x="53" y="-57" type="line"/>
      <point x="62" y="-25" type="line"/>
      <point x="346" y="-25" type="line" smooth="yes"/>
      <point x="412" y="-25"/>
      <point x="431" y="0"/>
      <point x="437" y="69" type="curve"/>
      <point x="442" y="69"/>
      <point x="448" y="69"/>
      <point x="454" y="67" type="curve"/>
      <point x="456" y="29"/>
      <point x="454" y="-27"/>
      <point x="448" y="-70" type="curve"/>
      <point x="25" y="-70" type="line"/>
      <point x="25" y="-44" type="line"/>
      <point x="319" y="287" type="line"/>
      <point x="311" y="250" type="line"/>
      <point x="25" y="576" type="line"/>
      <point x="25" y="601" type="line"/>
    </contour>
  </outline>
</glyph>
<glyph name="radical" format="1">
  <advance width="600"/>
  <unicode hex="221A"/>
  <outline>
    <contour>
      <point x="286" y="-8" type="line"/>
      <point x="272" y="-12" type="line"/>
      <point x="592" y="802" type="line"/>
      <point x="624" y="802" type="line"/>
      <point x="286" y="-66" type="line"/>
      <point x="271" y="-66" type="line"/>
      <point x="137" y="99" type="line" smooth="yes"/>
      <point x="93" y="153"/>
      <point x="69" y="160"/>
      <point x="24" y="131" type="curve"/>
      <point x="21" y="135"/>
      <point x="17" y="141"/>
      <point x="14" y="146" type="curve"/>
      <point x="45" y="175"/>
      <point x="72" y="194"/>
      <point x="107" y="213" type="curve"/>
    </contour>
  </outline>
</glyph>
<glyph name="approxequal" format="1">
  <advance width="600"/>
  <unicode hex="2248"/>
  <outline>
    <contour>
      <point x="433" y="207" type="curve" smooth="yes"/>
      <point x="478" y="207"/>
      <point x="513" y="238"/>
      <point x="521" y="285" type="curve"/>
      <point x="550" y="285" type="line"/>
      <point x="539" y="211"/>
      <point x="489" y="169"/>
      <point x="417" y="169" type="curve" smooth="yes"/>
      <point x="321" y="169"/>
      <point x="237" y="252"/>
      <point x="167" y="252" type="curve" smooth="yes"/>
      <point x="122" y="252"/>
      <point x="87" y="221"/>
      <point x="79" y="174" type="curve"/>
      <point x="50" y="174" type="line"/>
      <point x="61" y="248"/>
      <point x="111" y="290"/>
      <point x="183" y="290" type="curve" smooth="yes"/>
      <point x="263" y="290"/>
      <point x="360" y="207"/>
    </contour>
    <contour>
      <point x="433" y="377" type="curve" smooth="yes"/>
      <point x="478" y="377"/>
      <point x="513" y="408"/>
      <point x="521" y="455" type="curve"/>
      <point x="550" y="455" type="line"/>
      <point x="539" y="381"/>
      <point x="489" y="339"/>
      <point x="417" y="339" type="curve" smooth="yes"/>
      <point x="321" y="339"/>
      <point x="237" y="422"/>
      <point x="167" y="422" type="curve" smooth="yes"/>
      <point x="122" y="422"/>
      <point x="87" y="391"/>
      <point x="79" y="344" type="curve"/>
      <point x="50" y="344" type="line"/>
      <point x="61" y="418"/>
      <point x="111" y="460"/>
      <point x="183" y="460" type="curve" smooth="yes"/>
      <point x="263" y="460"/>
      <point x="360" y="377"/>
    </contour>
  </outline>
</glyph>
<glyph name="notequal" format="1">
  <advance width="600"/>
  <unicode hex="2260"/>
  <outline>
    <contour>
      <point x="131" y="114" type="line"/>
      <point x="90" y="114" type="line"/>
      <point x="428" y="500" type="line"/>
      <point x="470" y="500" type="line"/>
    </contour>
    <contour>
      <point x="500" y="407" type="line"/>
      <point x="500" y="367" type="line"/>
      <point x="60" y="367" type="line"/>
      <point x="60" y="407" type="line"/>
    </contour>
    <contour>
      <point x="500" y="247" type="line"/>
      <point x="500" y="207" type="line"/>
      <point x="60" y="207" type="line"/>
      <point x="60" y="247" type="line"/>
    </contour>
  </outline>
</glyph>
<glyph name="lessequal" format="1">
  <advance width="555"/>
  <unicode hex="2264"/>
  <outline>
    <contour>
      <point x="482" y="504" type="line"/>
      <point x="99" y="338" type="line"/>
      <point x="482" y="232" type="line"/>
      <point x="482" y="187" type="line"/>
      <point x="45" y="317" type="line"/>
      <point x="45" y="359" type="line"/>
      <point x="482" y="549" type="line"/>
    </contour>
    <contour>
      <point x="485" y="87" type="line"/>
      <point x="45" y="87" type="line"/>
      <point x="45" y="127" type="line"/>
      <point x="485" y="127" type="line"/>
    </contour>
  </outline>
</glyph>
<glyph name="greaterequal" format="1">
  <advance width="555"/>
  <unicode hex="2265"/>
  <outline>
    <contour>
      <point x="510" y="359" type="line"/>
      <point x="510" y="317" type="line"/>
      <point x="73" y="187" type="line"/>
      <point x="73" y="232" type="line"/>
      <point x="456" y="338" type="line"/>
      <point x="73" y="504" type="line"/>
      <point x="73" y="549" type="line"/>
    </contour>
    <contour>
      <point x="510" y="127" type="line"/>
      <point x="510" y="87" type="line"/>
      <point x="70" y="87" type="line"/>
      <point x="70" y="127" type="line"/>
    </contour>
  </outline>
</glyph>
<glyph name="Delta.math" format="1">
  <advance width="576"/>
  <outline>
    <contour>
      <point x="298" y="601" type="line"/>
      <point x="536" y="27" type="line"/>
      <point x="536" y="0" type="line"/>
      <point x="40" y="0" type="line"/>
      <point x="40" y="27" type="line"/>
      <point x="278" y="601" type="line"/>
    </contour>
    <contour>
      <point x="69" y="27" type="line"/>
      <point x="490" y="27" type="line"/>
      <point x="490" y="10" type="line"/>
      <point x="272" y="537" type="line"/>
      <point x="280" y="537" type="line"/>
    </contour>
  </outline>
</glyph>
<glyph name="dvB" format="1">
  <advance width="334"/>
  <outline>
    <contour>
      <point x="386" y="577" type="line"/>
      <point x="354" y="625" type="line"/>
      <point x="-53" y="625" type="line"/>
      <point x="-20" y="577" type="line"/>
    </contour>
    <contour>
      <point x="401" y="266" type="line"/>
      <point x="382" y="240"/>
      <point x="364" y="218"/>
      <point x="345" y="200" type="curve"/>
      <point x="155" y="405" type="line"/>
      <point x="179" y="423"/>
      <point x="208" y="434"/>
      <point x="240" y="434" type="curve" smooth="yes"/>
      <point x="290" y="434"/>
      <point x="323" y="408"/>
      <point x="342" y="388" type="curve"/>
      <point x="360" y="415" type="line"/>
      <point x="336" y="438"/>
      <point x="291" y="482"/>
      <point x="217" y="482" type="curve" smooth="yes"/>
      <point x="134" y="482"/>
      <point x="46" y="410"/>
      <point x="46" y="305" type="curve" smooth="yes"/>
      <point x="46" y="191"/>
      <point x="158" y="99"/>
      <point x="257" y="99" type="curve" smooth="yes"/>
      <point x="342" y="99"/>
      <point x="407" y="183"/>
      <point x="437" y="225" type="curve"/>
    </contour>
    <contour>
      <point x="234" y="143" type="curve" smooth="yes"/>
      <point x="155" y="143"/>
      <point x="95" y="210"/>
      <point x="95" y="283" type="curve" smooth="yes"/>
      <point x="95" y="323"/>
      <point x="109" y="358"/>
      <point x="132" y="385" type="curve"/>
      <point x="324" y="180" type="line"/>
      <point x="294" y="156"/>
      <point x="263" y="143"/>
    </contour>
  </outline>
</glyph>
<glyph name="dvB_JHA" format="1">
  <advance width="1120"/>
  <outline>
    <contour>
      <point x="448" y="325" type="line"/>
      <point x="430" y="298"/>
      <point x="400" y="248"/>
      <point x="345" y="200" type="curve"/>
      <point x="155" y="405" type="line"/>
      <point x="179" y="423"/>
      <point x="208" y="434"/>
      <point x="240" y="434" type="curve" smooth="yes"/>
      <point x="290" y="434"/>
      <point x="323" y="408"/>
      <point x="342" y="388" type="curve"/>
      <point x="360" y="415" type="line"/>
      <point x="336" y="438"/>
      <point x="291" y="482"/>
      <point x="217" y="482" type="curve" smooth="yes"/>
      <point x="134" y="482"/>
      <point x="46" y="410"/>
      <point x="46" y="305" type="curve" smooth="yes"/>
      <point x="46" y="191"/>
      <point x="158" y="99"/>
      <point x="257" y="99" type="curve" smooth="yes"/>
      <point x="342" y="99"/>
      <point x="419" y="189"/>
      <point x="484" y="284" type="curve"/>
    </contour>
    <contour>
      <point x="386" y="577" type="line"/>
      <point x="354" y="625" type="line"/>
      <point x="-53" y="625" type="line"/>
      <point x="-20" y="577" type="line"/>
    </contour>
    <contour>
      <point x="234" y="143" type="curve" smooth="yes"/>
      <point x="155" y="143"/>
      <point x="95" y="210"/>
      <point x="95" y="283" type="curve" smooth="yes"/>
      <point x="95" y="323"/>
      <point x="109" y="358"/>
      <point x="132" y="385" type="curve"/>
      <point x="324" y="180" type="line"/>
      <point x="294" y="156"/>
      <point x="263" y="143"/>
    </contour>
    <component base="dvJHA" xOffset="371"/>
  </outline>
</glyph>
<glyph name="dvB_J_YA" format="1">
  <advance width="1446"/>
  <outline>
    <contour>
      <point x="386" y="577" type="line"/>
      <point x="354" y="625" type="line"/>
      <point x="-53" y="625" type="line"/>
      <point x="-20" y="577" type="line"/>
    </contour>
    <contour>
      <point x="864" y="577" type="line"/>
      <point x="832" y="625" type="line"/>
      <point x="294" y="625" type="line"/>
      <point x="326" y="577" type="line"/>
    </contour>
    <contour>
      <point x="1346" y="577" type="line"/>
      <point x="1498" y="577" type="line"/>
      <point x="1466" y="625" type="line"/>
      <point x="791" y="625" type="line"/>
      <point x="823" y="577" type="line"/>
      <point x="997" y="577" type="line"/>
      <point x="1047" y="550"/>
      <point x="1076" y="509"/>
      <point x="1076" y="477" type="curve" smooth="yes"/>
      <point x="1076" y="449"/>
      <point x="1050" y="413"/>
      <point x="926" y="351" type="curve" smooth="yes"/>
      <point x="914" y="345"/>
      <point x="908" y="339"/>
      <point x="908" y="327" type="curve" smooth="yes"/>
      <point x="908" y="240"/>
      <point x="1024" y="126"/>
      <point x="1128" y="126" type="curve" smooth="yes"/>
      <point x="1190" y="126"/>
      <point x="1242" y="156"/>
      <point x="1291" y="216" type="curve"/>
      <point x="1290" y="-6" type="line"/>
      <point x="1346" y="-50" type="line"/>
    </contour>
    <contour>
      <point x="1106" y="173" type="curve"/>
      <point x="1049" y="173"/>
      <point x="965" y="225"/>
      <point x="965" y="286" type="curve" smooth="yes"/>
      <point x="965" y="313"/>
      <point x="988" y="325"/>
      <point x="1002" y="335" type="curve"/>
      <point x="1056" y="370"/>
      <point x="1126" y="403"/>
      <point x="1126" y="458" type="curve" smooth="yes"/>
      <point x="1126" y="484"/>
      <point x="1110" y="540"/>
      <point x="1051" y="577" type="curve"/>
      <point x="1290" y="577" type="line"/>
      <point x="1290" y="296" type="line"/>
      <point x="1262" y="241"/>
      <point x="1200" y="173"/>
    </contour>
    <contour>
      <point x="416" y="282" type="line"/>
      <point x="458" y="174"/>
      <point x="526" y="56"/>
      <point x="643" y="56" type="curve" smooth="yes"/>
      <point x="720" y="56"/>
      <point x="763" y="113"/>
      <point x="763" y="177" type="curve" smooth="yes"/>
      <point x="763" y="239"/>
      <point x="733" y="298"/>
      <point x="680" y="344" type="curve"/>
      <point x="800" y="344" type="line" smooth="yes"/>
      <point x="900" y="344"/>
      <point x="947" y="261"/>
      <point x="947" y="261" type="curve"/>
      <point x="962" y="298" type="line"/>
      <point x="962" y="298"/>
      <point x="914" y="394"/>
      <point x="769" y="394" type="curve" smooth="yes"/>
      <point x="598" y="394" type="line"/>
      <point x="594" y="388" type="line"/>
      <point x="641" y="341"/>
      <point x="720" y="277"/>
      <point x="720" y="199" type="curve" smooth="yes"/>
      <point x="720" y="137"/>
      <point x="681" y="101"/>
      <point x="621" y="101" type="curve" smooth="yes"/>
      <point x="528" y="101"/>
      <point x="474" y="222"/>
      <point x="440" y="319" type="curve"/>
    </contour>
    <contour>
      <point x="440" y="319" type="line"/>
      <point x="421" y="293"/>
      <point x="369" y="219"/>
      <point x="345" y="200" type="curve"/>
      <point x="155" y="405" type="line"/>
      <point x="179" y="423"/>
      <point x="208" y="434"/>
      <point x="240" y="434" type="curve" smooth="yes"/>
      <point x="290" y="434"/>
      <point x="323" y="408"/>
      <point x="342" y="388" type="curve"/>
      <point x="360" y="415" type="line"/>
      <point x="336" y="438"/>
      <point x="291" y="482"/>
      <point x="217" y="482" type="curve" smooth="yes"/>
      <point x="134" y="482"/>
      <point x="46" y="410"/>
      <point x="46" y="305" type="curve" smooth="yes"/>
      <point x="46" y="191"/>
      <point x="158" y="99"/>
      <point x="257" y="99" type="curve" smooth="yes"/>
      <point x="342" y="99"/>
      <point x="412" y="185"/>
      <point x="457" y="252" type="curve"/>
    </contour>
    <contour>
      <point x="234" y="143" type="curve" smooth="yes"/>
      <point x="155" y="143"/>
      <point x="95" y="210"/>
      <point x="95" y="283" type="curve" smooth="yes"/>
      <point x="95" y="323"/>
      <point x="109" y="358"/>
      <point x="132" y="385" type="curve"/>
      <point x="324" y="180" type="line"/>
      <point x="294" y="156"/>
      <point x="263" y="143"/>
    </contour>
  </outline>
</glyph>
<glyph name="dvB_NA" format="1">
  <advance width="571"/>
  <outline>
    <contour>
      <point x="416" y="7" type="line"/>
      <point x="471" y="-50" type="line"/>
      <point x="471" y="577" type="line"/>
      <point x="623" y="577" type="line"/>
      <point x="591" y="625" type="line"/>
      <point x="-53" y="625" type="line"/>
      <point x="-20" y="577" type="line"/>
      <point x="415" y="577" type="line"/>
      <point x="415" y="271" type="line"/>
      <point x="393" y="248"/>
      <point x="363" y="217"/>
      <point x="345" y="200" type="curve"/>
      <point x="155" y="405" type="line"/>
      <point x="179" y="423"/>
      <point x="208" y="434"/>
      <point x="240" y="434" type="curve" smooth="yes"/>
      <point x="290" y="434"/>
      <point x="323" y="408"/>
      <point x="342" y="388" type="curve"/>
      <point x="360" y="415" type="line"/>
      <point x="336" y="438"/>
      <point x="291" y="482"/>
      <point x="217" y="482" type="curve" smooth="yes"/>
      <point x="134" y="482"/>
      <point x="46" y="410"/>
      <point x="46" y="305" type="curve" smooth="yes"/>
      <point x="46" y="199"/>
      <point x="141" y="113"/>
      <point x="234" y="100" type="curve"/>
      <point x="143" y="20" type="line" smooth="yes"/>
      <point x="132" y="10"/>
      <point x="121" y="0"/>
      <point x="121" y="-15" type="curve" smooth="yes"/>
      <point x="121" y="-57"/>
      <point x="200" y="-73"/>
      <point x="237" y="-73" type="curve" smooth="yes"/>
      <point x="261" y="-73"/>
      <point x="284" y="-65"/>
      <point x="284" y="-47" type="curve" smooth="yes"/>
      <point x="284" y="-41"/>
      <point x="279" y="-34"/>
      <point x="272" y="-26" type="curve" smooth="yes"/>
      <point x="225" y="25" type="line"/>
      <point x="415" y="205" type="line"/>
    </contour>
    <contour>
      <point x="234" y="143" type="curve" smooth="yes"/>
      <point x="155" y="143"/>
      <point x="95" y="210"/>
      <point x="95" y="283" type="curve" smooth="yes"/>
      <point x="95" y="323"/>
      <point x="109" y="358"/>
      <point x="132" y="385" type="curve"/>
      <point x="324" y="180" type="line"/>
      <point x="294" y="156"/>
      <point x="263" y="143"/>
    </contour>
  </outline>
</glyph>
<glyph name="dvB_RA" format="1">
  <advance width="597"/>
  <outline>
    <contour>
      <point x="648" y="577" type="line"/>
      <point x="616" y="625" type="line"/>
      <point x="-28" y="625" type="line"/>
      <point x="5" y="577" type="line"/>
      <point x="441" y="577" type="line"/>
      <point x="441" y="272" type="line"/>
      <point x="370" y="200" type="line"/>
      <point x="180" y="405" type="line"/>
      <point x="204" y="423"/>
      <point x="233" y="434"/>
      <point x="265" y="434" type="curve" smooth="yes"/>
      <point x="315" y="434"/>
      <point x="348" y="408"/>
      <point x="367" y="388" type="curve"/>
      <point x="385" y="415" type="line"/>
      <point x="361" y="438"/>
      <point x="316" y="482"/>
      <point x="242" y="482" type="curve" smooth="yes"/>
      <point x="159" y="482"/>
      <point x="71" y="410"/>
      <point x="71" y="305" type="curve" smooth="yes"/>
      <point x="71" y="194"/>
      <point x="183" y="95"/>
      <point x="280" y="101" type="curve"/>
      <point x="131" y="-23" type="line"/>
      <point x="174" y="-53" type="line"/>
      <point x="276" y="41"/>
      <point x="386" y="148"/>
      <point x="441" y="203" type="curve"/>
      <point x="442" y="7" type="line"/>
      <point x="497" y="-50" type="line"/>
      <point x="497" y="577" type="line"/>
    </contour>
    <contour>
      <point x="259" y="143" type="curve" smooth="yes"/>
      <point x="180" y="143"/>
      <point x="120" y="210"/>
      <point x="120" y="283" type="curve" smooth="yes"/>
      <point x="120" y="323"/>
      <point x="134" y="358"/>
      <point x="157" y="385" type="curve"/>
      <point x="349" y="180" type="line"/>
      <point x="319" y="156"/>
      <point x="288" y="143"/>
    </contour>
  </outline>
</glyph>
<glyph name="dvB_SA" format="1">
  <advance width="997"/>
  <outline>
    <contour>
      <point x="386" y="577" type="line"/>
      <point x="354" y="625" type="line"/>
      <point x="-53" y="625" type="line"/>
      <point x="-20" y="577" type="line"/>
    </contour>
    <contour>
      <point x="399" y="261" type="line"/>
      <point x="470" y="159"/>
      <point x="549" y="66"/>
      <point x="644" y="-50" type="curve"/>
      <point x="687" y="-22" type="line"/>
      <point x="607" y="65"/>
      <point x="521" y="164"/>
      <point x="484" y="220" type="curve"/>
      <point x="548" y="224"/>
      <point x="575" y="258"/>
      <point x="581" y="293" type="curve"/>
      <point x="630" y="254"/>
      <point x="693" y="227"/>
      <point x="748" y="227" type="curve" smooth="yes"/>
      <point x="777" y="227"/>
      <point x="815" y="238"/>
      <point x="843" y="261" type="curve"/>
      <point x="843" y="-6" type="line"/>
      <point x="897" y="-50" type="line"/>
      <point x="897" y="577" type="line"/>
      <point x="1049" y="577" type="line"/>
      <point x="1017" y="625" type="line"/>
      <point x="295" y="625" type="line"/>
      <point x="327" y="577" type="line"/>
      <point x="529" y="577" type="line"/>
      <point x="529" y="338" type="line" smooth="yes"/>
      <point x="529" y="292"/>
      <point x="509" y="277"/>
      <point x="476" y="277" type="curve" smooth="yes"/>
      <point x="457" y="277"/>
      <point x="443" y="284"/>
      <point x="426" y="298" type="curve"/>
    </contour>
    <contour>
      <point x="583" y="577" type="line"/>
      <point x="843" y="577" type="line"/>
      <point x="843" y="330" type="line"/>
      <point x="813" y="296"/>
      <point x="765" y="280"/>
      <point x="716" y="280" type="curve" smooth="yes"/>
      <point x="672" y="280"/>
      <point x="619" y="307"/>
      <point x="583" y="337" type="curve"/>
    </contour>
    <contour>
      <point x="426" y="298" type="line"/>
      <point x="407" y="272"/>
      <point x="366" y="218"/>
      <point x="345" y="200" type="curve"/>
      <point x="155" y="405" type="line"/>
      <point x="179" y="423"/>
      <point x="208" y="434"/>
      <point x="240" y="434" type="curve" smooth="yes"/>
      <point x="290" y="434"/>
      <point x="323" y="408"/>
      <point x="342" y="388" type="curve"/>
      <point x="360" y="415" type="line"/>
      <point x="336" y="438"/>
      <point x="291" y="482"/>
      <point x="217" y="482" type="curve" smooth="yes"/>
      <point x="134" y="482"/>
      <point x="46" y="410"/>
      <point x="46" y="305" type="curve" smooth="yes"/>
      <point x="46" y="191"/>
      <point x="158" y="99"/>
      <point x="257" y="99" type="curve" smooth="yes"/>
      <point x="342" y="99"/>
      <point x="407" y="183"/>
      <point x="437" y="225" type="curve"/>
    </contour>
    <contour>
      <point x="234" y="143" type="curve" smooth="yes"/>
      <point x="155" y="143"/>
      <point x="95" y="210"/>
      <point x="95" y="283" type="curve" smooth="yes"/>
      <point x="95" y="323"/>
      <point x="109" y="358"/>
      <point x="132" y="385" type="curve"/>
      <point x="324" y="180" type="line"/>
      <point x="294" y="156"/>
      <point x="263" y="143"/>
    </contour>
  </outline>
</glyph>
<glyph name="dvC" format="1">
  <advance width="452"/>
  <outline>
    <contour>
      <point x="504" y="577" type="line"/>
      <point x="472" y="625" type="line"/>
      <point x="-52" y="625" type="line"/>
      <point x="-20" y="577" type="line"/>
    </contour>
    <contour>
      <point x="512" y="237" type="line"/>
      <point x="466" y="169"/>
      <point x="400" y="123"/>
      <point x="324" y="123" type="curve" smooth="yes"/>
      <point x="256" y="123"/>
      <point x="195" y="178"/>
      <point x="195" y="242" type="curve" smooth="yes"/>
      <point x="195" y="321"/>
      <point x="261" y="363"/>
      <point x="336" y="375" type="curve"/>
      <point x="437" y="375" type="line"/>
      <point x="404" y="425" type="line"/>
      <point x="9" y="425" type="line"/>
      <point x="42" y="375" type="line"/>
      <point x="219" y="377" type="line"/>
      <point x="178" y="361"/>
      <point x="143" y="312"/>
      <point x="143" y="269" type="curve" smooth="yes"/>
      <point x="143" y="167"/>
      <point x="259" y="75"/>
      <point x="351" y="75" type="curve" smooth="yes"/>
      <point x="441" y="75"/>
      <point x="493" y="129"/>
      <point x="544" y="197" type="curve"/>
    </contour>
  </outline>
</glyph>
<glyph name="dvDDH_RA" format="1">
  <advance width="524"/>
  <outline>
    <contour>
      <point x="161" y="-160" type="line"/>
      <point x="311" y="20" type="line"/>
      <point x="462" y="-160" type="line"/>
      <point x="489" y="-142" type="line"/>
      <point x="313" y="62" type="line"/>
      <point x="293" y="62" type="line"/>
      <point x="121" y="-128" type="line"/>
    </contour>
    <component base="dvDDHA"/>
  </outline>
</glyph>
<glyph name="dvDDH_VA" format="1">
  <advance width="524"/>
  <outline>
    <contour>
      <point x="312" y="103" type="curve" smooth="yes"/>
      <point x="390" y="103"/>
      <point x="483" y="156"/>
      <point x="483" y="232" type="curve" smooth="yes"/>
      <point x="483" y="314"/>
      <point x="418" y="365"/>
      <point x="356" y="365" type="curve" smooth="yes"/>
      <point x="286" y="365"/>
      <point x="246" y="313"/>
      <point x="246" y="252" type="curve" smooth="yes"/>
      <point x="246" y="202"/>
      <point x="273" y="160"/>
      <point x="286" y="147" type="curve"/>
      <point x="184" y="148"/>
      <point x="100" y="212"/>
      <point x="100" y="306" type="curve" smooth="yes"/>
      <point x="100" y="433"/>
      <point x="210" y="441"/>
      <point x="276" y="441" type="curve" smooth="yes"/>
      <point x="404" y="441" type="line"/>
      <point x="404" y="577" type="line"/>
      <point x="570" y="577" type="line"/>
      <point x="538" y="625" type="line"/>
      <point x="-33" y="625" type="line"/>
      <point x="-1" y="577" type="line"/>
      <point x="348" y="577" type="line"/>
      <point x="348" y="491" type="line"/>
      <point x="239" y="491" type="line" smooth="yes"/>
      <point x="136" y="491"/>
      <point x="53" y="431"/>
      <point x="53" y="341" type="curve" smooth="yes"/>
      <point x="53" y="196"/>
      <point x="179" y="103"/>
    </contour>
    <contour>
      <point x="439" y="259" type="curve" smooth="yes"/>
      <point x="439" y="193"/>
      <point x="385" y="156"/>
      <point x="321" y="149" type="curve"/>
      <point x="302" y="170"/>
      <point x="290" y="200"/>
      <point x="290" y="230" type="curve" smooth="yes"/>
      <point x="290" y="281"/>
      <point x="321" y="323"/>
      <point x="374" y="323" type="curve" smooth="yes"/>
      <point x="415" y="323"/>
      <point x="439" y="297"/>
    </contour>
    <contour>
      <point x="178" y="140" type="line"/>
      <point x="119" y="120"/>
      <point x="82" y="74"/>
      <point x="82" y="22" type="curve" smooth="yes"/>
      <point x="82" y="-71"/>
      <point x="169" y="-151"/>
      <point x="261" y="-151" type="curve" smooth="yes"/>
      <point x="323" y="-151"/>
      <point x="369" y="-116"/>
      <point x="395" y="-77" type="curve"/>
      <point x="392" y="-198" type="line"/>
      <point x="447" y="-241" type="line"/>
      <point x="447" y="161" type="line"/>
      <point x="391" y="125" type="line"/>
      <point x="391" y="0" type="line"/>
      <point x="349" y="-85"/>
      <point x="297" y="-107"/>
      <point x="245" y="-107" type="curve" smooth="yes"/>
      <point x="171" y="-107"/>
      <point x="132" y="-56"/>
      <point x="132" y="-4" type="curve" smooth="yes"/>
      <point x="132" y="69"/>
      <point x="195" y="111"/>
      <point x="255" y="109" type="curve"/>
    </contour>
  </outline>
</glyph>
<glyph name="dvDDH_YA" format="1">
  <advance width="1030"/>
  <outline>
    <contour>
      <point x="356" y="299" type="curve" smooth="yes"/>
      <point x="286" y="299"/>
      <point x="245" y="245"/>
      <point x="245" y="184" type="curve"/>
      <point x="247" y="138"/>
      <point x="269" y="102"/>
      <point x="286" y="81" type="curve"/>
      <point x="184" y="82"/>
      <point x="100" y="161"/>
      <point x="100" y="255" type="curve" smooth="yes"/>
      <point x="100" y="382"/>
      <point x="185" y="410"/>
      <point x="276" y="410" type="curve" smooth="yes"/>
      <point x="608" y="410" type="line" smooth="yes"/>
      <point x="650" y="410"/>
      <point x="690" y="398"/>
      <point x="690" y="367" type="curve" smooth="yes"/>
      <point x="690" y="339"/>
      <point x="634" y="305"/>
      <point x="564" y="268" type="curve" smooth="yes"/>
      <point x="549" y="260"/>
      <point x="538" y="249"/>
      <point x="538" y="234" type="curve" smooth="yes"/>
      <point x="538" y="150"/>
      <point x="646" y="67"/>
      <point x="727" y="67" type="curve" smooth="yes"/>
      <point x="783" y="67"/>
      <point x="853" y="123"/>
      <point x="875" y="151" type="curve"/>
      <point x="874" y="-6" type="line"/>
      <point x="930" y="-50" type="line"/>
      <point x="930" y="577" type="line"/>
      <point x="1082" y="577" type="line"/>
      <point x="1050" y="625" type="line"/>
      <point x="-33" y="625" type="line"/>
      <point x="-1" y="577" type="line"/>
      <point x="348" y="577" type="line"/>
      <point x="348" y="460" type="line"/>
      <point x="234" y="460" type="line" smooth="yes"/>
      <point x="110" y="460"/>
      <point x="53" y="380"/>
      <point x="53" y="290" type="curve" smooth="yes"/>
      <point x="53" y="234"/>
      <point x="76" y="171"/>
      <point x="118" y="124" type="curve" smooth="yes"/>
      <point x="172" y="64"/>
      <point x="241" y="37"/>
      <point x="312" y="37" type="curve" smooth="yes"/>
      <point x="390" y="37"/>
      <point x="483" y="90"/>
      <point x="483" y="166" type="curve" smooth="yes"/>
      <point x="483" y="248"/>
      <point x="418" y="299"/>
    </contour>
    <contour>
      <point x="585" y="460" type="curve"/>
      <point x="404" y="460" type="line"/>
      <point x="404" y="577" type="line"/>
      <point x="874" y="577" type="line"/>
      <point x="874" y="226" type="line"/>
      <point x="858" y="194"/>
      <point x="780" y="115"/>
      <point x="703" y="115" type="curve" smooth="yes"/>
      <point x="637" y="115"/>
      <point x="599" y="156"/>
      <point x="599" y="195" type="curve" smooth="yes"/>
      <point x="599" y="219"/>
      <point x="614" y="233"/>
      <point x="626" y="241" type="curve" smooth="yes"/>
      <point x="680" y="276"/>
      <point x="742" y="311"/>
      <point x="742" y="345" type="curve" smooth="yes"/>
      <point x="742" y="389"/>
      <point x="674" y="460"/>
    </contour>
    <contour>
      <point x="290" y="164" type="curve" smooth="yes"/>
      <point x="290" y="215"/>
      <point x="321" y="257"/>
      <point x="374" y="257" type="curve" smooth="yes"/>
      <point x="415" y="257"/>
      <point x="439" y="231"/>
      <point x="439" y="193" type="curve" smooth="yes"/>
      <point x="439" y="127"/>
      <point x="380" y="92"/>
      <point x="321" y="83" type="curve"/>
      <point x="302" y="104"/>
      <point x="290" y="134"/>
    </contour>
  </outline>
</glyph>
<glyph name="dvDD_DDA" format="1">
  <advance width="520"/>
  <outline>
    <contour>
      <point x="275" y="69" type="line"/>
      <point x="380" y="69"/>
      <point x="467" y="134"/>
      <point x="467" y="207" type="curve" smooth="yes"/>
      <point x="467" y="267"/>
      <point x="406" y="331"/>
      <point x="340" y="331" type="curve" smooth="yes"/>
      <point x="298" y="331"/>
      <point x="229" y="289"/>
      <point x="186" y="289" type="curve" smooth="yes"/>
      <point x="147" y="289"/>
      <point x="110" y="310"/>
      <point x="110" y="362" type="curve" smooth="yes"/>
      <point x="110" y="420"/>
      <point x="147" y="441"/>
      <point x="209" y="441" type="curve" smooth="yes"/>
      <point x="413" y="441" type="line"/>
      <point x="413" y="577" type="line"/>
      <point x="571" y="577" type="line"/>
      <point x="540" y="625" type="line"/>
      <point x="-47" y="625" type="line"/>
      <point x="-14" y="577" type="line"/>
      <point x="357" y="577" type="line"/>
      <point x="357" y="491" type="line"/>
      <point x="194" y="491" type="line" smooth="yes"/>
      <point x="115" y="491"/>
      <point x="69" y="449"/>
      <point x="69" y="385" type="curve" smooth="yes"/>
      <point x="69" y="297"/>
      <point x="146" y="242"/>
      <point x="204" y="242" type="curve" smooth="yes"/>
      <point x="252" y="242"/>
      <point x="312" y="283"/>
      <point x="359" y="283" type="curve" smooth="yes"/>
      <point x="400" y="283"/>
      <point x="425" y="256"/>
      <point x="425" y="229" type="curve" smooth="yes"/>
      <point x="425" y="162"/>
      <point x="355" y="114"/>
      <point x="254" y="114" type="curve" smooth="yes"/>
      <point x="184" y="114"/>
      <point x="112" y="157"/>
      <point x="61" y="233" type="curve"/>
      <point x="36" y="211" type="line"/>
      <point x="60" y="175"/>
      <point x="103" y="130"/>
      <point x="151" y="107" type="curve"/>
      <point x="92" y="92"/>
      <point x="69" y="59"/>
      <point x="69" y="13" type="curve" smooth="yes"/>
      <point x="69" y="-75"/>
      <point x="146" y="-130"/>
      <point x="204" y="-130" type="curve" smooth="yes"/>
      <point x="252" y="-130"/>
      <point x="312" y="-89"/>
      <point x="359" y="-89" type="curve" smooth="yes"/>
      <point x="400" y="-89"/>
      <point x="425" y="-116"/>
      <point x="425" y="-143" type="curve" smooth="yes"/>
      <point x="425" y="-210"/>
      <point x="355" y="-258"/>
      <point x="254" y="-258" type="curve" smooth="yes"/>
      <point x="184" y="-258"/>
      <point x="112" y="-215"/>
      <point x="61" y="-139" type="curve"/>
      <point x="36" y="-161" type="line"/>
      <point x="89" y="-239"/>
      <point x="177" y="-303"/>
      <point x="275" y="-303" type="curve" smooth="yes"/>
      <point x="380" y="-303"/>
      <point x="467" y="-238"/>
      <point x="467" y="-165" type="curve" smooth="yes"/>
      <point x="467" y="-105"/>
      <point x="406" y="-41"/>
      <point x="340" y="-41" type="curve" smooth="yes"/>
      <point x="298" y="-41"/>
      <point x="229" y="-83"/>
      <point x="186" y="-83" type="curve" smooth="yes"/>
      <point x="147" y="-83"/>
      <point x="110" y="-62"/>
      <point x="110" y="-10" type="curve" smooth="yes"/>
      <point x="110" y="48"/>
      <point x="147" y="69"/>
      <point x="209" y="69" type="curve" smooth="yes"/>
    </contour>
  </outline>
</glyph>
<glyph name="dvDD_DDHA" format="1">
  <advance width="520"/>
  <outline>
    <contour>
      <point x="275" y="69" type="curve" smooth="yes"/>
      <point x="380" y="69"/>
      <point x="467" y="134"/>
      <point x="467" y="207" type="curve" smooth="yes"/>
      <point x="467" y="267"/>
      <point x="406" y="331"/>
      <point x="340" y="331" type="curve" smooth="yes"/>
      <point x="298" y="331"/>
      <point x="229" y="289"/>
      <point x="186" y="289" type="curve" smooth="yes"/>
      <point x="147" y="289"/>
      <point x="110" y="310"/>
      <point x="110" y="362" type="curve" smooth="yes"/>
      <point x="110" y="420"/>
      <point x="147" y="441"/>
      <point x="209" y="441" type="curve" smooth="yes"/>
      <point x="413" y="441" type="line"/>
      <point x="413" y="577" type="line"/>
      <point x="571" y="577" type="line"/>
      <point x="540" y="625" type="line"/>
      <point x="-47" y="625" type="line"/>
      <point x="-14" y="577" type="line"/>
      <point x="357" y="577" type="line"/>
      <point x="357" y="491" type="line"/>
      <point x="194" y="491" type="line" smooth="yes"/>
      <point x="115" y="491"/>
      <point x="69" y="449"/>
      <point x="69" y="385" type="curve" smooth="yes"/>
      <point x="69" y="297"/>
      <point x="146" y="242"/>
      <point x="204" y="242" type="curve" smooth="yes"/>
      <point x="252" y="242"/>
      <point x="312" y="283"/>
      <point x="359" y="283" type="curve" smooth="yes"/>
      <point x="400" y="283"/>
      <point x="425" y="256"/>
      <point x="425" y="229" type="curve" smooth="yes"/>
      <point x="425" y="162"/>
      <point x="355" y="114"/>
      <point x="254" y="114" type="curve" smooth="yes"/>
      <point x="184" y="114"/>
      <point x="112" y="157"/>
      <point x="61" y="233" type="curve"/>
      <point x="36" y="211" type="line"/>
      <point x="65" y="168"/>
      <point x="109" y="124"/>
      <point x="157" y="103" type="curve"/>
      <point x="91" y="79"/>
      <point x="53" y="31"/>
      <point x="53" y="-31" type="curve" smooth="yes"/>
      <point x="53" y="-173"/>
      <point x="176" y="-269"/>
      <point x="312" y="-269" type="curve" smooth="yes"/>
      <point x="390" y="-269"/>
      <point x="483" y="-216"/>
      <point x="483" y="-140" type="curve" smooth="yes"/>
      <point x="483" y="-58"/>
      <point x="418" y="-7"/>
      <point x="356" y="-7" type="curve" smooth="yes"/>
      <point x="286" y="-7"/>
      <point x="246" y="-59"/>
      <point x="246" y="-120" type="curve" smooth="yes"/>
      <point x="246" y="-170"/>
      <point x="273" y="-212"/>
      <point x="286" y="-225" type="curve"/>
      <point x="184" y="-224"/>
      <point x="100" y="-160"/>
      <point x="100" y="-66" type="curve" smooth="yes"/>
      <point x="100" y="56"/>
      <point x="200" y="69"/>
    </contour>
    <contour>
      <point x="290" y="-140" type="curve" smooth="yes"/>
      <point x="290" y="-89"/>
      <point x="321" y="-47"/>
      <point x="374" y="-47" type="curve" smooth="yes"/>
      <point x="415" y="-47"/>
      <point x="439" y="-73"/>
      <point x="439" y="-111" type="curve" smooth="yes"/>
      <point x="439" y="-177"/>
      <point x="385" y="-214"/>
      <point x="321" y="-221" type="curve"/>
      <point x="302" y="-200"/>
      <point x="290" y="-170"/>
    </contour>
  </outline>
</glyph>
<glyph name="dvDD_VA" format="1">
  <advance width="520"/>
  <outline>
    <contour>
      <point x="467" y="207" type="curve" smooth="yes"/>
      <point x="467" y="267"/>
      <point x="406" y="331"/>
      <point x="340" y="331" type="curve" smooth="yes"/>
      <point x="298" y="331"/>
      <point x="229" y="289"/>
      <point x="186" y="289" type="curve" smooth="yes"/>
      <point x="147" y="289"/>
      <point x="110" y="310"/>
      <point x="110" y="362" type="curve" smooth="yes"/>
      <point x="110" y="420"/>
      <point x="147" y="441"/>
      <point x="209" y="441" type="curve" smooth="yes"/>
      <point x="413" y="441" type="line"/>
      <point x="413" y="577" type="line"/>
      <point x="571" y="577" type="line"/>
      <point x="540" y="625" type="line"/>
      <point x="-47" y="625" type="line"/>
      <point x="-14" y="577" type="line"/>
      <point x="357" y="577" type="line"/>
      <point x="357" y="491" type="line"/>
      <point x="194" y="491" type="line" smooth="yes"/>
      <point x="115" y="491"/>
      <point x="69" y="449"/>
      <point x="69" y="385" type="curve" smooth="yes"/>
      <point x="69" y="297"/>
      <point x="146" y="242"/>
      <point x="204" y="242" type="curve" smooth="yes"/>
      <point x="252" y="242"/>
      <point x="312" y="283"/>
      <point x="359" y="283" type="curve" smooth="yes"/>
      <point x="400" y="283"/>
      <point x="425" y="256"/>
      <point x="425" y="229" type="curve" smooth="yes"/>
      <point x="425" y="162"/>
      <point x="355" y="114"/>
      <point x="254" y="114" type="curve" smooth="yes"/>
      <point x="184" y="114"/>
      <point x="112" y="157"/>
      <point x="61" y="233" type="curve"/>
      <point x="36" y="211" type="line"/>
      <point x="65" y="168"/>
      <point x="107" y="127"/>
      <point x="158" y="103" type="curve"/>
      <point x="99" y="83"/>
      <point x="62" y="37"/>
      <point x="62" y="-15" type="curve" smooth="yes"/>
      <point x="62" y="-108"/>
      <point x="149" y="-188"/>
      <point x="241" y="-188" type="curve" smooth="yes"/>
      <point x="303" y="-188"/>
      <point x="349" y="-153"/>
      <point x="375" y="-114" type="curve"/>
      <point x="372" y="-285" type="line"/>
      <point x="427" y="-328" type="line"/>
      <point x="427" y="124" type="line"/>
      <point x="452" y="148"/>
      <point x="467" y="177"/>
    </contour>
    <contour>
      <point x="275" y="69" type="curve" smooth="yes"/>
      <point x="309" y="69"/>
      <point x="342" y="76"/>
      <point x="371" y="88" type="curve"/>
      <point x="371" y="-37" type="line"/>
      <point x="329" y="-122"/>
      <point x="277" y="-144"/>
      <point x="225" y="-144" type="curve" smooth="yes"/>
      <point x="151" y="-144"/>
      <point x="112" y="-93"/>
      <point x="112" y="-41" type="curve" smooth="yes"/>
      <point x="112" y="32"/>
      <point x="175" y="74"/>
      <point x="235" y="72" type="curve"/>
      <point x="248" y="70"/>
      <point x="261" y="69"/>
    </contour>
  </outline>
</glyph>
<glyph name="dvDH_N_YA" format="1">
  <advance width="923"/>
  <outline>
    <contour>
      <point x="823" y="577" type="line"/>
      <point x="975" y="577" type="line"/>
      <point x="943" y="625" type="line"/>
      <point x="358" y="625" type="line"/>
      <point x="390" y="577" type="line"/>
      <point x="474" y="577" type="line"/>
      <point x="524" y="550"/>
      <point x="553" y="509"/>
      <point x="553" y="477" type="curve" smooth="yes"/>
      <point x="553" y="449"/>
      <point x="527" y="413"/>
      <point x="403" y="351" type="curve" smooth="yes"/>
      <point x="391" y="345"/>
      <point x="385" y="339"/>
      <point x="385" y="327" type="curve" smooth="yes"/>
      <point x="385" y="240"/>
      <point x="501" y="126"/>
      <point x="605" y="126" type="curve" smooth="yes"/>
      <point x="667" y="126"/>
      <point x="719" y="156"/>
      <point x="768" y="216" type="curve"/>
      <point x="767" y="-6" type="line"/>
      <point x="823" y="-50" type="line"/>
    </contour>
    <contour>
      <point x="583" y="173" type="curve"/>
      <point x="526" y="173"/>
      <point x="442" y="225"/>
      <point x="442" y="286" type="curve" smooth="yes"/>
      <point x="442" y="313"/>
      <point x="465" y="325"/>
      <point x="479" y="335" type="curve"/>
      <point x="533" y="370"/>
      <point x="603" y="403"/>
      <point x="603" y="458" type="curve" smooth="yes"/>
      <point x="603" y="484"/>
      <point x="587" y="540"/>
      <point x="528" y="577" type="curve"/>
      <point x="767" y="577" type="line"/>
      <point x="767" y="296" type="line"/>
      <point x="739" y="241"/>
      <point x="677" y="173"/>
    </contour>
    <contour>
      <point x="125" y="473" type="curve"/>
      <point x="125" y="522"/>
      <point x="164" y="564"/>
      <point x="217" y="577" type="curve"/>
      <point x="270" y="577" type="line"/>
      <point x="238" y="625" type="line"/>
      <point x="-52" y="625" type="line"/>
      <point x="-20" y="577" type="line"/>
      <point x="3" y="577" type="line"/>
      <point x="126" y="578" type="line"/>
      <point x="104" y="565"/>
      <point x="72" y="535"/>
      <point x="72" y="485" type="curve" smooth="yes"/>
      <point x="72" y="434"/>
      <point x="116" y="390"/>
      <point x="152" y="366" type="curve"/>
      <point x="110" y="351"/>
      <point x="76" y="319"/>
      <point x="76" y="268" type="curve" smooth="yes"/>
      <point x="76" y="168"/>
      <point x="182" y="76"/>
      <point x="291" y="82" type="curve"/>
      <point x="194" y="0" type="line" smooth="yes"/>
      <point x="183" y="-10"/>
      <point x="172" y="-20"/>
      <point x="172" y="-35" type="curve" smooth="yes"/>
      <point x="172" y="-77"/>
      <point x="251" y="-93"/>
      <point x="288" y="-93" type="curve" smooth="yes"/>
      <point x="312" y="-93"/>
      <point x="335" y="-85"/>
      <point x="335" y="-67" type="curve" smooth="yes"/>
      <point x="335" y="-61"/>
      <point x="330" y="-54"/>
      <point x="323" y="-46" type="curve" smooth="yes"/>
      <point x="276" y="5" type="line"/>
      <point x="488" y="205" type="line"/>
      <point x="453" y="238" type="line"/>
      <point x="421" y="197"/>
      <point x="349" y="128"/>
      <point x="263" y="128" type="curve" smooth="yes"/>
      <point x="181" y="128"/>
      <point x="128" y="173"/>
      <point x="128" y="242" type="curve" smooth="yes"/>
      <point x="128" y="307"/>
      <point x="190" y="327"/>
      <point x="249" y="327" type="curve" smooth="yes"/>
      <point x="273" y="327"/>
      <point x="298" y="323"/>
      <point x="314" y="321" type="curve"/>
      <point x="296" y="373" type="line"/>
      <point x="273" y="377"/>
      <point x="249" y="379"/>
      <point x="225" y="379" type="curve" smooth="yes"/>
      <point x="213" y="379"/>
      <point x="201" y="378"/>
      <point x="189" y="376" type="curve"/>
      <point x="159" y="398"/>
      <point x="126" y="429"/>
    </contour>
    <contour>
      <point x="389" y="577" type="line"/>
      <point x="463" y="577" type="line"/>
      <point x="431" y="625" type="line"/>
      <point x="357" y="625" type="line"/>
    </contour>
  </outline>
</glyph>
<glyph name="dvDH_VA" format="1">
  <advance width="923"/>
  <outline>
    <contour>
      <point x="823" y="577" type="line"/>
      <point x="975" y="577" type="line"/>
      <point x="943" y="625" type="line"/>
      <point x="343" y="625" type="line"/>
      <point x="376" y="577" type="line"/>
      <point x="767" y="577" type="line"/>
      <point x="767" y="271" type="line"/>
      <point x="702" y="187"/>
      <point x="634" y="151"/>
      <point x="590" y="151" type="curve" smooth="yes"/>
      <point x="501" y="151"/>
      <point x="455" y="221"/>
      <point x="455" y="286" type="curve" smooth="yes"/>
      <point x="455" y="358"/>
      <point x="505" y="434"/>
      <point x="601" y="434" type="curve" smooth="yes"/>
      <point x="651" y="434"/>
      <point x="684" y="408"/>
      <point x="702" y="387" type="curve"/>
      <point x="721" y="415" type="line"/>
      <point x="697" y="438"/>
      <point x="652" y="482"/>
      <point x="578" y="482" type="curve" smooth="yes"/>
      <point x="490" y="482"/>
      <point x="407" y="415"/>
      <point x="407" y="305" type="curve" smooth="yes"/>
      <point x="407" y="195"/>
      <point x="510" y="107"/>
      <point x="613" y="107" type="curve" smooth="yes"/>
      <point x="666" y="107"/>
      <point x="733" y="149"/>
      <point x="771" y="194" type="curve"/>
      <point x="768" y="7" type="line"/>
      <point x="823" y="-50" type="line"/>
    </contour>
    <contour>
      <point x="125" y="473" type="curve"/>
      <point x="125" y="522"/>
      <point x="164" y="564"/>
      <point x="217" y="577" type="curve"/>
      <point x="270" y="577" type="line"/>
      <point x="238" y="625" type="line"/>
      <point x="-52" y="625" type="line"/>
      <point x="-20" y="577" type="line"/>
      <point x="3" y="577" type="line"/>
      <point x="126" y="578" type="line"/>
      <point x="104" y="565"/>
      <point x="72" y="535"/>
      <point x="72" y="485" type="curve" smooth="yes"/>
      <point x="72" y="434"/>
      <point x="116" y="390"/>
      <point x="152" y="366" type="curve"/>
      <point x="110" y="351"/>
      <point x="76" y="319"/>
      <point x="76" y="268" type="curve" smooth="yes"/>
      <point x="76" y="167"/>
      <point x="183" y="78"/>
      <point x="291" y="78" type="curve" smooth="yes"/>
      <point x="353" y="78"/>
      <point x="430" y="131"/>
      <point x="473" y="190" type="curve"/>
      <point x="440" y="229" type="line"/>
      <point x="410" y="187"/>
      <point x="348" y="128"/>
      <point x="263" y="128" type="curve" smooth="yes"/>
      <point x="181" y="128"/>
      <point x="128" y="173"/>
      <point x="128" y="242" type="curve" smooth="yes"/>
      <point x="128" y="307"/>
      <point x="190" y="327"/>
      <point x="249" y="327" type="curve" smooth="yes"/>
      <point x="273" y="327"/>
      <point x="298" y="323"/>
      <point x="314" y="321" type="curve"/>
      <point x="296" y="373" type="line"/>
      <point x="273" y="377"/>
      <point x="249" y="379"/>
      <point x="225" y="379" type="curve" smooth="yes"/>
      <point x="213" y="379"/>
      <point x="201" y="378"/>
      <point x="189" y="376" type="curve"/>
      <point x="159" y="398"/>
      <point x="126" y="429"/>
    </contour>
  </outline>
</glyph>
<glyph name="dvDH_YA" format="1">
  <advance width="917"/>
  <outline>
    <contour>
      <point x="817" y="577" type="line"/>
      <point x="969" y="577" type="line"/>
      <point x="937" y="625" type="line"/>
      <point x="342" y="625" type="line"/>
      <point x="374" y="577" type="line"/>
      <point x="468" y="577" type="line"/>
      <point x="518" y="550"/>
      <point x="547" y="509"/>
      <point x="547" y="477" type="curve" smooth="yes"/>
      <point x="547" y="449"/>
      <point x="521" y="413"/>
      <point x="397" y="351" type="curve" smooth="yes"/>
      <point x="385" y="345"/>
      <point x="379" y="339"/>
      <point x="379" y="327" type="curve" smooth="yes"/>
      <point x="379" y="240"/>
      <point x="495" y="126"/>
      <point x="599" y="126" type="curve" smooth="yes"/>
      <point x="661" y="126"/>
      <point x="713" y="156"/>
      <point x="762" y="216" type="curve"/>
      <point x="761" y="-6" type="line"/>
      <point x="817" y="-50" type="line"/>
    </contour>
    <contour>
      <point x="577" y="173" type="curve"/>
      <point x="520" y="173"/>
      <point x="436" y="225"/>
      <point x="436" y="286" type="curve" smooth="yes"/>
      <point x="436" y="313"/>
      <point x="459" y="325"/>
      <point x="473" y="335" type="curve"/>
      <point x="527" y="370"/>
      <point x="597" y="403"/>
      <point x="597" y="458" type="curve" smooth="yes"/>
      <point x="597" y="484"/>
      <point x="581" y="540"/>
      <point x="522" y="577" type="curve"/>
      <point x="761" y="577" type="line"/>
      <point x="761" y="296" type="line"/>
      <point x="733" y="241"/>
      <point x="671" y="173"/>
    </contour>
    <contour>
      <point x="125" y="473" type="curve"/>
      <point x="125" y="522"/>
      <point x="164" y="564"/>
      <point x="217" y="577" type="curve"/>
      <point x="270" y="577" type="line"/>
      <point x="238" y="625" type="line"/>
      <point x="-52" y="625" type="line"/>
      <point x="-20" y="577" type="line"/>
      <point x="3" y="577" type="line"/>
      <point x="126" y="578" type="line"/>
      <point x="104" y="565"/>
      <point x="72" y="535"/>
      <point x="72" y="485" type="curve" smooth="yes"/>
      <point x="72" y="434"/>
      <point x="116" y="390"/>
      <point x="152" y="366" type="curve"/>
      <point x="110" y="351"/>
      <point x="76" y="319"/>
      <point x="76" y="268" type="curve" smooth="yes"/>
      <point x="76" y="167"/>
      <point x="183" y="78"/>
      <point x="291" y="78" type="curve" smooth="yes"/>
      <point x="353" y="78"/>
      <point x="430" y="131"/>
      <point x="473" y="190" type="curve"/>
      <point x="440" y="229" type="line"/>
      <point x="410" y="187"/>
      <point x="348" y="128"/>
      <point x="263" y="128" type="curve" smooth="yes"/>
      <point x="181" y="128"/>
      <point x="128" y="173"/>
      <point x="128" y="242" type="curve" smooth="yes"/>
      <point x="128" y="307"/>
      <point x="190" y="327"/>
      <point x="249" y="327" type="curve" smooth="yes"/>
      <point x="273" y="327"/>
      <point x="298" y="323"/>
      <point x="314" y="321" type="curve"/>
      <point x="296" y="373" type="line"/>
      <point x="273" y="377"/>
      <point x="249" y="379"/>
      <point x="225" y="379" type="curve" smooth="yes"/>
      <point x="213" y="379"/>
      <point x="201" y="378"/>
      <point x="189" y="376" type="curve"/>
      <point x="159" y="398"/>
      <point x="126" y="429"/>
    </contour>
  </outline>
</glyph>
<glyph name="dvD_BHA" format="1">
  <advance width="627"/>
  <outline>
    <contour>
      <point x="496" y="390" type="line"/>
      <point x="496" y="577" type="line"/>
      <point x="679" y="577" type="line"/>
      <point x="647" y="625" type="line"/>
      <point x="-52" y="625" type="line"/>
      <point x="-20" y="577" type="line"/>
      <point x="440" y="577" type="line"/>
      <point x="440" y="440" type="line"/>
      <point x="328" y="440" type="line" smooth="yes"/>
      <point x="208" y="440"/>
      <point x="142" y="362"/>
      <point x="142" y="270" type="curve" smooth="yes"/>
      <point x="142" y="204"/>
      <point x="179" y="137"/>
      <point x="229" y="93" type="curve" smooth="yes"/>
      <point x="265" y="60"/>
      <point x="313" y="33"/>
      <point x="360" y="36" type="curve"/>
      <point x="224" y="-64" type="line"/>
      <point x="144" y="48" type="line" smooth="yes"/>
      <point x="116" y="86"/>
      <point x="87" y="100"/>
      <point x="42" y="106" type="curve" smooth="yes"/>
      <point x="4" y="111"/>
      <point x="-1" y="111"/>
      <point x="-6" y="111" type="curve" smooth="yes"/>
      <point x="-39" y="111"/>
      <point x="-63" y="99"/>
      <point x="-87" y="82" type="curve" smooth="yes"/>
      <point x="-142" y="42" type="line"/>
      <point x="-88" y="22" type="line"/>
      <point x="-33" y="62" type="line" smooth="yes"/>
      <point x="10" y="93"/>
      <point x="54" y="76"/>
      <point x="84" y="35" type="curve" smooth="yes"/>
      <point x="179" y="-96" type="line"/>
      <point x="147" y="-120"/>
      <point x="136" y="-133"/>
      <point x="136" y="-146" type="curve" smooth="yes"/>
      <point x="136" y="-184"/>
      <point x="203" y="-207"/>
      <point x="253" y="-207" type="curve" smooth="yes"/>
      <point x="269" y="-207"/>
      <point x="304" y="-204"/>
      <point x="304" y="-184" type="curve" smooth="yes"/>
      <point x="304" y="-166"/>
      <point x="263" y="-117"/>
      <point x="255" y="-106" type="curve"/>
      <point x="481" y="60" type="line"/>
      <point x="577" y="-70" type="line"/>
      <point x="613" y="-43" type="line"/>
      <point x="508" y="80" type="line"/>
      <point x="535" y="102"/>
      <point x="553" y="129"/>
      <point x="553" y="151" type="curve" smooth="yes"/>
      <point x="553" y="184"/>
      <point x="518" y="238"/>
      <point x="482" y="238" type="curve" smooth="yes"/>
      <point x="449" y="238"/>
      <point x="415" y="213"/>
      <point x="415" y="182" type="curve" smooth="yes"/>
      <point x="415" y="160"/>
      <point x="430" y="132"/>
      <point x="447" y="107" type="curve"/>
      <point x="447" y="107"/>
      <point x="420" y="76"/>
      <point x="353" y="76" type="curve" smooth="yes"/>
      <point x="275" y="76"/>
      <point x="192" y="153"/>
      <point x="192" y="239" type="curve" smooth="yes"/>
      <point x="192" y="350"/>
      <point x="259" y="390"/>
      <point x="366" y="390" type="curve" smooth="yes"/>
    </contour>
  </outline>
</glyph>
<glyph name="dvD_DA" format="1">
  <advance width="537"/>
  <outline>
    <contour>
      <point x="476" y="94" type="curve" smooth="yes"/>
      <point x="476" y="127"/>
      <point x="441" y="181"/>
      <point x="405" y="181" type="curve" smooth="yes"/>
      <point x="372" y="181"/>
      <point x="338" y="156"/>
      <point x="338" y="125" type="curve" smooth="yes"/>
      <point x="338" y="103"/>
      <point x="353" y="75"/>
      <point x="370" y="50" type="curve"/>
      <point x="337" y="30"/>
      <point x="297" y="20"/>
      <point x="256" y="20" type="curve" smooth="yes"/>
      <point x="176" y="20"/>
      <point x="122" y="60"/>
      <point x="122" y="124" type="curve" smooth="yes"/>
      <point x="122" y="229"/>
      <point x="299" y="248"/>
      <point x="360" y="254" type="curve"/>
      <point x="334" y="299" type="line"/>
      <point x="284" y="295"/>
      <point x="223" y="282"/>
      <point x="178" y="266" type="curve"/>
      <point x="157" y="280"/>
      <point x="112" y="336"/>
      <point x="112" y="378" type="curve" smooth="yes"/>
      <point x="112" y="431"/>
      <point x="160" y="447"/>
      <point x="193" y="447" type="curve" smooth="yes"/>
      <point x="377" y="447" type="line"/>
      <point x="377" y="577" type="line"/>
      <point x="539" y="577" type="line"/>
      <point x="507" y="625" type="line"/>
      <point x="-52" y="625" type="line"/>
      <point x="-20" y="577" type="line"/>
      <point x="321" y="577" type="line"/>
      <point x="321" y="490" type="line"/>
      <point x="178" y="490" type="line" smooth="yes"/>
      <point x="123" y="490"/>
      <point x="59" y="461"/>
      <point x="59" y="395" type="curve" smooth="yes"/>
      <point x="59" y="344"/>
      <point x="106" y="283"/>
      <point x="147" y="252" type="curve"/>
      <point x="115" y="235"/>
      <point x="73" y="199"/>
      <point x="73" y="144" type="curve" smooth="yes"/>
      <point x="73" y="61"/>
      <point x="159" y="-24"/>
      <point x="275" y="-24" type="curve" smooth="yes"/>
      <point x="316" y="-24"/>
      <point x="366" y="-13"/>
      <point x="407" y="7" type="curve"/>
      <point x="515" y="-143" type="line"/>
      <point x="554" y="-114" type="line"/>
      <point x="435" y="24" type="line"/>
      <point x="459" y="43"/>
      <point x="476" y="66"/>
    </contour>
  </outline>
</glyph>
<glyph name="dvD_G_RA" format="1">
  <advance width="521"/>
  <outline>
    <contour>
      <point x="358" y="-35" type="line"/>
      <point x="103" y="-264" type="line"/>
      <point x="146" y="-294" type="line"/>
      <point x="388" y="-63" type="line"/>
    </contour>
    <contour>
      <point x="488" y="1" type="line"/>
      <point x="524" y="28" type="line"/>
      <point x="419" y="151" type="line"/>
      <point x="446" y="173"/>
      <point x="464" y="200"/>
      <point x="464" y="222" type="curve" smooth="yes"/>
      <point x="464" y="255"/>
      <point x="429" y="309"/>
      <point x="393" y="309" type="curve" smooth="yes"/>
      <point x="360" y="309"/>
      <point x="326" y="284"/>
      <point x="326" y="253" type="curve" smooth="yes"/>
      <point x="326" y="231"/>
      <point x="341" y="203"/>
      <point x="358" y="178" type="curve"/>
      <point x="358" y="178"/>
      <point x="331" y="147"/>
      <point x="264" y="147" type="curve" smooth="yes"/>
      <point x="185" y="147"/>
      <point x="103" y="207"/>
      <point x="103" y="300" type="curve" smooth="yes"/>
      <point x="103" y="411"/>
      <point x="174" y="441"/>
      <point x="281" y="441" type="curve" smooth="yes"/>
      <point x="407" y="441" type="line"/>
      <point x="407" y="577" type="line"/>
      <point x="581" y="577" type="line"/>
      <point x="549" y="625" type="line"/>
      <point x="-62" y="625" type="line"/>
      <point x="-30" y="577" type="line"/>
      <point x="351" y="577" type="line"/>
      <point x="351" y="491" type="line"/>
      <point x="243" y="491" type="line" smooth="yes"/>
      <point x="123" y="491"/>
      <point x="53" y="423"/>
      <point x="53" y="331" type="curve" smooth="yes"/>
      <point x="53" y="270"/>
      <point x="78" y="217"/>
      <point x="117" y="177" type="curve"/>
      <point x="117" y="23" type="line"/>
      <point x="90" y="23"/>
      <point x="51" y="22"/>
      <point x="51" y="-2" type="curve" smooth="yes"/>
      <point x="51" y="-41"/>
      <point x="113" y="-113"/>
      <point x="150" y="-113" type="curve" smooth="yes"/>
      <point x="170" y="-113"/>
      <point x="173" y="-93"/>
      <point x="173" y="-65" type="curve" smooth="yes"/>
      <point x="173" y="133" type="line"/>
      <point x="208" y="113"/>
      <point x="248" y="101"/>
      <point x="286" y="101" type="curve" smooth="yes"/>
      <point x="296" y="101"/>
      <point x="317" y="102"/>
      <point x="342" y="110" type="curve"/>
      <point x="337" y="54"/>
      <point x="337" y="-242"/>
      <point x="337" y="-242" type="curve"/>
      <point x="393" y="-287" type="line"/>
      <point x="393" y="131" type="line"/>
    </contour>
  </outline>
</glyph>
<glyph name="dvD_NA" format="1">
  <advance width="544"/>
  <outline>
    <contour>
      <point x="413" y="390" type="line"/>
      <point x="413" y="577" type="line"/>
      <point x="596" y="577" type="line"/>
      <point x="564" y="625" type="line"/>
      <point x="-52" y="625" type="line"/>
      <point x="-20" y="577" type="line"/>
      <point x="357" y="577" type="line"/>
      <point x="357" y="440" type="line"/>
      <point x="245" y="440" type="line" smooth="yes"/>
      <point x="125" y="440"/>
      <point x="59" y="362"/>
      <point x="59" y="270" type="curve" smooth="yes"/>
      <point x="59" y="204"/>
      <point x="96" y="137"/>
      <point x="146" y="93" type="curve" smooth="yes"/>
      <point x="178" y="64"/>
      <point x="219" y="39"/>
      <point x="259" y="36" type="curve"/>
      <point x="152" y="-19" type="line" smooth="yes"/>
      <point x="136" y="-27"/>
      <point x="122" y="-38"/>
      <point x="122" y="-56" type="curve" smooth="yes"/>
      <point x="122" y="-100"/>
      <point x="207" y="-134"/>
      <point x="242" y="-134" type="curve" smooth="yes"/>
      <point x="257" y="-134"/>
      <point x="273" y="-127"/>
      <point x="273" y="-112" type="curve" smooth="yes"/>
      <point x="273" y="-108"/>
      <point x="273" y="-105"/>
      <point x="267" y="-93" type="curve" smooth="yes"/>
      <point x="262" y="-82"/>
      <point x="252" y="-64"/>
      <point x="233" y="-33" type="curve"/>
      <point x="398" y="61" type="line"/>
      <point x="494" y="-70" type="line"/>
      <point x="530" y="-43" type="line"/>
      <point x="425" y="80" type="line"/>
      <point x="452" y="102"/>
      <point x="470" y="129"/>
      <point x="470" y="151" type="curve" smooth="yes"/>
      <point x="470" y="184"/>
      <point x="435" y="238"/>
      <point x="399" y="238" type="curve" smooth="yes"/>
      <point x="366" y="238"/>
      <point x="332" y="213"/>
      <point x="332" y="182" type="curve" smooth="yes"/>
      <point x="332" y="160"/>
      <point x="347" y="132"/>
      <point x="364" y="107" type="curve"/>
      <point x="364" y="107"/>
      <point x="337" y="76"/>
      <point x="270" y="76" type="curve" smooth="yes"/>
      <point x="192" y="76"/>
      <point x="109" y="153"/>
      <point x="109" y="239" type="curve" smooth="yes"/>
      <point x="109" y="350"/>
      <point x="176" y="390"/>
      <point x="283" y="390" type="curve" smooth="yes"/>
    </contour>
  </outline>
</glyph>
<glyph name="dvD_Y_RA" format="1">
  <advance width="611"/>
  <outline>
    <contour>
      <point x="59" y="405" type="curve" smooth="yes"/>
      <point x="59" y="354"/>
      <point x="100" y="313"/>
      <point x="138" y="289" type="curve"/>
      <point x="98" y="274"/>
      <point x="70" y="246"/>
      <point x="70" y="198" type="curve" smooth="yes"/>
      <point x="70" y="96"/>
      <point x="187" y="21"/>
      <point x="296" y="43" type="curve"/>
      <point x="187" y="-54" type="line"/>
      <point x="230" y="-84" type="line"/>
      <point x="458" y="131" type="line"/>
      <point x="455" y="-9" type="line"/>
      <point x="511" y="-50" type="line"/>
      <point x="511" y="577" type="line"/>
      <point x="664" y="577" type="line"/>
      <point x="632" y="625" type="line"/>
      <point x="-52" y="625" type="line"/>
      <point x="-20" y="577" type="line"/>
      <point x="261" y="577" type="line"/>
      <point x="261" y="490" type="line"/>
      <point x="178" y="490" type="line" smooth="yes"/>
      <point x="123" y="490"/>
      <point x="59" y="471"/>
    </contour>
    <contour>
      <point x="455" y="577" type="line"/>
      <point x="455" y="202" type="line"/>
      <point x="424" y="159"/>
      <point x="329" y="80"/>
      <point x="242" y="80" type="curve" smooth="yes"/>
      <point x="190" y="80"/>
      <point x="122" y="106"/>
      <point x="122" y="172" type="curve" smooth="yes"/>
      <point x="122" y="240"/>
      <point x="187" y="257"/>
      <point x="246" y="257" type="curve" smooth="yes"/>
      <point x="280" y="257"/>
      <point x="312" y="251"/>
      <point x="329" y="247" type="curve"/>
      <point x="311" y="298" type="line"/>
      <point x="287" y="301"/>
      <point x="259" y="304"/>
      <point x="233" y="304" type="curve" smooth="yes"/>
      <point x="213" y="304"/>
      <point x="194" y="302"/>
      <point x="175" y="299" type="curve"/>
      <point x="154" y="313"/>
      <point x="112" y="346"/>
      <point x="112" y="388" type="curve" smooth="yes"/>
      <point x="112" y="441"/>
      <point x="160" y="447"/>
      <point x="193" y="447" type="curve" smooth="yes"/>
      <point x="317" y="447" type="line"/>
      <point x="317" y="577" type="line"/>
    </contour>
  </outline>
</glyph>
<glyph name="dvEyelash_YA" format="1">
  <advance width="803"/>
  <outline>
    <contour>
      <point x="241" y="577" type="line"/>
      <point x="209" y="625" type="line"/>
      <point x="-53" y="625" type="line"/>
      <point x="-20" y="577" type="line"/>
    </contour>
    <contour>
      <point x="-42" y="315" type="line"/>
      <point x="25" y="259"/>
      <point x="90" y="235"/>
      <point x="152" y="235" type="curve" smooth="yes"/>
      <point x="208" y="235"/>
      <point x="261" y="254"/>
      <point x="314" y="287" type="curve"/>
      <point x="286" y="332" type="line"/>
      <point x="228" y="300"/>
      <point x="176" y="281"/>
      <point x="125" y="281" type="curve" smooth="yes"/>
      <point x="76" y="281"/>
      <point x="28" y="299"/>
      <point x="-22" y="339" type="curve"/>
    </contour>
    <component base="dvYA" xOffset="200"/>
  </outline>
</glyph>
<glyph name="dvGH_RA" format="1">
  <advance width="635"/>
  <outline>
    <contour>
      <point x="185" y="-66" type="line"/>
      <point x="228" y="-96" type="line"/>
      <point x="479" y="141" type="line"/>
      <point x="479" y="-9" type="line"/>
      <point x="535" y="-50" type="line"/>
      <point x="535" y="577" type="line"/>
      <point x="687" y="577" type="line"/>
      <point x="655" y="625" type="line"/>
      <point x="-34" y="625" type="line"/>
      <point x="-2" y="577" type="line"/>
      <point x="72" y="577" type="line"/>
      <point x="156" y="579" type="line"/>
      <point x="118" y="558"/>
      <point x="100" y="516"/>
      <point x="100" y="484" type="curve" smooth="yes"/>
      <point x="100" y="442"/>
      <point x="123" y="389"/>
      <point x="177" y="357" type="curve"/>
      <point x="133" y="340"/>
      <point x="101" y="310"/>
      <point x="101" y="258" type="curve" smooth="yes"/>
      <point x="101" y="154"/>
      <point x="223" y="57"/>
      <point x="341" y="66" type="curve"/>
    </contour>
    <contour>
      <point x="303" y="110" type="curve" smooth="yes"/>
      <point x="229" y="110"/>
      <point x="151" y="161"/>
      <point x="151" y="232" type="curve" smooth="yes"/>
      <point x="151" y="307"/>
      <point x="223" y="323"/>
      <point x="287" y="323" type="curve" smooth="yes"/>
      <point x="316" y="323"/>
      <point x="342" y="320"/>
      <point x="360" y="317" type="curve"/>
      <point x="342" y="368" type="line"/>
      <point x="322" y="371"/>
      <point x="301" y="373"/>
      <point x="279" y="373" type="curve" smooth="yes"/>
      <point x="256" y="373"/>
      <point x="233" y="371"/>
      <point x="211" y="366" type="curve"/>
      <point x="176" y="395"/>
      <point x="150" y="428"/>
      <point x="150" y="466" type="curve" smooth="yes"/>
      <point x="150" y="525"/>
      <point x="197" y="566"/>
      <point x="240" y="577" type="curve"/>
      <point x="479" y="577" type="line"/>
      <point x="479" y="207" type="line"/>
      <point x="442" y="165"/>
      <point x="383" y="110"/>
    </contour>
  </outline>
</glyph>
<glyph name="dvG" format="1">
  <advance width="291"/>
  <outline>
    <contour>
      <point x="311" y="625" type="line"/>
      <point x="-52" y="625" type="line"/>
      <point x="-20" y="577" type="line"/>
      <point x="130" y="577" type="line"/>
      <point x="130" y="334" type="line"/>
      <point x="103" y="334"/>
      <point x="64" y="333"/>
      <point x="64" y="309" type="curve" smooth="yes"/>
      <point x="64" y="270"/>
      <point x="126" y="198"/>
      <point x="163" y="198" type="curve" smooth="yes"/>
      <point x="183" y="198"/>
      <point x="186" y="218"/>
      <point x="186" y="246" type="curve" smooth="yes"/>
      <point x="186" y="577" type="line"/>
      <point x="343" y="577" type="line"/>
    </contour>
  </outline>
</glyph>
<glyph name="dvG_DA" format="1">
  <advance width="825"/>
  <outline>
    <contour>
      <point x="674" y="-6" type="move" name="blwm.virama"/>
    </contour>
    <contour>
      <point x="695" y="625" type="move" name="abvm"/>
    </contour>
    <contour>
      <point x="674" y="-104" type="move" name="blwm.u"/>
    </contour>
    <component base="dvG"/>
    <component base="dvDA" xOffset="282"/>
  </outline>
</glyph>
<glyph name="dvG_DH_YA" format="1">
  <advance width="1236"/>
  <outline>
    <contour>
      <point x="1136" y="577" type="line"/>
      <point x="1288" y="577" type="line"/>
      <point x="1256" y="625" type="line"/>
      <point x="664" y="625" type="line"/>
      <point x="696" y="577" type="line"/>
      <point x="787" y="577" type="line"/>
      <point x="837" y="550"/>
      <point x="866" y="509"/>
      <point x="866" y="477" type="curve" smooth="yes"/>
      <point x="866" y="449"/>
      <point x="840" y="413"/>
      <point x="716" y="351" type="curve" smooth="yes"/>
      <point x="704" y="345"/>
      <point x="698" y="339"/>
      <point x="698" y="327" type="curve" smooth="yes"/>
      <point x="698" y="240"/>
      <point x="814" y="126"/>
      <point x="918" y="126" type="curve" smooth="yes"/>
      <point x="980" y="126"/>
      <point x="1032" y="156"/>
      <point x="1081" y="216" type="curve"/>
      <point x="1080" y="-6" type="line"/>
      <point x="1136" y="-50" type="line"/>
    </contour>
    <contour>
      <point x="896" y="173" type="curve"/>
      <point x="839" y="173"/>
      <point x="755" y="225"/>
      <point x="755" y="286" type="curve" smooth="yes"/>
      <point x="755" y="313"/>
      <point x="778" y="325"/>
      <point x="792" y="335" type="curve"/>
      <point x="846" y="370"/>
      <point x="916" y="403"/>
      <point x="916" y="458" type="curve" smooth="yes"/>
      <point x="916" y="484"/>
      <point x="900" y="540"/>
      <point x="841" y="577" type="curve"/>
      <point x="1080" y="577" type="line"/>
      <point x="1080" y="296" type="line"/>
      <point x="1052" y="241"/>
      <point x="990" y="173"/>
    </contour>
    <component base="dvDH" xOffset="310"/>
    <component base="dvG"/>
  </outline>
</glyph>
<glyph name="dvG_NA" format="1">
  <advance width="536"/>
  <outline>
    <contour>
      <point x="436" y="577" type="line"/>
      <point x="588" y="577" type="line"/>
      <point x="556" y="625" type="line"/>
      <point x="-52" y="625" type="line"/>
      <point x="-20" y="577" type="line"/>
      <point x="130" y="577" type="line"/>
      <point x="130" y="334" type="line"/>
      <point x="103" y="334"/>
      <point x="64" y="333"/>
      <point x="64" y="309" type="curve" smooth="yes"/>
      <point x="64" y="270"/>
      <point x="126" y="198"/>
      <point x="163" y="198" type="curve" smooth="yes"/>
      <point x="183" y="198"/>
      <point x="186" y="218"/>
      <point x="186" y="246" type="curve" smooth="yes"/>
      <point x="186" y="577" type="line"/>
      <point x="380" y="577" type="line"/>
      <point x="380" y="255" type="line"/>
      <point x="122" y="28" type="line" smooth="yes"/>
      <point x="111" y="18"/>
      <point x="100" y="8"/>
      <point x="100" y="-7" type="curve" smooth="yes"/>
      <point x="100" y="-49"/>
      <point x="179" y="-65"/>
      <point x="216" y="-65" type="curve" smooth="yes"/>
      <point x="240" y="-65"/>
      <point x="263" y="-57"/>
      <point x="263" y="-39" type="curve" smooth="yes"/>
      <point x="263" y="-33"/>
      <point x="258" y="-26"/>
      <point x="251" y="-18" type="curve" smooth="yes"/>
      <point x="204" y="33" type="line"/>
      <point x="380" y="199" type="line"/>
      <point x="380" y="-5" type="line"/>
      <point x="436" y="-50" type="line"/>
    </contour>
  </outline>
</glyph>
<glyph name="dvG_R" format="1">
  <advance width="291"/>
  <outline>
    <contour>
      <point x="311" y="625" type="line"/>
      <point x="-52" y="625" type="line"/>
      <point x="-20" y="577" type="line"/>
      <point x="130" y="577" type="line"/>
      <point x="130" y="334" type="line"/>
      <point x="103" y="334"/>
      <point x="64" y="333"/>
      <point x="64" y="309" type="curve" smooth="yes"/>
      <point x="64" y="270"/>
      <point x="126" y="198"/>
      <point x="163" y="198" type="curve" smooth="yes"/>
      <point x="183" y="198"/>
      <point x="186" y="218"/>
      <point x="186" y="246" type="curve" smooth="yes"/>
      <point x="186" y="577" type="line"/>
      <point x="343" y="577" type="line"/>
    </contour>
    <contour>
      <point x="386" y="261" type="line"/>
      <point x="80" y="-13" type="line"/>
      <point x="123" y="-43" type="line"/>
      <point x="416" y="233" type="line"/>
    </contour>
  </outline>
</glyph>
<glyph name="dvH_LA" format="1">
  <advance width="535"/>
  <outline>
    <contour>
      <point x="302" y="-35" type="line"/>
      <point x="260" y="-5"/>
      <point x="229" y="34"/>
      <point x="229" y="80" type="curve" smooth="yes"/>
      <point x="229" y="116"/>
      <point x="253" y="133"/>
      <point x="280" y="133" type="curve" smooth="yes"/>
      <point x="301" y="133"/>
      <point x="314" y="125"/>
      <point x="321" y="117" type="curve"/>
      <point x="317" y="104"/>
      <point x="317" y="100"/>
      <point x="317" y="86" type="curve" smooth="yes"/>
      <point x="317" y="72"/>
      <point x="319" y="58"/>
      <point x="323" y="47" type="curve"/>
      <point x="358" y="30" type="line"/>
      <point x="355" y="43"/>
      <point x="353" y="58"/>
      <point x="353" y="72" type="curve" smooth="yes"/>
      <point x="353" y="104"/>
      <point x="364" y="135"/>
      <point x="404" y="135" type="curve" smooth="yes"/>
      <point x="409" y="135"/>
      <point x="415" y="135"/>
      <point x="421" y="134" type="curve"/>
      <point x="421" y="1" type="line"/>
      <point x="464" y="-34" type="line"/>
      <point x="464" y="118" type="line" smooth="yes"/>
      <point x="464" y="178"/>
      <point x="383" y="272"/>
      <point x="262" y="272" type="curve" smooth="yes"/>
      <point x="229" y="272"/>
      <point x="197" y="262"/>
      <point x="169" y="246" type="curve"/>
      <point x="151" y="264"/>
      <point x="125" y="294"/>
      <point x="125" y="335" type="curve" smooth="yes"/>
      <point x="125" y="393"/>
      <point x="173" y="396"/>
      <point x="234" y="396" type="curve" smooth="yes"/>
      <point x="409" y="396" type="line"/>
      <point x="409" y="577" type="line"/>
      <point x="591" y="577" type="line"/>
      <point x="559" y="625" type="line"/>
      <point x="-67" y="625" type="line"/>
      <point x="-35" y="577" type="line"/>
      <point x="353" y="577" type="line"/>
      <point x="353" y="446" type="line"/>
      <point x="169" y="446" type="line" smooth="yes"/>
      <point x="104" y="446"/>
      <point x="67" y="415"/>
      <point x="67" y="364" type="curve" smooth="yes"/>
      <point x="67" y="326"/>
      <point x="85" y="280"/>
      <point x="142" y="228" type="curve"/>
      <point x="104" y="196"/>
      <point x="78" y="150"/>
      <point x="78" y="100" type="curve" smooth="yes"/>
      <point x="78" y="-35"/>
      <point x="273" y="-135"/>
      <point x="331" y="-171" type="curve"/>
      <point x="363" y="-150" type="line"/>
      <point x="304" y="-116"/>
      <point x="127" y="-29"/>
      <point x="127" y="82" type="curve" smooth="yes"/>
      <point x="127" y="164"/>
      <point x="203" y="225"/>
      <point x="291" y="225" type="curve" smooth="yes"/>
      <point x="352" y="225"/>
      <point x="402" y="193"/>
      <point x="417" y="160" type="curve"/>
      <point x="406" y="165"/>
      <point x="393" y="168"/>
      <point x="381" y="168" type="curve" smooth="yes"/>
      <point x="360" y="168"/>
      <point x="343" y="156"/>
      <point x="334" y="144" type="curve"/>
      <point x="321" y="155"/>
      <point x="303" y="168"/>
      <point x="266" y="168" type="curve" smooth="yes"/>
      <point x="228" y="168"/>
      <point x="192" y="140"/>
      <point x="192" y="94" type="curve" smooth="yes"/>
      <point x="192" y="30"/>
      <point x="241" y="-19"/>
      <point x="282" y="-50" type="curve"/>
    </contour>
  </outline>
</glyph>
<glyph name="dvH_MA" format="1">
  <advance width="732"/>
  <outline>
    <contour>
      <point x="320" y="128" type="line"/>
      <point x="292" y="128"/>
      <point x="273" y="118"/>
      <point x="273" y="93" type="curve" smooth="yes"/>
      <point x="273" y="46"/>
      <point x="339" y="-26"/>
      <point x="378" y="-26" type="curve" smooth="yes"/>
      <point x="390" y="-26"/>
      <point x="398" y="-18"/>
      <point x="398" y="-4" type="curve" smooth="yes"/>
      <point x="398" y="74" type="line"/>
      <point x="576" y="74" type="line"/>
      <point x="576" y="-127" type="line"/>
      <point x="632" y="-171" type="line"/>
      <point x="632" y="577" type="line"/>
      <point x="784" y="577" type="line"/>
      <point x="752" y="625" type="line"/>
      <point x="-67" y="625" type="line"/>
      <point x="-35" y="577" type="line"/>
      <point x="313" y="577" type="line"/>
      <point x="313" y="446" type="line"/>
      <point x="169" y="446" type="line" smooth="yes"/>
      <point x="104" y="446"/>
      <point x="67" y="415"/>
      <point x="67" y="364" type="curve" smooth="yes"/>
      <point x="67" y="327"/>
      <point x="83" y="284"/>
      <point x="135" y="235" type="curve"/>
      <point x="99" y="204"/>
      <point x="77" y="157"/>
      <point x="78" y="100" type="curve" smooth="yes"/>
      <point x="81" y="-35"/>
      <point x="270" y="-137"/>
      <point x="331" y="-171" type="curve"/>
      <point x="363" y="-150" type="line"/>
      <point x="304" y="-116"/>
      <point x="127" y="-29"/>
      <point x="127" y="82" type="curve" smooth="yes"/>
      <point x="127" y="164"/>
      <point x="189" y="225"/>
      <point x="271" y="225" type="curve" smooth="yes"/>
      <point x="320" y="225"/>
      <point x="341" y="186"/>
      <point x="341" y="148" type="curve" smooth="yes"/>
      <point x="341" y="128" type="line"/>
    </contour>
    <contour>
      <point x="369" y="577" type="line"/>
      <point x="576" y="577" type="line"/>
      <point x="576" y="128" type="line"/>
      <point x="398" y="128" type="line"/>
      <point x="398" y="143" type="line" smooth="yes"/>
      <point x="398" y="185"/>
      <point x="332" y="272"/>
      <point x="242" y="272" type="curve" smooth="yes"/>
      <point x="213" y="272"/>
      <point x="186" y="265"/>
      <point x="162" y="253" type="curve"/>
      <point x="145" y="271"/>
      <point x="125" y="298"/>
      <point x="125" y="335" type="curve" smooth="yes"/>
      <point x="125" y="393"/>
      <point x="173" y="396"/>
      <point x="234" y="396" type="curve" smooth="yes"/>
      <point x="369" y="396" type="line"/>
    </contour>
  </outline>
</glyph>
<glyph name="dvH_NA" format="1">
  <advance width="535"/>
  <outline>
    <contour>
      <point x="401" y="154" type="curve"/>
      <point x="401" y="1" type="line"/>
      <point x="444" y="-34" type="line"/>
      <point x="444" y="118" type="line" smooth="yes"/>
      <point x="444" y="178"/>
      <point x="362" y="272"/>
      <point x="262" y="272" type="curve" smooth="yes"/>
      <point x="229" y="272"/>
      <point x="197" y="262"/>
      <point x="169" y="246" type="curve"/>
      <point x="151" y="264"/>
      <point x="125" y="294"/>
      <point x="125" y="335" type="curve" smooth="yes"/>
      <point x="125" y="393"/>
      <point x="173" y="396"/>
      <point x="234" y="396" type="curve" smooth="yes"/>
      <point x="409" y="396" type="line"/>
      <point x="409" y="577" type="line"/>
      <point x="591" y="577" type="line"/>
      <point x="559" y="625" type="line"/>
      <point x="-67" y="625" type="line"/>
      <point x="-35" y="577" type="line"/>
      <point x="353" y="577" type="line"/>
      <point x="353" y="446" type="line"/>
      <point x="169" y="446" type="line" smooth="yes"/>
      <point x="104" y="446"/>
      <point x="67" y="415"/>
      <point x="67" y="364" type="curve" smooth="yes"/>
      <point x="67" y="326"/>
      <point x="85" y="280"/>
      <point x="142" y="228" type="curve"/>
      <point x="104" y="196"/>
      <point x="78" y="150"/>
      <point x="78" y="100" type="curve" smooth="yes"/>
      <point x="78" y="-35"/>
      <point x="273" y="-135"/>
      <point x="331" y="-171" type="curve"/>
      <point x="363" y="-150" type="line"/>
      <point x="304" y="-116"/>
      <point x="127" y="-29"/>
      <point x="127" y="82" type="curve" smooth="yes"/>
      <point x="127" y="164"/>
      <point x="203" y="225"/>
      <point x="291" y="225" type="curve" smooth="yes"/>
      <point x="324" y="225"/>
      <point x="378" y="206"/>
    </contour>
    <contour>
      <point x="381" y="193" type="line"/>
      <point x="220" y="80" type="line"/>
      <point x="211" y="73"/>
      <point x="197" y="63"/>
      <point x="197" y="49" type="curve" smooth="yes"/>
      <point x="197" y="18"/>
      <point x="259" y="-10"/>
      <point x="304" y="-10" type="curve" smooth="yes"/>
      <point x="323" y="-10"/>
      <point x="340" y="-4"/>
      <point x="340" y="11" type="curve" smooth="yes"/>
      <point x="340" y="17"/>
      <point x="337" y="22"/>
      <point x="332" y="29" type="curve" smooth="yes"/>
      <point x="294" y="78" type="line"/>
      <point x="425" y="170" type="line"/>
    </contour>
  </outline>
</glyph>
<glyph name="dvH_YA" format="1">
  <advance width="712"/>
  <outline>
    <contour>
      <point x="78" y="100" type="curve" smooth="yes"/>
      <point x="78" y="-35"/>
      <point x="273" y="-135"/>
      <point x="331" y="-171" type="curve"/>
      <point x="363" y="-150" type="line"/>
      <point x="304" y="-116"/>
      <point x="127" y="-29"/>
      <point x="127" y="82" type="curve" smooth="yes"/>
      <point x="127" y="164"/>
      <point x="203" y="225"/>
      <point x="291" y="225" type="curve" smooth="yes"/>
      <point x="339" y="225"/>
      <point x="382" y="205"/>
      <point x="382" y="174" type="curve" smooth="yes"/>
      <point x="382" y="159"/>
      <point x="370" y="143"/>
      <point x="291" y="101" type="curve" smooth="yes"/>
      <point x="281" y="96"/>
      <point x="271" y="87"/>
      <point x="271" y="74" type="curve" smooth="yes"/>
      <point x="271" y="13"/>
      <point x="354" y="-67"/>
      <point x="437" y="-67" type="curve" smooth="yes"/>
      <point x="487" y="-67"/>
      <point x="531" y="-38"/>
      <point x="568" y="-1" type="curve"/>
      <point x="567" y="-171" type="line"/>
      <point x="612" y="-206" type="line"/>
      <point x="612" y="577" type="line"/>
      <point x="764" y="577" type="line"/>
      <point x="732" y="625" type="line"/>
      <point x="-67" y="625" type="line"/>
      <point x="-35" y="577" type="line"/>
      <point x="353" y="577" type="line"/>
      <point x="353" y="446" type="line"/>
      <point x="169" y="446" type="line" smooth="yes"/>
      <point x="104" y="446"/>
      <point x="67" y="415"/>
      <point x="67" y="364" type="curve" smooth="yes"/>
      <point x="67" y="326"/>
      <point x="85" y="280"/>
      <point x="143" y="227" type="curve"/>
      <point x="104" y="196"/>
      <point x="78" y="150"/>
    </contour>
    <contour>
      <point x="125" y="335" type="curve" smooth="yes"/>
      <point x="125" y="393"/>
      <point x="173" y="396"/>
      <point x="234" y="396" type="curve" smooth="yes"/>
      <point x="409" y="396" type="line"/>
      <point x="409" y="577" type="line"/>
      <point x="567" y="577" type="line"/>
      <point x="567" y="69" type="line"/>
      <point x="541" y="24"/>
      <point x="477" y="-27"/>
      <point x="420" y="-27" type="curve" smooth="yes"/>
      <point x="378" y="-27"/>
      <point x="317" y="-2"/>
      <point x="317" y="44" type="curve" smooth="yes"/>
      <point x="317" y="65"/>
      <point x="335" y="75"/>
      <point x="346" y="83" type="curve" smooth="yes"/>
      <point x="378" y="105"/>
      <point x="427" y="122"/>
      <point x="427" y="161" type="curve" smooth="yes"/>
      <point x="427" y="219"/>
      <point x="350" y="272"/>
      <point x="264" y="272" type="curve" smooth="yes"/>
      <point x="231" y="272"/>
      <point x="198" y="262"/>
      <point x="169" y="246" type="curve"/>
      <point x="151" y="263"/>
      <point x="125" y="293"/>
    </contour>
  </outline>
</glyph>
<glyph name="dvJH" format="1">
  <advance width="520"/>
  <outline>
    <contour>
      <point x="571" y="577" type="line"/>
      <point x="540" y="625" type="line"/>
      <point x="-53" y="625" type="line"/>
      <point x="-20" y="577" type="line"/>
      <point x="359" y="577" type="line"/>
      <point x="359" y="471" type="line"/>
      <point x="199" y="471" type="line" smooth="yes"/>
      <point x="127" y="471"/>
      <point x="70" y="424"/>
      <point x="70" y="360" type="curve" smooth="yes"/>
      <point x="70" y="272"/>
      <point x="148" y="197"/>
      <point x="206" y="197" type="curve" smooth="yes"/>
      <point x="257" y="197"/>
      <point x="314" y="234"/>
      <point x="355" y="234" type="curve" smooth="yes"/>
      <point x="393" y="234"/>
      <point x="424" y="206"/>
      <point x="424" y="166" type="curve" smooth="yes"/>
      <point x="424" y="76"/>
      <point x="295" y="33"/>
      <point x="213" y="39" type="curve"/>
      <point x="173" y="92"/>
      <point x="135" y="141"/>
      <point x="112" y="141" type="curve" smooth="yes"/>
      <point x="89" y="141"/>
      <point x="68" y="129"/>
      <point x="68" y="112" type="curve" smooth="yes"/>
      <point x="68" y="68"/>
      <point x="133" y="19"/>
      <point x="199" y="0" type="curve"/>
      <point x="360" y="-187" type="line"/>
      <point x="397" y="-161" type="line"/>
      <point x="247" y="-8" type="line"/>
      <point x="329" y="-8"/>
      <point x="466" y="47"/>
      <point x="466" y="148" type="curve" smooth="yes"/>
      <point x="466" y="173"/>
      <point x="453" y="205"/>
      <point x="431" y="231" type="curve"/>
      <point x="455" y="224"/>
      <point x="479" y="220"/>
      <point x="502" y="220" type="curve" smooth="yes"/>
      <point x="540" y="220"/>
      <point x="584" y="241"/>
      <point x="610" y="263" type="curve"/>
      <point x="582" y="301" type="line"/>
      <point x="550" y="272"/>
      <point x="506" y="259"/>
      <point x="470" y="259" type="curve" smooth="yes"/>
      <point x="432" y="259"/>
      <point x="386" y="275"/>
      <point x="350" y="281" type="curve"/>
      <point x="345" y="281"/>
      <point x="340" y="282"/>
      <point x="336" y="282" type="curve" smooth="yes"/>
      <point x="301" y="282"/>
      <point x="235" y="244"/>
      <point x="188" y="244" type="curve" smooth="yes"/>
      <point x="143" y="244"/>
      <point x="111" y="281"/>
      <point x="111" y="333" type="curve" smooth="yes"/>
      <point x="111" y="395"/>
      <point x="166" y="419"/>
      <point x="214" y="419" type="curve" smooth="yes"/>
      <point x="415" y="419" type="line"/>
      <point x="415" y="577" type="line"/>
    </contour>
  </outline>
</glyph>
<glyph name="dvJH_NA" format="1">
  <advance width="785"/>
  <outline>
    <contour>
      <point x="685" y="-50" type="line"/>
      <point x="685" y="577" type="line"/>
      <point x="836" y="577" type="line"/>
      <point x="805" y="625" type="line"/>
      <point x="-53" y="625" type="line"/>
      <point x="-20" y="577" type="line"/>
      <point x="364" y="577" type="line"/>
      <point x="364" y="471" type="line"/>
      <point x="204" y="471" type="line" smooth="yes"/>
      <point x="132" y="471"/>
      <point x="75" y="424"/>
      <point x="75" y="360" type="curve" smooth="yes"/>
      <point x="75" y="272"/>
      <point x="153" y="197"/>
      <point x="211" y="197" type="curve" smooth="yes"/>
      <point x="262" y="197"/>
      <point x="319" y="234"/>
      <point x="360" y="234" type="curve" smooth="yes"/>
      <point x="398" y="234"/>
      <point x="429" y="206"/>
      <point x="429" y="166" type="curve" smooth="yes"/>
      <point x="429" y="76"/>
      <point x="300" y="33"/>
      <point x="218" y="39" type="curve"/>
      <point x="178" y="92"/>
      <point x="140" y="141"/>
      <point x="117" y="141" type="curve" smooth="yes"/>
      <point x="94" y="141"/>
      <point x="73" y="129"/>
      <point x="73" y="112" type="curve" smooth="yes"/>
      <point x="73" y="68"/>
      <point x="138" y="19"/>
      <point x="204" y="0" type="curve"/>
      <point x="365" y="-187" type="line"/>
      <point x="402" y="-161" type="line"/>
      <point x="252" y="-8" type="line"/>
      <point x="334" y="-8"/>
      <point x="471" y="47"/>
      <point x="471" y="148" type="curve" smooth="yes"/>
      <point x="471" y="173"/>
      <point x="457" y="205"/>
      <point x="436" y="231" type="curve"/>
      <point x="461" y="224"/>
      <point x="487" y="220"/>
      <point x="510" y="220" type="curve" smooth="yes"/>
      <point x="538" y="220"/>
      <point x="577" y="229"/>
      <point x="624" y="267" type="curve"/>
      <point x="462" y="12" type="line" smooth="yes"/>
      <point x="456" y="2"/>
      <point x="450" y="-10"/>
      <point x="450" y="-21" type="curve" smooth="yes"/>
      <point x="450" y="-52"/>
      <point x="489" y="-61"/>
      <point x="524" y="-61" type="curve" smooth="yes"/>
      <point x="548" y="-61"/>
      <point x="615" y="-55"/>
      <point x="615" y="-26" type="curve" smooth="yes"/>
      <point x="615" y="-14"/>
      <point x="607" y="-8"/>
      <point x="598" y="-2" type="curve" smooth="yes"/>
      <point x="540" y="37" type="line"/>
      <point x="630" y="196" type="line"/>
      <point x="630" y="-9" type="line"/>
    </contour>
    <contour>
      <point x="630" y="333" type="line"/>
      <point x="608" y="311"/>
      <point x="555" y="259"/>
      <point x="483" y="259" type="curve" smooth="yes"/>
      <point x="433" y="259"/>
      <point x="391" y="275"/>
      <point x="355" y="281" type="curve"/>
      <point x="350" y="281"/>
      <point x="345" y="282"/>
      <point x="341" y="282" type="curve" smooth="yes"/>
      <point x="306" y="282"/>
      <point x="240" y="244"/>
      <point x="193" y="244" type="curve" smooth="yes"/>
      <point x="148" y="244"/>
      <point x="116" y="281"/>
      <point x="116" y="333" type="curve" smooth="yes"/>
      <point x="116" y="395"/>
      <point x="171" y="419"/>
      <point x="219" y="419" type="curve" smooth="yes"/>
      <point x="420" y="419" type="line"/>
      <point x="420" y="577" type="line"/>
      <point x="630" y="577" type="line"/>
    </contour>
  </outline>
</glyph>
